<?xml version="1.0" encoding="utf-8"?>
<!-- Generator: Adobe Illustrator 21.0.1, SVG Export Plug-In . SVG Version: 6.00 Build 0)  -->
<svg version="1.1" id="Слой_1" xmlns="http://www.w3.org/2000/svg" xmlns:xlink="http://www.w3.org/1999/xlink" x="0px" y="0px"
	 viewBox="0 0 209.3636322 98" style="enable-background:new 0 0 209.3636322 98;" xml:space="preserve">
<style type="text/css">
	.st0{fill:#7a509d;}
</style>
<g>
	<g>
		<g>
			<path class="st0" d="M65.5365372,67.9918442l-6.160614-9.0821266c-1.2296715-1.802166-3.7503166-2.2361565-5.6213188-0.965477
				l-4.5749435,3.1037636c-0.2166786-0.1781654-0.4414368-0.366909-0.6767998-0.5656128
				c-2.1690445-1.8102989-5.1329498-4.2833405-7.9585342-8.4469261c-2.8314896-4.1737823-4.038723-7.8513184-4.9188423-10.5354271
				c-0.0960732-0.2827301-0.1851311-0.555088-0.2712975-0.8189583l3.0672073-2.0786514L39.93256,37.57687
				c1.8727608-1.2737579,2.4004593-3.7764664,1.1747093-5.5812607l-6.1638718-9.0827866
				c-1.2212257-1.8050327-3.7451248-2.2396812-5.6222439-0.9667568l-2.5577068,1.7480755l0.0432358,0.069294
				c-0.8952503,0.7819901-1.6986675,1.7273102-2.3638096,2.7826309c-0.6216259,1.0105991-1.0797863,1.9994373-1.3929863,3.015995
				c-2.606142,8.1492958-0.2517433,16.5027466,8.1104202,28.8303604
				c11.5647106,17.0355415,23.2972889,18.1656151,23.8059063,18.2053871
				c1.1053963,0.0794525,2.1935043,0.0189056,3.3276138-0.1875763c1.2168236-0.2256393,2.3920135-0.6230927,3.4450455-1.167038
				l0.0387192,0.0514679l2.5875816-1.7152252C66.2326584,72.3035278,66.7601776,69.8019257,65.5365372,67.9918442
				L65.5365372,67.9918442z M65.5365372,67.9918442"/>
		</g>
	</g>
	<g>
		<path class="st0" d="M104.7252731,35.9629936L93.5446091,64.6631927h-5.9042969L76.4967575,35.9629936h6.4575195l7.859375,20.5
			l7.9707031-20.5H104.7252731z"/>
		<path class="st0" d="M107.8615036,38.5049858c-0.6645508-0.6826172-0.996582-1.5302734-0.996582-2.5419922
			c0-1.0107422,0.3320313-1.8583984,0.996582-2.5419922c0.6640625-0.6826172,1.5249023-1.0249023,2.5830078-1.0249023
			c1.0571289,0,1.918457,0.328125,2.5830078,0.9838867c0.6640625,0.65625,0.9960938,1.4760742,0.9960938,2.4599609
			c0,1.0664063-0.3320313,1.9477539-0.9960938,2.6445313c-0.6645508,0.6972656-1.5258789,1.0458984-2.5830078,1.0458984
			C109.3864059,39.5303764,108.5255661,39.1885796,107.8615036,38.5049858z M107.5660934,42.6050835h5.7563477v22.0581093
			h-5.7563477V42.6050835z"/>
		<path class="st0" d="M136.1818237,43.6915092c1.5131836,0.9433594,2.699707,2.269043,3.5610352,3.9770508
			c0.8608398,1.7084961,1.2915039,3.6972656,1.2915039,5.9658203c0,2.269043-0.4306641,4.2573242-1.2915039,5.965332
			c-0.8613281,1.7089844-2.0478516,3.0341797-3.5610352,3.9775391c-1.5126953,0.9423866-3.1918945,1.4140663-5.0366211,1.4140663
			c-2.730957,0-4.8095779-0.9560547-6.2363358-2.870121v2.541996H119.41082V34.2413139h5.7563477v10.7006836
			c1.4511719-1.7763672,3.4438553-2.6650391,5.978035-2.6650391
			C132.9899292,42.2769585,134.6691284,42.7486382,136.1818237,43.6915092z M133.7833862,58.0826225
			c0.9467773-1.1069336,1.4208984-2.5893555,1.4208984-4.4482422s-0.4741211-3.3417969-1.4208984-4.4487305
			c-0.9472656-1.1069336-2.1586914-1.6606445-3.6347656-1.6606445s-2.6879959,0.5537109-3.634285,1.6606445
			c-0.9472656,1.1069336-1.4208984,2.5898438-1.4208984,4.4487305s0.4736328,3.3413086,1.4208984,4.4482422
			c0.9462891,1.1069336,2.1582108,1.6606445,3.634285,1.6606445S132.8361206,59.1895561,133.7833862,58.0826225z"/>
		<path class="st0" d="M164.9450073,55.4380913h-15.0180664c0.2705078,1.3671875,0.909668,2.4467773,1.9189453,3.2392578
			c1.0083008,0.793457,2.2626953,1.1889648,3.7636719,1.1889648c1.0332031,0,1.9492188-0.1699219,2.7490234-0.5126953
			c0.7993164-0.3408203,1.543457-0.8813477,2.2324219-1.6196289l3.0625,3.690918
			c-1.8696289,2.3779297-4.6000977,3.5664101-8.1914063,3.5664101c-2.2387695,0-4.2192383-0.484375-5.940918-1.4550819
			c-1.722168-0.9697266-3.0507813-2.3164063-3.9853516-4.0390625c-0.9350586-1.722168-1.4023438-3.6757813-1.4023438-5.862793
			c0-2.1591797,0.4614258-4.1064453,1.3837891-5.8427734c0.9223633-1.7353516,2.1894531-3.0883789,3.8007813-4.059082
			c1.6108398-0.9697266,3.4130859-1.4555664,5.4057617-1.4555664c1.9433594,0,3.7021484,0.465332,5.2768555,1.394043
			c1.5737305,0.9296875,2.8100586,2.262207,3.7084961,3.9975586c0.8974609,1.7363281,1.3466797,3.7514648,1.3466797,6.0478516
			C165.0558472,53.7979546,165.0192261,54.3721733,164.9450073,55.4380913z M151.4767456,48.3453178
			c-0.8857422,0.8198242-1.4272461,1.940918-1.6235352,3.3618164h9.7783203
			c-0.1972656-1.394043-0.737793-2.5073242-1.6235352-3.3413086c-0.8857422-0.8334961-1.9682617-1.2504883-3.2470703-1.2504883
			C153.4567261,47.1153374,152.3624878,47.5250053,151.4767456,48.3453178z"/>
		<path class="st0" d="M177.9157104,43.097271c1.1679688-0.5463867,2.5151367-0.8203125,4.0405273-0.8203125v5.9042969
			c-0.6401367-0.0546875-1.0703125-0.0820313-1.2915039-0.0820313c-1.6484375,0-2.9399414,0.5126953-3.8745117,1.5375977
			c-0.9350586,1.0249023-1.4023438,2.5625-1.4023438,4.6123047v10.4140663h-5.7563477V42.6050835h5.4980469v2.9111328
			C175.8180542,44.4502983,176.7467651,43.644146,177.9157104,43.097271z"/>
	</g>
</g>
<g>
</g>
<g>
</g>
<g>
</g>
<g>
</g>
<g>
</g>
<g>
</g>
</svg>
