<svg id="Слой_1" xmlns="http://www.w3.org/2000/svg" viewBox="0 0 265.4545593 145"><style>.st0{fill:#e7447c}.st1{fill:#ba83aa}</style><path class="st0" d="M49.828 35.173c-5.061 4.121-9.96 7.7-14.366 11.808-4.83 4.506-7.846 10.287-8.046 16.962-.217 7.211 3.09 13.19 8.001 18.318 8.089 8.444 18.194 13.677 28.949 17.668 28.312 10.506 57.792 12.541 87.574 10.853 18.18-1.03 36.073-4.4 53.168-11.01 10.18-3.936 19.91-8.787 27.686-16.71 11.96-12.19 11.574-26.376-.953-37.956-2.086-1.928-4.357-3.656-6.351-5.672 9.867 5.943 18.954 12.805 22.444 24.428 2.85 9.493.028 18.03-6.225 25.502-6.988 8.352-16.027 13.887-25.767 18.34-14.339 6.556-29.449 10.426-45.013 12.812-16.337 2.504-32.759 3.673-49.222 2.676-20.693-1.252-41.16-4.318-60.665-11.73-11.595-4.407-22.673-9.9-31.64-18.866-13.787-13.782-13.693-29.752.15-43.51 5.814-5.78 12.73-9.962 20.276-13.913z"/><path class="st1" d="M100.345 57.495c2.274 2.484 3.411 5.559 3.411 9.224 0 2.832-.743 5.442-2.228 7.832-1.485 2.39-3.748 4.305-6.787 5.743-3.04 1.438-6.764 2.157-11.173 2.157-3.435 0-6.81-.452-10.129-1.357-3.318-.904-6.137-2.192-8.458-3.863l4.386-8.632c1.856 1.393 4.003 2.47 6.44 3.237a24.818 24.818 0 0 0 7.483 1.149c2.83 0 5.058-.545 6.683-1.636 1.624-1.09 2.436-2.634 2.436-4.63 0-3.99-3.04-5.986-9.119-5.986h-5.151v-7.45l10.024-11.346H67.418v-9.05h34.11v7.31L90.53 52.727c4.269.696 7.54 2.286 9.815 4.768zm40.585-4.559c2.55 1.253 4.57 3.028 6.055 5.325 1.485 2.298 2.228 4.955 2.228 7.97 0 3.25-.813 6.104-2.437 8.563-1.625 2.461-3.84 4.35-6.648 5.674-2.808 1.322-5.929 1.983-9.362 1.983-6.823 0-12.16-2.087-16.012-6.264-3.852-4.177-5.777-10.14-5.777-17.89 0-5.523 1.044-10.257 3.132-14.202 2.089-3.944 5-6.937 8.737-8.98 3.735-2.041 8.063-3.063 12.983-3.063 2.598 0 5.092.29 7.483.87 2.39.581 4.42 1.404 6.091 2.472l-4.177 8.283c-2.414-1.624-5.454-2.436-9.12-2.436-4.13 0-7.402 1.208-9.815 3.62-2.413 2.414-3.713 5.917-3.898 10.511 2.877-2.877 6.892-4.316 12.043-4.316 3.109 0 5.94.627 8.493 1.88zm-4.909 19.143c1.508-1.298 2.263-3.062 2.263-5.29s-.755-4.003-2.263-5.326c-1.508-1.322-3.515-1.983-6.021-1.983-2.46 0-4.48.684-6.057 2.054-1.578 1.369-2.366 3.12-2.366 5.255s.765 3.875 2.297 5.221c1.531 1.347 3.62 2.019 6.265 2.019 2.413 0 4.374-.65 5.882-1.95zm27.393 7.379c-3.157-1.995-5.628-4.883-7.414-8.667-1.787-3.78-2.68-8.295-2.68-13.539s.893-9.757 2.68-13.54c1.786-3.782 4.257-6.67 7.414-8.667 3.155-1.995 6.752-2.993 10.79-2.993 4.037 0 7.633.998 10.79 2.993 3.155 1.996 5.627 4.885 7.414 8.667 1.786 3.783 2.68 8.296 2.68 13.54s-.894 9.758-2.68 13.54c-1.787 3.783-4.259 6.671-7.414 8.666-3.157 1.996-6.753 2.993-10.79 2.993-4.038 0-7.635-.997-10.79-2.993zM181.2 69.086c1.694-2.552 2.54-6.497 2.54-11.834s-.846-9.281-2.54-11.835c-1.695-2.551-4.027-3.828-6.996-3.828-2.924 0-5.233 1.277-6.927 3.828-1.694 2.554-2.54 6.498-2.54 11.835s.846 9.282 2.54 11.834c1.694 2.553 4.003 3.83 6.927 3.83 2.97 0 5.301-1.277 6.996-3.83zm18.527-27.954c-1.538-.898-2.739-2.145-3.604-3.739-.866-1.593-1.298-3.402-1.298-5.427 0-2.024.432-3.833 1.298-5.427a9.481 9.481 0 0 1 3.604-3.74c1.537-.897 3.273-1.346 5.209-1.346 1.935 0 3.666.45 5.192 1.347 1.525.898 2.721 2.144 3.587 3.739.865 1.594 1.298 3.403 1.298 5.427 0 2.025-.433 3.834-1.298 5.427-.866 1.594-2.062 2.841-3.587 3.739-1.526.898-3.257 1.347-5.192 1.347-1.936 0-3.672-.449-5.21-1.347zm8.574-5.048c.876-1.025 1.315-2.397 1.315-4.118 0-1.72-.44-3.093-1.315-4.119-.877-1.024-1.999-1.537-3.365-1.537s-2.494.513-3.382 1.537c-.888 1.026-1.332 2.399-1.332 4.119 0 1.721.444 3.093 1.332 4.118.888 1.025 2.016 1.537 3.382 1.537s2.488-.512 3.365-1.537z"/></svg>