<?xml version="1.0" encoding="utf-8"?>
<!-- Generator: Adobe Illustrator 21.0.1, SVG Export Plug-In . SVG Version: 6.00 Build 0)  -->
<svg version="1.1" id="Слой_1" xmlns="http://www.w3.org/2000/svg" xmlns:xlink="http://www.w3.org/1999/xlink" x="0px" y="0px"
	 viewBox="0 0 143.6363678 145" style="enable-background:new 0 0 143.6363678 145;" xml:space="preserve">
<style type="text/css">
	.st0{fill:#BA83AA;}
	.st1{fill:#E6427C;}
</style>
<g>
	<path class="st0" d="M117.8827591,105.3659744c-0.8671875-0.5942383-2.0478516-0.3701172-2.640625,0.4941406
		c-9.7617188,14.2597656-25.8916016,22.7724533-43.1484375,22.7724533c-17.1396484,0-33.2080078-8.4228439-42.9833984-22.5312424
		c-0.5976563-0.8618164-1.7802734-1.0776367-2.6435547-0.4794922c-0.8623047,0.5976563-1.0771484,1.78125-0.4794922,2.6435547
		c10.4843731,15.1323242,27.7207012,24.1669846,46.1064453,24.1669846c18.5107422,0,35.8134766-9.13134,46.2832031-24.4257736
		C118.9696732,107.1408768,118.7479935,105.9582596,117.8827591,105.3659744z"/>
	<path class="st0" d="M19.8397923,76.379158c0-20.3134804,11.921875-38.9443398,30.3710918-47.4648438
		c0.9521484-0.4399414,1.3681641-1.5683594,0.9277344-2.5209961c-0.4394531-0.953125-1.5693359-1.3686523-2.5214844-0.9282227
		C28.8280735,34.6042519,16.0409641,54.5891151,16.0409641,76.379158c0,1.0493164,0.8505859,1.8999023,1.8994141,1.8999023
		S19.8397923,77.4284744,19.8397923,76.379158z"/>
	<path class="st0" d="M127.9462357,71.6208572c-1.3466797-16.026371-9.5654297-30.7270546-22.5488281-40.3325195
		c-0.84375-0.6240234-2.03125-0.4453125-2.6572266,0.3974609c-0.6240234,0.8432598-0.4462891,2.0332012,0.3974609,2.6572247
		c12.1044922,8.9555664,19.7675781,22.6586914,21.0234375,37.5966835c0.1230469,1.4599609,0.1855469,2.9536133,0.1855469,4.4394531
		c0,1.0493164,0.8505859,1.8999023,1.8994141,1.8999023s1.8994217-0.8505859,1.8994217-1.8999023
		C128.145462,74.7873611,128.0790558,73.1862869,127.9462357,71.6208572z"/>
	<path class="st1" d="M29.9071751,85.5412674h20.866209l0.3886719,0.9023438
		c0.15625,0.3637695,1.0097656,2.3295898,2.5615234,5.8984375c2.1289063,4.1801758,3.2929688,4.2280273,3.3417969,4.2280273
		c0.5859375,0,1.0615234-0.1723633,1.4960938-0.5429688c0.3730469-0.3173828,0.5322266-0.644043,0.5322266-1.0932617
		c-0.0166016-0.2983398-0.3417969-1.9008789-3.8535156-9.5454102c-1.1386719-2.4848633-3.6669922-7.7182617-7.7275391-16.0004883
		c-2.8037109-5.7109413-4.4667969-9.1298866-4.9423828-10.1606483c-0.4980469-1.0795898-0.8691406-1.5053711-1.0458984-1.6630859
		c-0.3642578-0.3330078-0.7392578-0.4814453-1.1972656-0.4814453c-0.4921875,0-0.8662109,0.1542969-1.2138672,0.5014648
		c-0.1601563,0.1606445-0.4970703,0.5805664-0.9414063,1.5830078c-1.7675781,3.4873047-3.4755859,6.9028358-5.109375,10.2226601
		c-3.0078106,6.1176758-5.5800762,11.5249023-7.6464825,16.0712891c-3.4462891,7.5795898-3.7626953,9.1738281-3.7773438,9.4819336
		c0,0.4399414,0.1591797,0.7666016,0.53125,1.0834961c0.4355469,0.3710938,0.8867188,0.543457,1.4179688,0.543457
		c0.4580078,0,1.3339844-0.6347656,2.4296875-2.4082031c1.1425781-2.5957031,2.3164063-5.2036133,3.4902344-7.7524414
		L29.9071751,85.5412674z M40.327095,63.4167519l8.8408203,18.8525429H31.4862766L40.327095,63.4167519z"/>
	<path class="st1" d="M91.4931107,94.6208572c0-0.4897461-0.0693359-1.0991211-0.3974609-1.2216797
		c-0.7412109-0.2749023-1.8427734-0.4145508-3.2724609-0.4145508H71.7040482V61.0651894
		c0-1.831543-0.1972656-2.7084961-0.3623047-3.121582l-0.0039063-0.0097656
		c-0.1611328-0.4121094-0.4238281-0.8510742-1.5048828-0.8510742c-1.1552734,0-1.3408203,0.4042969-1.4199219,0.5766602
		c-0.3515625,0.7636719-0.5292969,1.8300781-0.5292969,3.1713867v31.4433632c0,2.6967773,0.5351563,3.2509766,0.5957031,3.3056641
		c0.1132813,0.1015625,0.8125,0.5991211,3.6220703,0.5991211h15.9560547c0.8789063,0,1.6425781-0.0678711,2.2685547-0.2016602
		C91.302681,95.7497635,91.4931107,95.3244705,91.4931107,94.6208572z"/>
	<path class="st1" d="M123.1874466,93.3991776c-0.7412109-0.2749023-1.8417969-0.4145508-3.2714844-0.4145508h-16.1191406
		V61.0651894c0-1.8320313-0.1972656-2.7080078-0.3623047-3.1201172l-0.0048828-0.012207
		c-0.1611328-0.4116211-0.4228516-0.8500977-1.5039063-0.8500977c-1.15625,0-1.3417969,0.4042969-1.4208984,0.5766602
		c-0.3505859,0.7636719-0.5283203,1.8300781-0.5283203,3.1713867v31.4433632c0,2.6967773,0.5351563,3.2509766,0.5957031,3.3056641
		c0.1132813,0.1015625,0.8125,0.5991211,3.6210938,0.5991211h15.9570313c0.8789063,0,1.6425781-0.0678711,2.2685547-0.2016602
		c0.9765625-0.2275391,1.1669922-0.652832,1.1669922-1.3564453
		C123.5858841,94.1311111,123.5165482,93.5217361,123.1874466,93.3991776z"/>
	<path class="st1" d="M65.9599075,35.2165565l-1.9169922,11.1821289c-0.1220703,0.7124023,0.1708984,1.4326172,0.7558594,1.8579102
		c0.5849609,0.4248047,1.3623047,0.4799805,2,0.1445313L76.8407669,43.12183l10.0419922,5.2792969
		c0.2773438,0.1459961,0.5810547,0.2182617,0.8837891,0.2182617c0.3935547,0,0.7861328-0.1225586,1.1162109-0.362793
		c0.5859375-0.425293,0.8789063-1.1455078,0.7558594-1.8583984l-1.9179688-11.1816406l8.1240234-7.9189434
		c0.5175781-0.5048828,0.7041016-1.2597656,0.4804688-1.9472656c-0.2236328-0.6879883-0.8173828-1.1889648-1.5332031-1.2929688
		l-11.2265625-1.6313477L78.5438919,12.252203c-0.3193359-0.6484375-0.9804688-1.059082-1.703125-1.059082
		s-1.3837891,0.4106445-1.703125,1.059082l-5.0214844,10.1738281l-11.2275391,1.6313477
		c-0.7148438,0.1040039-1.3095703,0.6049805-1.5332031,1.2929688c-0.2236328,0.6875-0.0371094,1.4423828,0.4804688,1.9472656
		L65.9599075,35.2165565z M71.6513138,26.0422421c0.6181641-0.0898438,1.1533203-0.4785156,1.4296875-1.0390625l3.7597656-7.6176758
		l3.7597656,7.6176758c0.2763672,0.5605469,0.8115234,0.9492188,1.4296875,1.0390625l8.40625,1.2216797l-6.0830078,5.9291973
		c-0.4472656,0.4365234-0.6523438,1.0654297-0.5458984,1.6816406l1.4355469,8.3720703l-7.5185547-3.953125
		c-0.5527344-0.2910156-1.2148438-0.2910156-1.7675781,0l-7.5195313,3.953125l1.4355469-8.3725586
		c0.1064453-0.6162109-0.0986328-1.2446289-0.5458984-1.6811523l-6.0830078-5.9291973L71.6513138,26.0422421z"/>
	<path class="st1" d="M75.6679153,109.9074783c-0.2236328-0.6879883-0.8173828-1.1889648-1.5332031-1.2929688l-4.8554688-0.7055664
		l-2.1699219-4.3989258c-0.3203125-0.6489258-0.9804688-1.0595703-1.7041016-1.0595703
		c-0.7226563,0-1.3837891,0.4106445-1.703125,1.059082l-2.171875,4.3994141l-4.8554688,0.7055664
		c-0.7158203,0.1040039-1.3095703,0.6049805-1.5332031,1.2929688c-0.2236328,0.6875-0.0371094,1.4428711,0.4804688,1.9472656
		l3.5136719,3.4243164l-0.8291016,4.8349609c-0.1230469,0.7128906,0.1708984,1.4331055,0.7558594,1.8583984
		c0.3300781,0.2402344,0.7226563,0.362793,1.1162109,0.362793c0.3027344,0,0.6064453-0.0722656,0.8837891-0.2182617
		l4.3427734-2.2827148l4.3417969,2.2827148c0.6386719,0.3369141,1.4169922,0.28125,2-0.1445313
		c0.5849609-0.425293,0.8789063-1.1455078,0.7558594-1.8583984l-0.8291016-4.8349609l3.5136719-3.4243164
		C75.7050247,111.3503494,75.8915482,110.5949783,75.6679153,109.9074783z M69.6330032,114.6156693l0.9981689,5.8195801
		l-5.2263794-2.7476196l-5.2263184,2.7476196l0.9981689-5.8195801l-4.2282104-4.12146l5.8432007-0.8490601l2.6131592-5.2948608
		l2.6132202,5.2948608l5.8432007,0.8490601L69.6330032,114.6156693z"/>
	<path class="st1" d="M65.4047928,104.3502884l-2.6131592,5.2948608l-5.8432007,0.8490601l4.2282104,4.12146l-0.9981689,5.8195801
		l5.2263184-2.7476196l5.2263794,2.7476196l-0.9981689-5.8195801l4.2282104-4.12146l-5.8432007-0.8490601L65.4047928,104.3502884z
		 M68.3065872,113.2551346c-0.4472656,0.4365234-0.6523438,1.0649414-0.5458984,1.6816406l0.3466797,2.0253906l-1.8183594-0.9560547
		c-0.5527344-0.2910156-1.2148438-0.2910156-1.7675781,0l-1.8193359,0.956543l0.3466797-2.0258789
		c0.1064453-0.6166992-0.0986328-1.2451172-0.5458984-1.6816406l-1.4716797-1.434082l2.0341797-0.2958984
		c0.6181641-0.0898438,1.1533203-0.4785156,1.4296875-1.0390625l0.9101563-1.8427734l0.9082031,1.8422852
		c0.2773438,0.5610352,0.8125,0.949707,1.4306641,1.0395508l2.0341797,0.2958984L68.3065872,113.2551346z"/>
	<path class="st0" d="M72.84272,32.3767128l-0.2929688,1.7089844c-0.1230469,0.7128906,0.1699219,1.4331055,0.7558594,1.8583984
		c0.5839844,0.425293,1.3613281,0.4804688,2,0.1445313l1.5351563-0.8066406l1.5341797,0.8066406
		c0.2773438,0.1459961,0.5810547,0.2182617,0.8837891,0.2182617c0.3935547,0,0.7851563-0.1225586,1.1162109-0.362793
		c0.5849609-0.425293,0.8789063-1.1455078,0.7558594-1.8583984l-0.2929688-1.7084961l1.2421875-1.2104473
		c0.5175781-0.5043945,0.7041016-1.2592773,0.4804688-1.9472656s-0.8173828-1.1889648-1.5332031-1.2929688L79.31147,27.6770077
		l-0.7666016-1.5546875c-0.3203125-0.6484375-0.9804688-1.0585938-1.7041016-1.059082
		c-0.7226563,0-1.3828125,0.4106445-1.703125,1.0585938l-0.7685547,1.5551758l-1.7148438,0.2495117
		c-0.7158203,0.1040039-1.3095703,0.6049805-1.5332031,1.2929688c-0.2236328,0.6875-0.0371094,1.4423828,0.4804688,1.9472656
		L72.84272,32.3767128z M76.8407669,30.8781796c0.0595703,0.0498047,0.1230469,0.0957031,0.1894531,0.1376953
		c-0.0292969,0.0732422-0.0537109,0.1474609-0.0732422,0.2236328c-0.0761719-0.0048828-0.1552734-0.0048828-0.2333984,0
		c-0.0195313-0.0761719-0.0439453-0.1503906-0.0732422-0.2236328C76.7167435,30.9738827,76.78022,30.9279842,76.8407669,30.8781796z
		"/>
</g>
<g>
</g>
<g>
</g>
<g>
</g>
<g>
</g>
<g>
</g>
<g>
</g>
</svg>
