<svg id="Слой_1" xmlns="http://www.w3.org/2000/svg" viewBox="0 0 143.6363678 145"><style>.st0{fill:#ba83aa}.st1{fill:#e6427c}</style><path class="st0" d="M117.883 105.366a1.9 1.9 0 0 0-2.64.494 52.274 52.274 0 0 1-43.15 22.773c-17.139 0-33.207-8.423-42.983-22.532a1.9 1.9 0 1 0-3.123 2.164c10.485 15.133 27.721 24.167 46.107 24.167a56.073 56.073 0 0 0 46.283-24.425 1.9 1.9 0 0 0-.494-2.641zM19.84 76.38c0-20.314 11.922-38.945 30.37-47.466a1.9 1.9 0 1 0-1.593-3.449C28.828 34.605 16.041 54.59 16.041 76.38a1.9 1.9 0 1 0 3.799 0zm108.106-4.76c-1.346-16.026-9.565-30.726-22.549-40.332a1.9 1.9 0 0 0-2.26 3.055c12.105 8.956 19.768 22.659 21.024 37.597a53.1 53.1 0 0 1 .186 4.44 1.9 1.9 0 1 0 3.798 0 56.48 56.48 0 0 0-.199-4.76z"/><path class="st1" d="M29.907 85.541h20.866l.39.903c.155.363 1.009 2.33 2.56 5.898 2.13 4.18 3.294 4.228 3.342 4.228.586 0 1.062-.172 1.496-.543.374-.317.533-.644.533-1.093-.017-.298-.342-1.901-3.854-9.546-1.138-2.484-3.667-7.718-7.727-16-2.804-5.711-4.467-9.13-4.943-10.16-.498-1.08-.869-1.506-1.046-1.664-.364-.333-.739-.481-1.197-.481a1.6 1.6 0 0 0-1.214.501c-.16.16-.497.58-.941 1.583a971.677 971.677 0 0 0-5.11 10.223c-3.007 6.118-5.58 11.525-7.646 16.071-3.446 7.58-3.763 9.174-3.777 9.482 0 .44.159.767.53 1.084.436.37.888.543 1.419.543.458 0 1.334-.635 2.43-2.408a504.712 504.712 0 0 1 3.49-7.753l.4-.868zm10.42-22.124l8.84 18.852h-17.68l8.84-18.852zM91.493 94.62c0-.489-.07-1.098-.397-1.22-.742-.276-1.843-.415-3.273-.415H71.704v-31.92c0-1.831-.197-2.708-.362-3.121l-.004-.01c-.161-.412-.424-.851-1.505-.851-1.155 0-1.34.404-1.42.576-.352.764-.53 1.83-.53 3.172v31.443c0 2.697.536 3.251.596 3.306.114.101.813.599 3.623.599h15.956c.878 0 1.642-.068 2.268-.202.977-.227 1.167-.653 1.167-1.356zm31.694-1.22c-.74-.276-1.841-.415-3.271-.415h-16.12v-31.92c0-1.832-.196-2.708-.361-3.12l-.005-.012c-.161-.412-.423-.85-1.504-.85-1.157 0-1.342.404-1.421.576-.35.764-.528 1.83-.528 3.172v31.443c0 2.697.535 3.251.595 3.306.113.101.813.599 3.621.599h15.957c.88 0 1.643-.068 2.269-.202.976-.227 1.167-.653 1.167-1.356 0-.49-.07-1.1-.399-1.222zM65.96 35.217l-1.917 11.182a1.9 1.9 0 0 0 2.756 2.002l10.042-5.28 10.042 5.28a1.896 1.896 0 0 0 2-.144 1.897 1.897 0 0 0 .756-1.859L87.72 35.217l8.124-7.92a1.9 1.9 0 0 0-1.053-3.24l-11.227-1.631-5.021-10.174a1.899 1.899 0 0 0-3.406 0l-5.022 10.174-11.227 1.631a1.9 1.9 0 0 0-1.053 3.24l8.124 7.92zm5.691-9.175a1.899 1.899 0 0 0 1.43-1.039l3.76-7.617 3.76 7.617a1.9 1.9 0 0 0 1.43 1.04l8.405 1.22-6.083 5.93a1.9 1.9 0 0 0-.545 1.682l1.435 8.372-7.518-3.953a1.898 1.898 0 0 0-1.768 0l-7.52 3.953 1.436-8.373a1.898 1.898 0 0 0-.546-1.68l-6.083-5.93 8.407-1.222zm4.017 83.865a1.899 1.899 0 0 0-1.533-1.292l-4.856-.706-2.17-4.399a1.9 1.9 0 0 0-3.407 0l-2.172 4.399-4.855.706a1.899 1.899 0 0 0-1.053 3.24l3.514 3.424-.83 4.835a1.899 1.899 0 0 0 2.756 2.003l4.343-2.283 4.342 2.283a1.899 1.899 0 0 0 2.756-2.003l-.83-4.835 3.514-3.424a1.9 1.9 0 0 0 .48-1.948zm-6.035 4.709l.998 5.82-5.226-2.748-5.227 2.747.999-5.82-4.229-4.12 5.844-.85 2.613-5.295 2.613 5.295 5.843.85-4.228 4.12z"/><path class="st1" d="M65.405 104.35l-2.613 5.295-5.844.85 4.229 4.12-.999 5.82 5.227-2.747 5.226 2.747-.998-5.82 4.228-4.12-5.843-.85-2.613-5.295zm2.902 8.905a1.899 1.899 0 0 0-.546 1.682l.346 2.025-1.818-.956a1.898 1.898 0 0 0-1.768 0l-1.819.957.347-2.026a1.899 1.899 0 0 0-.546-1.682l-1.472-1.434 2.034-.296a1.899 1.899 0 0 0 1.43-1.039l.91-1.843.908 1.843c.278.56.813.95 1.431 1.04l2.034.295-1.471 1.434z"/><path class="st0" d="M72.843 32.377l-.293 1.709a1.9 1.9 0 1 0 2.756 2.003l1.535-.807 1.534.807a1.896 1.896 0 0 0 2-.145 1.899 1.899 0 0 0 .756-1.858l-.293-1.709 1.242-1.21a1.9 1.9 0 0 0-1.053-3.24l-1.716-.25-.766-1.555a1.901 1.901 0 0 0-3.407 0l-.769 1.555-1.715.25a1.899 1.899 0 0 0-1.052 3.24l1.24 1.21zm3.998-1.499c.06.05.123.096.19.138-.03.073-.054.147-.074.224a1.861 1.861 0 0 0-.233 0 1.813 1.813 0 0 0-.074-.224c.067-.042.13-.088.19-.138z"/></svg>