<?xml version="1.0" encoding="utf-8"?>
<!-- Generator: Adobe Illustrator 21.0.1, SVG Export Plug-In . SVG Version: 6.00 Build 0)  -->
<svg version="1.1" id="Слой_1" xmlns="http://www.w3.org/2000/svg" xmlns:xlink="http://www.w3.org/1999/xlink" x="0px" y="0px"
	 viewBox="0 0 143.1818237 131.8181763" style="enable-background:new 0 0 143.1818237 131.8181763;" xml:space="preserve">
<style type="text/css">
	.st0{fill:#FFFFFF;}
	.st1{fill:#E7447C;}
	.st2{fill:#E6427C;}
	.st3{fill:#BA83AA;}
</style>
<g>
	<g>
		<path class="st0" d="M104.4405365,120.4557495H42.3200378c-13.410553,0-24.2819557-10.8713989-24.2819557-24.2819519V34.053299
			c0-13.4105549,10.8714027-24.2819576,24.2819557-24.2819576h62.1204987c13.410553,0,24.2819519,10.8714027,24.2819519,24.2819576
			v62.1204987C128.7224884,109.5843506,117.8510895,120.4557495,104.4405365,120.4557495z"/>
		<g>
			<g>
				<path class="st1" d="M107.1131973,120.4558334H39.647377c-11.9155273,0-21.609375-9.6938477-21.609375-21.609375V31.3806362
					c0-11.9155273,9.6938477-21.609375,21.609375-21.609375h67.4658203c11.9155273,0,21.6093674,9.6938477,21.6093674,21.609375
					v67.4658203C128.7225647,110.7619858,119.0287247,120.4558334,107.1131973,120.4558334z M39.647377,13.4558315
					c-9.8837891,0-17.9248047,8.0410156-17.9248047,17.9248047v67.4658203c0,9.8837891,8.0410156,17.9248047,17.9248047,17.9248047
					h67.4658203c9.8837891,0,17.9248047-8.0410156,17.9248047-17.9248047V31.3806362
					c0-9.8837891-8.0410156-17.9248047-17.9248047-17.9248047H39.647377z"/>
			</g>
		</g>
	</g>
	<g>
		<path class="st2" d="M93.6053543,103.4828873c0.4625702,0.0730057,0.9253235-0.0335312,1.2965851-0.307457
			c0.3804626-0.2739182,0.6299515-0.6787109,0.6999893-1.1413727l0.4170532-2.7363205
			c0.0821075-0.5446777,0.4169617-1.0225754,0.9161301-1.2721558l2.471405-1.2357559
			c0.4292297-0.2130737,0.7365875-0.5691986,0.8797226-1.0105896c0.1430435-0.4503098,0.0942764-0.9282074-0.1065445-1.3421021
			l-1.2844162-2.4624023c-0.249588-0.4869995-0.249588-1.068367,0-1.5584335l1.2844162-2.4592361
			c0.2008209-0.4170532,0.249588-0.8917923,0.1065445-1.3452606c-0.1431351-0.438324-0.4504929-0.7944489-0.8797226-1.0105972
			l-2.471405-1.2357483c-0.4991684-0.2495804-0.8340225-0.7243195-0.9161301-1.2721634l-0.4170532-2.7332458
			c-0.0700378-0.4656372-0.3195267-0.8674622-0.6999893-1.1413803c-0.3712616-0.2739182-0.8340149-0.3926239-1.2965851-0.3104248
			l-2.7363205,0.4534683c-0.5447693,0.0943756-1.0927048-0.0852661-1.4853287-0.4778976l-1.950882-1.9844055
			c-0.3196182-0.3196182-0.7610092-0.5113373-1.2357483-0.5113373c-0.4504929,0-0.9040527,0.1917191-1.2358398,0.5113373
			l-1.9388046,1.9844055c-0.3926239,0.3926315-0.9374924,0.5722733-1.4853287,0.4778976l-2.7331619-0.4534683
			c-0.4657211-0.0700302-0.9282913,0.0486755-1.3088455,0.3225937c-0.3682022,0.2617493-0.6299515,0.6757431-0.6908875,1.1413803
			l-0.4138947,2.7332458c-0.0852661,0.5478439-0.4291306,1.0104141-0.9161301,1.2599945l-2.4867325,1.2357483
			c-0.4017334,0.2161484-0.7244186,0.5844345-0.867363,1.0226746c-0.1430435,0.441391-0.106636,0.9161301,0.1065369,1.3331833
			l1.2721634,2.4714966c0.2618408,0.4778061,0.2618408,1.0713425,0,1.5461731l-1.2721634,2.474472
			c-0.2131729,0.4139023-0.2495804,0.8917999-0.1065369,1.3300323c0.1429443,0.441391,0.4534607,0.8096848,0.867363,1.0227585
			l2.4867325,1.2356567c0.4869995,0.249588,0.830864,0.7154083,0.9161301,1.2600861l0.4138947,2.7363205
			c0.060936,0.4626617,0.3226852,0.8796234,0.6908875,1.1413727c0.3805542,0.286087,0.8431244,0.3927231,1.3088455,0.3195267
			l2.7331619-0.4504013c0.5478363-0.094368,1.0927048,0.0822067,1.4853287,0.4747391l1.9388046,1.9753952
			c0.3317871,0.343956,0.7730865,0.5205307,1.2358398,0.5205307c0.4656372,0,0.9161301-0.1765747,1.2357483-0.5205307
			l1.950882-1.9753952c0.3926239-0.3925323,0.9405594-0.5691071,1.4853287-0.4747391L93.6053543,103.4828873z
			 M86.1970749,101.4861221c-5.8134232,0-10.5463181-4.7327957-10.5463181-10.5463181
			c0-5.8133392,4.7328949-10.5463181,10.5463181-10.5463181c5.8255997,0,10.5462265,4.7329788,10.5462265,10.5463181
			C96.7433014,96.7533264,92.0226746,101.4861221,86.1970749,101.4861221L86.1970749,101.4861221z M86.1970749,101.4861221"/>
		<path class="st3" d="M86.1970749,82.0571442c-4.9703979,0-9.0123138,4.0449829-9.0123138,9.0123138
			c0,4.9703064,4.0419159,9.0123138,9.0123138,9.0123138c4.9824753,0,9.0244827-4.0420074,9.0244827-9.0123138
			C95.2215576,86.1021271,91.1795502,82.0571442,86.1970749,82.0571442L86.1970749,82.0571442z M86.1970749,82.0571442"/>
		<path class="st3" d="M101.9145203,105.4581909l-4.9093704-4.9002762l-0.249588,1.6527176
			c-0.1187057,0.7608261-0.5356674,1.4639664-1.165802,1.9144592c-0.6177826,0.4534683-1.3909607,0.6422119-2.1761246,0.5235062
			l-2.7332535-0.4504929c-0.2252426-0.0121689-0.3682861,0.0456085-0.4626617,0.1552124l-0.4657288,0.4626617l6.4100342,6.4069672
			c0.2495804,0.2495804,0.6057053,0.3348541,0.9374008,0.2373199c0.3226852-0.1064453,0.5722656-0.3803635,0.6422119-0.7243195
			l0.5722656-3.1137085l3.1137085-0.584343c0.343956-0.057869,0.6178818-0.3074493,0.7243271-0.6423035
			C102.2493744,106.0638962,102.1641083,105.7077713,101.9145203,105.4581909L101.9145203,105.4581909z M101.9145203,105.4581909"/>
		<path class="st3" d="M81.8110199,104.185936l-2.8305969,0.4626617c-0.7852554,0.1187057-1.558342-0.0700378-2.1762161-0.5357666
			c-0.6178741-0.4382324-1.0439377-1.1413727-1.1657104-1.9113007l-0.2495804-1.6436157l-4.8972092,4.9002762
			c-0.2495804,0.2495804-0.3317871,0.6057053-0.2374191,0.9374008c0.1065445,0.3348541,0.3804626,0.5722656,0.7244186,0.6423035
			l3.1165924,0.584343l0.581459,3.1137085c0.0608444,0.343956,0.3103333,0.6178741,0.6422119,0.7243195
			c0.3195267,0.0975342,0.6908798,0.0122604,0.928299-0.2373199l6.4068756-6.4069672l-0.4625702-0.4748306
			C82.084938,104.2437134,81.954155,104.185936,81.8110199,104.185936L81.8110199,104.185936z M81.8110199,104.185936"/>
		<path class="st3" d="M90.2718277,44.5190239H56.7457008c-0.8254776,0-1.497242,0.6715279-1.497242,1.4970016
			c0,0.8394699,0.6575317,1.4967651,1.497242,1.4967651h33.5261269c0.8397141,0,1.4972458-0.6572952,1.4972458-1.4967651
			S91.1115417,44.5190239,90.2718277,44.5190239z"/>
		<path class="st3" d="M90.2718277,55.7269783H56.7457008c-0.8254776,0-1.497242,0.665596-1.497242,1.4837189
			c0,0.8254738,0.6717644,1.4970016,1.497242,1.4970016h33.5261269c0.8397141,0,1.4972458-0.6575317,1.4972458-1.4970016
			C91.7690735,56.3925743,91.0973053,55.7269783,90.2718277,55.7269783z"/>
		<path class="st2" d="M101.3934402,80.8282852c0.495285,0.3543854,0.9364853,0.7799301,1.3126984,1.2586136l0.0668869-46.8309822
			c0-3.1588631-2.5632401-5.7296963-5.7133255-5.7296963H50.0825996c-3.1600494,0-5.7308807,2.5708332-5.7308807,5.7306461
			v62.0723724c0,3.1600494,2.5708313,5.7308807,5.7308807,5.7308807h18.3193703l2.1799164-2.1894073l-0.7913132-0.392807
			c-0.4094162-0.221077-0.7690201-0.4573364-1.1049042-0.7234802H50.0825996c-1.3449516,0-2.4389458-1.0958862-2.4389458-2.4432144
			V35.2388382c0-1.3447189,1.0939941-2.4387093,2.4389458-2.4387093H97.0597c1.3217087,0,2.4384689,1.1167641,2.4384689,2.4387093
			v44.6100235C100.1993484,80.0770569,100.8350601,80.4053497,101.3934402,80.8282852z"/>
	</g>
</g>
<g>
</g>
<g>
</g>
<g>
</g>
<g>
</g>
<g>
</g>
<g>
</g>
</svg>
