<?xml version="1.0" encoding="UTF-8" standalone="no"?>
<!-- Generator: Adobe Illustrator 21.0.1, SVG Export Plug-In . SVG Version: 6.00 Build 0)  -->

<svg
   xmlns:dc="http://purl.org/dc/elements/1.1/"
   xmlns:cc="http://creativecommons.org/ns#"
   xmlns:rdf="http://www.w3.org/1999/02/22-rdf-syntax-ns#"
   xmlns:svg="http://www.w3.org/2000/svg"
   xmlns="http://www.w3.org/2000/svg"
   xmlns:sodipodi="http://sodipodi.sourceforge.net/DTD/sodipodi-0.dtd"
   xmlns:inkscape="http://www.inkscape.org/namespaces/inkscape"
   version="1.1"
   id="Слой_1"
   x="0px"
   y="0px"
   viewBox="0 0 110.685 110.685"
   xml:space="preserve"
   sodipodi:docname="certificate.svg"
   width="110.685"
   height="110.685"
   inkscape:version="0.92.4 (5da689c313, 2019-01-14)"><metadata
   id="metadata49"><rdf:RDF><cc:Work
       rdf:about=""><dc:format>image/svg+xml</dc:format><dc:type
         rdf:resource="http://purl.org/dc/dcmitype/StillImage" /><dc:title></dc:title></cc:Work></rdf:RDF></metadata><defs
   id="defs47" /><sodipodi:namedview
   pagecolor="#ffffff"
   bordercolor="#666666"
   borderopacity="1"
   objecttolerance="10"
   gridtolerance="10"
   guidetolerance="10"
   inkscape:pageopacity="0"
   inkscape:pageshadow="2"
   inkscape:window-width="1366"
   inkscape:window-height="705"
   id="namedview45"
   showgrid="false"
   inkscape:zoom="1.7903449"
   inkscape:cx="71.590912"
   inkscape:cy="65.909088"
   inkscape:window-x="-8"
   inkscape:window-y="-8"
   inkscape:window-maximized="1"
   inkscape:current-layer="Слой_1" />
<style
   type="text/css"
   id="style2">
	.st0{fill:#FFFFFF;}
	.st1{fill:#E7447C;}
	.st2{fill:#E6427C;}
	.st3{fill:#BA83AA;}
</style>
<g
   id="g30"
   transform="translate(-18.037782,-9.7710468)">
	<g
   id="g12">
		<path
   class="st0"
   d="M 104.44054,120.45575 H 42.320038 c -13.410553,0 -24.281956,-10.8714 -24.281956,-24.281952 V 34.053299 c 0,-13.410555 10.871403,-24.2819576 24.281956,-24.2819576 h 62.120502 c 13.41055,0 24.28195,10.8714026 24.28195,24.2819576 v 62.120499 c 0,13.410552 -10.8714,24.281952 -24.28195,24.281952 z"
   id="path4"
   inkscape:connector-curvature="0"
   style="fill:#ffffff" />
		<g
   id="g10">
			<g
   id="g8">
				<path
   class="st1"
   d="M 107.1132,120.45583 H 39.647377 c -11.915527,0 -21.609375,-9.69384 -21.609375,-21.609372 V 31.380636 c 0,-11.915527 9.693848,-21.6093748 21.609375,-21.6093748 H 107.1132 c 11.91552,0 21.60936,9.6938478 21.60936,21.6093748 v 67.465821 c 0,11.915533 -9.69384,21.609373 -21.60936,21.609373 z M 39.647377,13.455832 c -9.883789,0 -17.924805,8.041015 -17.924805,17.924804 v 67.465821 c 0,9.883793 8.041016,17.924803 17.924805,17.924803 H 107.1132 c 9.88379,0 17.9248,-8.04101 17.9248,-17.924803 V 31.380636 c 0,-9.883789 -8.04101,-17.924804 -17.9248,-17.924804 H 39.647377 Z"
   id="path6"
   inkscape:connector-curvature="0"
   style="fill:#e7447c" />
			</g>
		</g>
	</g>
	<g
   id="g28">
		<path
   class="st2"
   d="m 93.605354,103.48289 c 0.462571,0.073 0.925324,-0.0335 1.296585,-0.30746 0.380463,-0.27392 0.629952,-0.67871 0.69999,-1.14137 l 0.417053,-2.736323 c 0.08211,-0.544678 0.416962,-1.022575 0.91613,-1.272156 l 2.471405,-1.235756 c 0.42923,-0.213073 0.736583,-0.569198 0.879723,-1.010589 0.14304,-0.45031 0.0943,-0.928208 -0.10654,-1.342102 l -1.284421,-2.462403 c -0.249588,-0.486999 -0.249588,-1.068367 0,-1.558433 l 1.284421,-2.459236 c 0.20082,-0.417053 0.24958,-0.891793 0.10654,-1.345261 -0.14314,-0.438324 -0.450493,-0.794449 -0.879723,-1.010597 l -2.471405,-1.235748 c -0.499168,-0.249581 -0.834023,-0.72432 -0.91613,-1.272164 l -0.417053,-2.733246 c -0.07004,-0.465637 -0.319527,-0.867462 -0.69999,-1.14138 -0.371261,-0.273918 -0.834014,-0.392624 -1.296585,-0.310425 l -2.73632,0.453469 c -0.54477,0.09437 -1.092705,-0.08527 -1.485329,-0.477898 l -1.950882,-1.984405 c -0.319618,-0.319619 -0.761009,-0.511338 -1.235748,-0.511338 -0.450493,0 -0.904053,0.191719 -1.23584,0.511338 l -1.938805,1.984405 c -0.392623,0.392632 -0.937492,0.572273 -1.485328,0.477898 L 78.80394,78.908241 c -0.465721,-0.07003 -0.928291,0.04868 -1.308846,0.322594 -0.368202,0.261749 -0.629951,0.675743 -0.690887,1.14138 l -0.413895,2.733246 c -0.08527,0.547844 -0.42913,1.010414 -0.91613,1.259995 l -2.486732,1.235748 c -0.401734,0.216148 -0.724419,0.584434 -0.867363,1.022675 -0.143044,0.441391 -0.106636,0.91613 0.106536,1.333183 l 1.272164,2.471496 c 0.261841,0.477807 0.261841,1.071343 0,1.546174 l -1.272164,2.474472 c -0.213172,0.413902 -0.24958,0.891799 -0.106536,1.330032 0.142944,0.441391 0.45346,0.809685 0.867363,1.022758 l 2.486732,1.235657 c 0.487,0.249588 0.830864,0.715408 0.91613,1.260086 l 0.413895,2.736323 c 0.06094,0.46266 0.322685,0.87962 0.690887,1.14137 0.380555,0.28609 0.843125,0.39272 1.308846,0.31953 l 2.733162,-0.4504 c 0.547836,-0.0944 1.092705,0.0822 1.485328,0.47473 l 1.938805,1.9754 c 0.331787,0.34396 0.773087,0.52053 1.23584,0.52053 0.465637,0 0.91613,-0.17657 1.235748,-0.52053 l 1.950882,-1.9754 c 0.392624,-0.39253 0.94056,-0.5691 1.485329,-0.47473 z m -7.408279,-1.99677 c -5.813423,0 -10.546318,-4.732794 -10.546318,-10.546316 0,-5.813339 4.732895,-10.546318 10.546318,-10.546318 5.8256,0 10.546226,4.732979 10.546226,10.546318 0,5.813522 -4.720626,10.546316 -10.546226,10.546316 z m 0,0"
   id="path14"
   inkscape:connector-curvature="0"
   style="fill:#e6427c" />
		<path
   class="st3"
   d="m 86.197075,82.057144 c -4.970398,0 -9.012314,4.044983 -9.012314,9.012314 0,4.970306 4.041916,9.012312 9.012314,9.012312 4.982475,0 9.024483,-4.042006 9.024483,-9.012312 0,-4.967331 -4.042008,-9.012314 -9.024483,-9.012314 z m 0,0"
   id="path16"
   inkscape:connector-curvature="0"
   style="fill:#ba83aa" />
		<path
   class="st3"
   d="m 101.91452,105.45819 -4.90937,-4.90028 -0.249588,1.65272 c -0.118706,0.76083 -0.535667,1.46397 -1.165802,1.91446 -0.617783,0.45347 -1.390961,0.64221 -2.176125,0.52351 l -2.733253,-0.4505 c -0.225243,-0.0122 -0.368286,0.0456 -0.462662,0.15522 l -0.465729,0.46266 6.410035,6.40697 c 0.24958,0.24958 0.605705,0.33485 0.9374,0.23732 0.322686,-0.10645 0.572266,-0.38037 0.642212,-0.72432 l 0.572266,-3.11371 3.113706,-0.58435 c 0.34396,-0.0579 0.61788,-0.30744 0.72433,-0.6423 0.0974,-0.33169 0.0122,-0.68782 -0.23742,-0.9374 z m 0,0"
   id="path18"
   inkscape:connector-curvature="0"
   style="fill:#ba83aa" />
		<path
   class="st3"
   d="m 81.81102,104.18594 -2.830597,0.46266 c -0.785255,0.1187 -1.558342,-0.07 -2.176216,-0.53577 -0.617874,-0.43823 -1.043938,-1.14137 -1.16571,-1.9113 l -0.249581,-1.64362 -4.897209,4.90028 c -0.249581,0.24958 -0.331787,0.60571 -0.237419,0.9374 0.106544,0.33486 0.380462,0.57227 0.724418,0.64231 l 3.116593,0.58434 0.581459,3.11371 c 0.06084,0.34395 0.310333,0.61787 0.642212,0.72432 0.319526,0.0975 0.69088,0.0123 0.928299,-0.23732 l 6.406875,-6.40697 -0.46257,-0.47483 c -0.106636,-0.0974 -0.237419,-0.15521 -0.380554,-0.15521 z m 0,0"
   id="path20"
   inkscape:connector-curvature="0"
   style="fill:#ba83aa" />
		<path
   class="st3"
   d="M 90.271828,44.519024 H 56.745701 c -0.825478,0 -1.497242,0.671528 -1.497242,1.497001 0,0.83947 0.657532,1.496766 1.497242,1.496766 h 33.526127 c 0.839714,0 1.497246,-0.657296 1.497246,-1.496766 0,-0.839469 -0.657532,-1.497001 -1.497246,-1.497001 z"
   id="path22"
   inkscape:connector-curvature="0"
   style="fill:#ba83aa" />
		<path
   class="st3"
   d="M 90.271828,55.726978 H 56.745701 c -0.825478,0 -1.497242,0.665596 -1.497242,1.483719 0,0.825474 0.671764,1.497002 1.497242,1.497002 h 33.526127 c 0.839714,0 1.497246,-0.657532 1.497246,-1.497002 0,-0.818123 -0.671769,-1.483719 -1.497246,-1.483719 z"
   id="path24"
   inkscape:connector-curvature="0"
   style="fill:#ba83aa" />
		<path
   class="st2"
   d="m 101.39344,80.828285 c 0.49529,0.354386 0.93649,0.77993 1.3127,1.258614 l 0.0669,-46.830982 c 0,-3.158864 -2.56324,-5.729697 -5.71333,-5.729697 H 50.0826 c -3.16005,0 -5.730881,2.570833 -5.730881,5.730646 v 62.072373 c 0,3.160051 2.570831,5.730881 5.730881,5.730881 h 18.31937 l 2.179916,-2.18941 -0.791313,-0.3928 c -0.409416,-0.22108 -0.76902,-0.45734 -1.104904,-0.723485 H 50.0826 c -1.344952,0 -2.438946,-1.095886 -2.438946,-2.443214 V 35.238838 c 0,-1.344719 1.093994,-2.438709 2.438946,-2.438709 h 46.9771 c 1.321709,0 2.438469,1.116764 2.438469,2.438709 v 44.610024 c 0.701181,0.228195 1.336891,0.556488 1.895271,0.979423 z"
   id="path26"
   inkscape:connector-curvature="0"
   style="fill:#e6427c" />
	</g>
</g>
<g
   id="g32"
   transform="translate(0,-21.133176)">
</g>
<g
   id="g34"
   transform="translate(0,-21.133176)">
</g>
<g
   id="g36"
   transform="translate(0,-21.133176)">
</g>
<g
   id="g38"
   transform="translate(0,-21.133176)">
</g>
<g
   id="g40"
   transform="translate(0,-21.133176)">
</g>
<g
   id="g42"
   transform="translate(0,-21.133176)">
</g>
</svg>