<?xml version="1.0" encoding="utf-8"?>
<!-- Generator: Adobe Illustrator 22.1.0, SVG Export Plug-In . SVG Version: 6.00 Build 0)  -->
<svg version="1.1" id="Слой_1" xmlns="http://www.w3.org/2000/svg" xmlns:xlink="http://www.w3.org/1999/xlink" x="0px" y="0px"
	 viewBox="0 0 310 298.9" style="enable-background:new 0 0 310 298.9;" xml:space="preserve">
<style type="text/css">
	.st0{opacity:0.8;fill:#6E2B99;}
	.st1{opacity:0.8;fill:#27CE27;}
	.st2{opacity:0.8;fill:#EFF294;}
	.st3{opacity:0.8;fill:#EFA93F;}
	.st4{opacity:0.9;fill:#B13986;}
	.st5{opacity:0.8;fill:#FFFFFF;}
	.st6{fill:#584550;}
</style>
<rect id="_x35_" x="0" y="0.5" class="st0" width="270.3" height="258.9"/>
<rect id="_x34_" x="10" y="9.2" class="st1" width="270.3" height="258.9"/>
<rect id="_x33_" x="19.9" y="20" class="st2" width="270.3" height="258.9"/>
<rect id="_x32_" x="29.5" y="29" class="st3" width="270.3" height="258.9"/>
<rect id="_x31_" x="39.7" y="39.6" class="st4" width="270.3" height="258.9"/>
<path id="top" class="st5" d="M233.8,182H114.7c-28.7,0-52-23.3-52-52v0c0-28.7,23.3-52,52-52h119.1c28.7,0,52,23.3,52,52v0
	C285.7,158.7,262.5,182,233.8,182z"/>
<path id="buttom" class="st5" d="M240.7,260H105.5c-16.4,0-29.6-13.3-29.6-29.6v0c0-16.4,13.3-29.6,29.6-29.6h135.2
	c16.4,0,29.6,13.3,29.6,29.6v0C270.3,246.7,257,260,240.7,260z"/>
<g>
	<path class="st6" d="M149,127.1c3.9,3.3,5.9,7.6,5.9,13.1c0,3.5-0.9,6.8-2.7,9.7c-1.8,2.9-4.5,5.2-8.1,7c-3.6,1.7-8.1,2.6-13.4,2.6
		c-4.1,0-8.1-0.5-12.1-1.6c-4-1.1-7.3-2.6-10.1-4.6l5.3-10.3c2.2,1.7,4.8,2.9,7.6,3.9c2.9,0.9,5.8,1.4,8.9,1.4c3.4,0,6-0.7,8-2
		c1.9-1.3,2.9-3.2,2.9-5.6c0-2.5-1-4.4-3-5.6c-2-1.3-5.5-1.9-10.5-1.9h-14.9l3-32.7h35.4v10.8h-24.2l-0.9,11h4.7
		C139.1,122.2,145.1,123.8,149,127.1z"/>
	<path class="st6" d="M188.9,151.9c0,2.1-0.8,3.7-2.4,4.9c-1.6,1.1-3.9,1.7-7.1,1.7h-12.3v-23.1H179c2.9,0,5.2,0.5,6.8,1.6
		c1.6,1,2.5,2.5,2.5,4.4c0,1.1-0.3,2.2-0.9,3c-0.6,0.9-1.4,1.6-2.5,2C187.5,147.3,188.9,149.1,188.9,151.9z M173.3,144.8h5.1
		c2.3,0,3.5-0.8,3.5-2.5c0-1.6-1.2-2.5-3.5-2.5h-5.1V144.8z M182.6,151.4c0-0.9-0.3-1.5-0.9-2s-1.5-0.6-2.7-0.6h-5.8v5.1h5.6
		C181.4,153.9,182.6,153.1,182.6,151.4z"/>
	<path class="st6" d="M231.9,100.4v58.1h-13.4v-47.3h-11.6v-10.8H231.9z"/>
</g>
<g>
	<path class="st6" d="M131.9,238.3v4.9h-19.6v-3.9l10-9.4c1.1-1,1.8-1.9,2.1-2.6c0.4-0.7,0.6-1.4,0.6-2.2c0-1-0.4-1.8-1.1-2.4
		s-1.7-0.8-3.1-0.8c-1.1,0-2.2,0.2-3.1,0.6s-1.7,1.1-2.3,1.9l-4.4-2.8c1-1.5,2.4-2.7,4.2-3.5c1.8-0.9,3.8-1.3,6.1-1.3
		c1.9,0,3.6,0.3,5.1,0.9s2.6,1.5,3.4,2.7c0.8,1.1,1.2,2.5,1.2,4.1c0,1.4-0.3,2.7-0.9,4c-0.6,1.2-1.7,2.6-3.4,4.2l-6,5.6H131.9z"/>
	<path class="st6" d="M151.2,227.9c1.4,0.7,2.4,1.6,3.2,2.8c0.8,1.2,1.2,2.6,1.2,4.2c0,1.7-0.4,3.2-1.3,4.6s-2,2.3-3.5,3
		c-1.5,0.7-3.2,1.1-5,1.1c-3.6,0-6.5-1.1-8.5-3.3c-2-2.2-3.1-5.4-3.1-9.5c0-2.9,0.6-5.5,1.7-7.5c1.1-2.1,2.7-3.7,4.6-4.8
		c2-1.1,4.3-1.6,6.9-1.6c1.4,0,2.7,0.2,4,0.5c1.3,0.3,2.3,0.7,3.2,1.3l-2.2,4.4c-1.3-0.9-2.9-1.3-4.8-1.3c-2.2,0-3.9,0.6-5.2,1.9
		c-1.3,1.3-2,3.1-2.1,5.6c1.5-1.5,3.7-2.3,6.4-2.3C148.4,226.9,149.9,227.3,151.2,227.9z M148.6,238.1c0.8-0.7,1.2-1.6,1.2-2.8
		c0-1.2-0.4-2.1-1.2-2.8c-0.8-0.7-1.9-1.1-3.2-1.1c-1.3,0-2.4,0.4-3.2,1.1c-0.8,0.7-1.3,1.7-1.3,2.8s0.4,2.1,1.2,2.8
		c0.8,0.7,1.9,1.1,3.3,1.1C146.8,239.2,147.8,238.8,148.6,238.1z"/>
	<path class="st6" d="M181.6,241.7v4.5H180v-3h-11.3v3h-1.6v-4.5h0.7c0.8,0,1.4-0.7,1.7-1.9c0.3-1.2,0.5-2.9,0.6-5l0.2-4.2h9.3v11.1
		H181.6z M171.3,239.3c-0.2,1.2-0.6,2-1.2,2.4h7.9v-9.6h-6.1l-0.1,2.8C171.6,236.7,171.5,238.1,171.3,239.3z"/>
	<path class="st6" d="M184.9,230.6h1.7v5.6h7.9v-5.6h1.7v12.6h-1.7v-5.6h-7.9v5.6h-1.7V230.6z"/>
	<path class="st6" d="M212.1,237.4h-10.6c0.1,1.3,0.6,2.4,1.5,3.2c0.9,0.8,2.1,1.2,3.5,1.2c0.8,0,1.5-0.1,2.2-0.4
		c0.7-0.3,1.2-0.7,1.7-1.2l1,1.1c-0.6,0.7-1.3,1.2-2.1,1.5c-0.8,0.4-1.8,0.5-2.8,0.5c-1.3,0-2.4-0.3-3.4-0.8s-1.8-1.3-2.3-2.3
		c-0.6-1-0.8-2.1-0.8-3.3c0-1.2,0.3-2.3,0.8-3.3c0.5-1,1.3-1.7,2.2-2.3c0.9-0.5,2-0.8,3.2-0.8s2.2,0.3,3.1,0.8
		c0.9,0.5,1.7,1.3,2.2,2.3c0.5,1,0.8,2.1,0.8,3.3L212.1,237.4z M203,233.1c-0.8,0.8-1.3,1.8-1.4,3h9c-0.1-1.2-0.6-2.3-1.4-3
		c-0.8-0.8-1.9-1.2-3.1-1.2C204.8,231.9,203.8,232.3,203,233.1z"/>
	<path class="st6" d="M215.9,230.6h1.7v10l8.4-10h1.5v12.6h-1.7v-10l-8.4,10h-1.5V230.6z M219.1,227.9c-0.6-0.5-1-1.3-1-2.3h1.2
		c0,0.6,0.2,1.1,0.7,1.5c0.4,0.4,1,0.6,1.7,0.6c0.7,0,1.3-0.2,1.7-0.6c0.4-0.4,0.7-0.9,0.7-1.5h1.2c0,1-0.3,1.8-1,2.3
		c-0.6,0.5-1.5,0.8-2.6,0.8C220.6,228.7,219.7,228.5,219.1,227.9z"/>
</g>
</svg>
