<?xml version="1.0" encoding="utf-8"?>
<!-- Generator: Adobe Illustrator 21.0.1, SVG Export Plug-In . SVG Version: 6.00 Build 0)  -->
<svg version="1.1" id="Слой_1" xmlns="http://www.w3.org/2000/svg" xmlns:xlink="http://www.w3.org/1999/xlink" x="0px" y="0px"
	 viewBox="0 0 143.1818237 145" style="enable-background:new 0 0 143.1818237 145;" xml:space="preserve">
<style type="text/css">
	.st0{fill:#E6427C;}
	.st1{fill:#BA83AA;}
</style>
<g>
	<path class="st0" d="M85.6842346,54.1829453c0,0.8647461,0.7036133,1.5678711,1.5683594,1.5678711h20.6748047
		c0.8647461,0,1.5678711-0.703125,1.5678711-1.5678711s-0.703125-1.5683594-1.5678711-1.5683594H87.252594
		C86.3878479,52.6145859,85.6842346,53.3181992,85.6842346,54.1829453z"/>
	<path class="st0" d="M113.6305237,66.5882187c0-0.8647461-0.703125-1.5678711-1.5673828-1.5678711H99.6578674
		c-0.8647461,0-1.5678711,0.703125-1.5678711,1.5678711c0,0.8637695,0.703125,1.5668945,1.5678711,1.5668945h12.4052734
		C112.9273987,68.1551132,113.6305237,67.4519882,113.6305237,66.5882187z"/>
	<path class="st1" d="M97.0899963,41.7771835c0-0.8637695-0.703125-1.5664063-1.5678711-1.5664063h-4.1347656
		c-0.8637695,0-1.5668945,0.7026367-1.5668945,1.5664063c0,0.8647461,0.703125,1.5678711,1.5668945,1.5678711h4.1347656
		C96.3868713,43.3450546,97.0899963,42.6419296,97.0899963,41.7771835z"/>
	<path class="st1" d="M91.3873596,65.0203476h-20.675293c-0.8647461,0-1.5678711,0.703125-1.5678711,1.5678711
		c0,0.8637695,0.703125,1.5668945,1.5678711,1.5668945h20.675293c0.8647461,0,1.5678711-0.703125,1.5678711-1.5668945
		C92.9552307,65.7234726,92.2521057,65.0203476,91.3873596,65.0203476z"/>
	<path class="st0" d="M81.049469,122.9114609H41.7662621c-3.6958008,0-6.7026367-3.0068359-6.7026367-6.7026367V21.1023788
		c0-0.8647461-0.703125-1.5683594-1.5668945-1.5683594c-5.4243145,0-9.8369122,4.4130859-9.8369122,9.8378906
		c0,0.8647461,0.7026367,1.5678711,1.5664063,1.5678711c0.8647461,0,1.5678711-0.703125,1.5678711-1.5678711
		c0-2.8320313,1.7954102-5.3720703,4.4672852-6.3203125l0.6674805-0.2368164v93.394043
		c0,5.4248047,4.413084,9.8378906,9.8374004,9.8378906H81.049469c0.8647461,0,1.5683594-0.703125,1.5683594-1.5678711
		C82.6178284,123.6145859,81.9142151,122.9114609,81.049469,122.9114609z"/>
	<path class="st1" d="M50.0372581,55.7508163h28.9458046c0.8637695,0,1.5664063-0.703125,1.5664063-1.5678711
		s-0.7026367-1.5683594-1.5664063-1.5683594H50.0372581c-0.8647461,0-1.5678711,0.7036133-1.5678711,1.5683594
		S49.1725121,55.7508163,50.0372581,55.7508163z"/>
	<path class="st1" d="M50.0372581,43.3450546h8.2695313c0.8647461,0,1.5678711-0.703125,1.5678711-1.5678711
		c0-0.8637695-0.703125-1.5664063-1.5678711-1.5664063h-8.2695313c-0.8647461,0-1.5678711,0.7026367-1.5678711,1.5664063
		C48.4693871,42.6419296,49.1725121,43.3450546,50.0372581,43.3450546z"/>
	<path class="st0" d="M83.1178284,40.2093124H66.577301c-0.8647461,0-1.5678711,0.703125-1.5678711,1.5678711
		s0.703125,1.5678711,1.5678711,1.5678711h16.5405273c0.8637695,0,1.5664063-0.703125,1.5664063-1.5678711
		S83.9815979,40.2093124,83.1178284,40.2093124z"/>
	<path class="st0" d="M112.0631409,11.3123388H33.4967308c-9.9467754,0-18.0698242,8.0913095-18.1079102,18.0366211
		c0.0263672,6.5087891,3.4951181,12.4912109,9.0517588,15.7070313c0.7480469,0.4321289,1.7099609,0.1762695,2.1416016-0.5708008
		c0.2099609-0.3608398,0.2666016-0.7822266,0.1591797-1.1865234c-0.1079102-0.4057617-0.3666992-0.7441406-0.7290039-0.9541016
		c-4.6108398-2.6708984-7.4799805-7.6323242-7.4887695-12.9482422c0.015625-8.2441406,6.7324219-14.949708,14.9731426-14.949708
		h78.5664063c8.2558594,0,14.9726563,6.7172861,14.9726563,14.9736338v86.8359375
		c0,1.1381836-0.3164063,2.2768555-0.9150391,3.2929688c-0.4370117,0.7446289-0.1875,1.7075195,0.5561523,2.1450195
		c0.7250977,0.4291992,1.7241211,0.1640625,2.1459961-0.5551758c0.8818359-1.4970703,1.3476563-3.1850586,1.3476563-4.8828125
		V29.4202499C130.1705627,19.4353867,122.0475159,11.3123388,112.0631409,11.3123388z"/>
	<path class="st0" d="M105.8605042,93.9661484c-6.5644531,0-11.9052734,5.3408203-11.9052734,11.9052734
		c0,6.5639648,5.3408203,11.9042969,11.9052734,11.9042969c6.5639648,0,11.9042969-5.340332,11.9042969-11.9042969
		C117.764801,99.3069687,112.424469,93.9661484,105.8605042,93.9661484z M105.8605042,114.6409531
		c-4.8359375,0-8.7705078-3.934082-8.7705078-8.7695313c0-4.8364258,3.9345703-8.7709961,8.7705078-8.7709961
		s8.7700195,3.9345703,8.7700195,8.7709961C114.6305237,110.706871,110.6964417,114.6409531,105.8605042,114.6409531z"/>
	<path class="st1" d="M101.8785706,120.7791367l-0.0014648-0.0004883c-0.3603516-0.2089844-0.78125-0.2646484-1.1865234-0.15625
		c-0.4047852,0.1083984-0.7436523,0.3676758-0.9536133,0.7299805l-4.855957,8.4145432l-1.1518555-1.7416992
		c-0.2709961-0.4111252-0.7236328-0.6723557-1.2119141-0.7001877l-2.0869141-0.1259766l4.9296875-8.5356445
		c0.4326172-0.7485352,0.175293-1.7094727-0.5737305-2.1425781c-0.2412109-0.1396484-0.5097656-0.2109375-0.78125-0.2109375
		c-0.1362305,0-0.2729492,0.0175781-0.4077148,0.0541992c-0.4047852,0.1083984-0.7436523,0.3681641-0.9541016,0.7319336
		l-6.1962891,10.7319336c-0.269043,0.466301-0.2773438,1.0517502-0.0209961,1.5263596
		c0.2592773,0.4833984,0.7397461,0.7905273,1.2856445,0.8222656l3.8330078,0.2285156l2.1171875,3.2055664
		c0.2900391,0.4404297,0.777832,0.703125,1.3066406,0.703125c0.5864258-0.0170898,1.0893555-0.3173828,1.359375-0.7836914
		l6.1269531-10.6103439c0.2089844-0.3618164,0.2641602-0.7841797,0.1552734-1.1884766
		C102.5011292,121.3264999,102.2413635,120.988121,101.8785706,120.7791367z"/>
	<path class="st1" d="M119.131012,117.1927109c-0.2109375-0.3647461-0.5512695-0.625-0.9580078-0.7329102
		c-0.402832-0.1054688-0.8222656-0.0498047-1.1811523,0.1586914c-0.3652344,0.2104492-0.625,0.5483398-0.7338867,0.953125
		c-0.1088867,0.4042969-0.0532227,0.8266602,0.1557617,1.1889648l4.8764648,8.4384766l-2.0849609,0.1259766
		c-0.4897461,0.0292969-0.9438477,0.2910156-1.2158203,0.700676l-1.1469727,1.7426758l-4.8344727-8.3774338
		c-0.2915039-0.5019531-0.8208008-0.7827148-1.362793-0.7827148c-0.265625,0-0.534668,0.0673828-0.7802734,0.2094727
		c-0.3623047,0.2094727-0.621582,0.5473633-0.7294922,0.9521484c-0.1083984,0.4042969-0.0527344,0.8266602,0.15625,1.1889648
		l6.1035156,10.5717697c0.2695313,0.465332,0.7724609,0.7666016,1.3120117,0.784668
		c0.574707-0.0004883,1.0639648-0.2636719,1.355957-0.7050781l2.1142578-3.2011719l3.8305664-0.2324219
		c0.5385742-0.03125,1.0317383-0.3461914,1.2875977-0.8217773c0.2587891-0.4804688,0.25-1.0517578-0.0229492-1.5283127
		L119.131012,117.1927109z"/>
	<path class="st0" d="M50.0372581,68.1551132H62.441555c0.8647461,0,1.5678749-0.703125,1.5678749-1.5668945
		c0-0.8647461-0.7031288-1.5678711-1.5678749-1.5678711H50.0372581c-0.8647461,0-1.5678711,0.703125-1.5678711,1.5678711
		C48.4693871,67.4519882,49.1725121,68.1551132,50.0372581,68.1551132z"/>
	<path class="st1" d="M50.0372581,80.5603867h24.8100624c0.8647461,0,1.5678711-0.7026367,1.5678711-1.5664063
		c0-0.8647461-0.703125-1.5683594-1.5678711-1.5683594H50.0372581c-0.8647461,0-1.5678711,0.7036133-1.5678711,1.5683594
		C48.4693871,79.8577499,49.1725121,80.5603867,50.0372581,80.5603867z"/>
	<path class="st0" d="M50.7032738,106.5721054v0.0004883c0.3852539,0.7729492,1.3295898,1.0874023,2.1015625,0.7011719
		c0.375-0.1870117,0.6547852-0.5092773,0.7871094-0.9072266c0.1318359-0.3969727,0.1010742-0.8217773-0.0869141-1.1958008
		c-2.1240234-4.2485352-2.5761719-8.1035156-1.2099609-10.3134766c0.7744141-1.2548828,2.1010742-1.8911133,3.9438477-1.8911133
		c1.2216797,0,1.7084961,0.4716797,1.9960938,0.8828125c1.7363281,2.5039063,0.0649414,9.6333008-1.3964844,13.5395508
		c-0.2573242,0.6850586,0.0039063,1.4707031,0.6210938,1.8681641c0.6137695,0.3959961,1.4375,0.3071289,1.956543-0.2104492
		c0.8500977-0.8491211,1.8095703-1.7368164,2.7006836-2.4980469l0.824707-0.7050781v2.0952148
		c0,0.6367188,0.3793945,1.2041016,0.9667969,1.4458008c0.5874062,0.2446289,1.2583046,0.1113281,1.7109413-0.3383789
		c0.921875-0.9208984,2.0239258-1.8632813,3.0224609-2.5834961l1.5849609-1.144043l-0.9257813,1.9326172
		c-0.2319336,0.4711914-0.2041016,1.0551758,0.0791016,1.5102539c0.2895508,0.4667969,0.7871094,0.7451172,1.3320313,0.7451172
		h8.2695313c0.8647461,0,1.5678711-0.703125,1.5678711-1.5678711c0-0.8637695-0.703125-1.5668945-1.5678711-1.5668945h-5.9746094
		l0.1000977-0.5844727c0.1733398-1.0146484,0.0712891-1.8374023-0.3037109-2.4448242
		c-0.4350586-0.703125-1.1972656-1.1064453-2.0913086-1.1064453c-0.9926758,0-2.3295898,0.5708008-3.8662109,1.6503906
		l-0.6870117,0.4824219l-0.097168-0.8339844c-0.0844727-0.7250977-0.5117188-1.3139648-1.1435547-1.5742188
		c-0.4873047-0.2021484-1.0351601-0.4257813-2.5410194,0.4770508l-0.9580078,0.574707l0.2094727-1.097168
		c0.8496094-4.4487305,0.5678711-7.8544922-0.8149414-9.8481445c-0.7060547-1.0200195-2.0722656-2.2353516-4.5737305-2.2353516
		c-2.9174805,0-5.2661133,1.199707-6.612793,3.3779297C47.6578636,96.3963242,48.0504417,101.2669296,50.7032738,106.5721054z"/>
	<path class="st0" d="M83.1178284,80.5603867h20.6748047c0.8647461,0,1.5678711-0.7026367,1.5678711-1.5664063
		c0-0.8647461-0.703125-1.5683594-1.5678711-1.5683594H83.1178284c-0.8647461,0-1.5683594,0.7036133-1.5683594,1.5683594
		C81.549469,79.8577499,82.2530823,80.5603867,83.1178284,80.5603867z"/>
</g>
<g>
</g>
<g>
</g>
<g>
</g>
<g>
</g>
<g>
</g>
<g>
</g>
</svg>
