<?xml version="1.0" encoding="utf-8"?>
<!-- Generator: Adobe Illustrator 21.0.1, SVG Export Plug-In . SVG Version: 6.00 Build 0)  -->
<svg version="1.1" id="Слой_1" xmlns="http://www.w3.org/2000/svg" xmlns:xlink="http://www.w3.org/1999/xlink" x="0px" y="0px"
	 viewBox="0 0 143.1818237 131.8181763" style="enable-background:new 0 0 143.1818237 131.8181763;" xml:space="preserve">
<style type="text/css">
	.st0{fill:#FFFFFF;}
	.st1{fill:#E7447C;}
</style>
<g>
	<path class="st0" d="M103.2465515,120.2736816H41.1260529c-13.4105549,0-24.2819576-10.8713989-24.2819576-24.2819595V33.8712273
		c0-13.410553,10.8714027-24.2819557,24.2819576-24.2819557h62.1204987c13.410553,0,24.2819519,10.8714027,24.2819519,24.2819557
		v62.1204948C127.5285034,109.4022827,116.6571045,120.2736816,103.2465515,120.2736816z"/>
	<g>
		<g>
			<path class="st1" d="M106.2982483,37.080307H91.1247253v-2.8402748c0-0.8610306-0.7009964-1.561348-1.562027-1.561348
				s-1.562027,0.7003174-1.562027,1.561348v2.8402748H73.7472382v-2.8402748c0-0.8610306-0.7000961-1.561348-1.5604477-1.561348
				c-0.8610306,0-1.5613556,0.7003174-1.5613556,1.561348v2.8402748H56.9213066v-2.8402748
				c0-0.8610306-0.7005463-1.561348-1.5618019-1.561348s-1.562027,0.7003174-1.562027,1.561348v2.8402748H38.0757866
				c-0.8612556,0-1.5618019,0.7005463-1.5618019,1.5618019v50.0659828c0,0.8610306,0.7005463,1.5615768,1.5618019,1.5615768
				h14.1188698l0.1181107,0.5048981c2.1712837,9.2815475,10.3436317,15.7640686,19.8740234,15.7640686
				c9.5292587,0,17.7013855-6.4825211,19.8728943-15.7640686l0.1181107-0.5048981h14.1186447
				c0.8610306,0,1.562027-0.7005463,1.562027-1.5615768V38.6421089
				C107.8584671,37.7808533,107.158371,37.080307,106.2982483,37.080307z M72.1867905,103.4145813
				c-9.5351219,0-17.292511-7.7573853-17.292511-17.2922821c0-9.535347,7.7573891-17.2927399,17.292511-17.2927399
				c9.5342178,0,17.2907104,7.7573929,17.2907104,17.2927399C89.4775009,95.657196,81.7210083,103.4145813,72.1867905,103.4145813z
				 M104.7362213,87.1460724H92.5826187l0.0144272-0.8335342c0.0022507-0.0631104,0.0045013-0.1262283,0.0045013-0.190239
				c0-11.256958-9.1580276-20.4147644-20.4147568-20.4147644c-11.2574081,0-20.4158897,9.1578064-20.4158897,20.4147644
				c0,0.0644608,0.0020294,0.1280289,0.0042839,0.1915894l0.0142021,0.8321838H39.6360092V53.6952629h65.1002121V87.1460724z
				 M104.7362213,50.571434H39.6378136V40.2016525h14.1596642v2.6579247c0,0.8612556,0.7007713,1.5618019,1.562027,1.5618019
				s1.5618019-0.7005463,1.5618019-1.5618019v-2.6579247h13.7041283v2.6579247c0,0.8612556,0.700325,1.5618019,1.5613556,1.5618019
				c0.8603516,0,1.5604477-0.7005463,1.5604477-1.5618019v-2.6579247h14.2534332v2.6579247
				c0,0.8612556,0.7009964,1.5618019,1.562027,1.5618019s1.562027-0.7005463,1.562027-1.5618019v-2.6579247h13.611496V50.571434z"/>
			<path class="st1" d="M73.7472382,86.9522247V75.9625931c0-0.8610306-0.7000961-1.562027-1.5604477-1.562027
				c-0.8610306,0-1.5613556,0.7009964-1.5613556,1.562027V87.598671c0,0.4187927,0.1620712,0.8105392,0.4564438,1.1040115
				l5.092926,5.0949554c0.5905457,0.5887527,1.6183777,0.5892029,2.2089233-0.0004501
				c0.6090317-0.6085815,0.6090317-1.5994415,0-2.2084732L73.7472382,86.9522247z"/>
		</g>
		<g>
			<path class="st1" d="M105.9191284,120.2737579H38.4533081c-11.9155254,0-21.6093731-9.6938477-21.6093731-21.609375V31.1985664
				c0-11.9155273,9.6938477-21.609375,21.6093731-21.609375h67.4658203c11.9155273,0,21.609375,9.6938477,21.609375,21.609375
				v67.4658203C127.5285034,110.5799103,117.8346558,120.2737579,105.9191284,120.2737579z M38.4533081,13.2737617
				c-9.8837872,0-17.9248028,8.0410156-17.9248028,17.9248047v67.4658203c0,9.8837891,8.0410156,17.9248047,17.9248028,17.9248047
				h67.4658203c9.8837891,0,17.9248047-8.0410156,17.9248047-17.9248047V31.1985664
				c0-9.8837891-8.0410156-17.9248047-17.9248047-17.9248047H38.4533081z"/>
		</g>
	</g>
</g>
<g>
</g>
<g>
</g>
<g>
</g>
<g>
</g>
<g>
</g>
<g>
</g>
</svg>
