<?xml version="1.0" encoding="UTF-8" standalone="no"?>
<!-- Generator: Adobe Illustrator 21.0.1, SVG Export Plug-In . SVG Version: 6.00 Build 0)  -->

<svg
   xmlns:dc="http://purl.org/dc/elements/1.1/"
   xmlns:cc="http://creativecommons.org/ns#"
   xmlns:rdf="http://www.w3.org/1999/02/22-rdf-syntax-ns#"
   xmlns:svg="http://www.w3.org/2000/svg"
   xmlns="http://www.w3.org/2000/svg"
   xmlns:sodipodi="http://sodipodi.sourceforge.net/DTD/sodipodi-0.dtd"
   xmlns:inkscape="http://www.inkscape.org/namespaces/inkscape"
   version="1.1"
   id="Слой_1"
   x="0px"
   y="0px"
   viewBox="0 0 110.685 110.685"
   xml:space="preserve"
   sodipodi:docname="kalendar.svg"
   width="110.685"
   height="110.685"
   inkscape:version="0.92.4 (5da689c313, 2019-01-14)"><metadata
   id="metadata37"><rdf:RDF><cc:Work
       rdf:about=""><dc:format>image/svg+xml</dc:format><dc:type
         rdf:resource="http://purl.org/dc/dcmitype/StillImage" /><dc:title></dc:title></cc:Work></rdf:RDF></metadata><defs
   id="defs35" /><sodipodi:namedview
   pagecolor="#ffffff"
   bordercolor="#666666"
   borderopacity="1"
   objecttolerance="10"
   gridtolerance="10"
   guidetolerance="10"
   inkscape:pageopacity="0"
   inkscape:pageshadow="2"
   inkscape:window-width="1366"
   inkscape:window-height="705"
   id="namedview33"
   showgrid="false"
   inkscape:zoom="1.7903449"
   inkscape:cx="71.590912"
   inkscape:cy="65.909088"
   inkscape:window-x="-8"
   inkscape:window-y="-8"
   inkscape:window-maximized="1"
   inkscape:current-layer="Слой_1" />
<style
   type="text/css"
   id="style2">
	.st0{fill:#FFFFFF;}
	.st1{fill:#E7447C;}
</style>
<g
   id="g18"
   transform="translate(-16.843719,-9.5889769)">
	<path
   class="st0"
   d="M 103.24655,120.27368 H 41.126053 c -13.410555,0 -24.281958,-10.8714 -24.281958,-24.281958 V 33.871227 c 0,-13.410553 10.871403,-24.2819554 24.281958,-24.2819554 h 62.120497 c 13.41055,0 24.28195,10.8714024 24.28195,24.2819554 v 62.120495 c 0,13.410558 -10.8714,24.281958 -24.28195,24.281958 z"
   id="path4"
   inkscape:connector-curvature="0"
   style="fill:#ffffff" />
	<g
   id="g16">
		<g
   id="g10">
			<path
   class="st1"
   d="M 106.29825,37.080307 H 91.124725 v -2.840275 c 0,-0.86103 -0.700996,-1.561348 -1.562027,-1.561348 -0.86103,0 -1.562027,0.700318 -1.562027,1.561348 v 2.840275 H 73.747238 v -2.840275 c 0,-0.86103 -0.700096,-1.561348 -1.560448,-1.561348 -0.86103,0 -1.561355,0.700318 -1.561355,1.561348 v 2.840275 H 56.921307 v -2.840275 c 0,-0.86103 -0.700547,-1.561348 -1.561802,-1.561348 -0.861256,0 -1.562027,0.700318 -1.562027,1.561348 v 2.840275 H 38.075787 c -0.861256,0 -1.561802,0.700546 -1.561802,1.561802 v 50.065983 c 0,0.86103 0.700546,1.561576 1.561802,1.561576 h 14.118869 l 0.118111,0.504899 c 2.171284,9.281543 10.343632,15.764073 19.874023,15.764073 9.529259,0 17.701386,-6.48253 19.872895,-15.764073 l 0.118111,-0.504899 h 14.118644 c 0.86103,0 1.56203,-0.700546 1.56203,-1.561576 V 38.642109 c 0,-0.861256 -0.7001,-1.561802 -1.56022,-1.561802 z M 72.18679,103.41458 c -9.535121,0 -17.292511,-7.757384 -17.292511,-17.292281 0,-9.535347 7.75739,-17.29274 17.292511,-17.29274 9.534218,0 17.290711,7.757393 17.290711,17.29274 0,9.534897 -7.756493,17.292281 -17.290711,17.292281 z M 104.73622,87.146072 H 92.582619 l 0.01443,-0.833534 c 0.0023,-0.06311 0.0045,-0.126228 0.0045,-0.190239 0,-11.256958 -9.158027,-20.414764 -20.414757,-20.414764 -11.257408,0 -20.415889,9.157806 -20.415889,20.414764 0,0.06446 0.002,0.128029 0.0043,0.19159 l 0.0142,0.832183 H 39.636009 V 53.695263 h 65.100211 z m 0,-36.574638 H 39.637814 V 40.201653 h 14.159664 v 2.657924 c 0,0.861256 0.700771,1.561802 1.562027,1.561802 0.861256,0 1.561802,-0.700546 1.561802,-1.561802 v -2.657924 h 13.704128 v 2.657924 c 0,0.861256 0.700325,1.561802 1.561356,1.561802 0.860351,0 1.560447,-0.700546 1.560447,-1.561802 v -2.657924 h 14.253434 v 2.657924 c 0,0.861256 0.700996,1.561802 1.562027,1.561802 0.86103,0 1.562027,-0.700546 1.562027,-1.561802 v -2.657924 h 13.611494 z"
   id="path6"
   inkscape:connector-curvature="0"
   style="fill:#e7447c" />
			<path
   class="st1"
   d="M 73.747238,86.952225 V 75.962593 c 0,-0.861031 -0.700096,-1.562027 -1.560448,-1.562027 -0.86103,0 -1.561355,0.700996 -1.561355,1.562027 v 11.636078 c 0,0.418793 0.162071,0.810539 0.456444,1.104011 l 5.092926,5.094956 c 0.590545,0.588753 1.618377,0.589203 2.208923,-4.5e-4 0.609032,-0.608582 0.609032,-1.599442 0,-2.208473 z"
   id="path8"
   inkscape:connector-curvature="0"
   style="fill:#e7447c" />
		</g>
		<g
   id="g14">
			<path
   class="st1"
   d="M 105.91913,120.27376 H 38.453308 c -11.915525,0 -21.609373,-9.69385 -21.609373,-21.609377 V 31.198566 c 0,-11.915527 9.693848,-21.6093746 21.609373,-21.6093746 h 67.465822 c 11.91553,0 21.60937,9.6938476 21.60937,21.6093746 v 67.465821 c 0,11.915523 -9.69384,21.609373 -21.60937,21.609373 z M 38.453308,13.273762 c -9.883787,0 -17.924803,8.041015 -17.924803,17.924804 v 67.465821 c 0,9.883793 8.041016,17.924803 17.924803,17.924803 h 67.465822 c 9.88379,0 17.9248,-8.04101 17.9248,-17.924803 V 31.198566 c 0,-9.883789 -8.04101,-17.924804 -17.9248,-17.924804 H 38.453308 Z"
   id="path12"
   inkscape:connector-curvature="0"
   style="fill:#e7447c" />
		</g>
	</g>
</g>
<g
   id="g20"
   transform="translate(0,-21.133172)">
</g>
<g
   id="g22"
   transform="translate(0,-21.133172)">
</g>
<g
   id="g24"
   transform="translate(0,-21.133172)">
</g>
<g
   id="g26"
   transform="translate(0,-21.133172)">
</g>
<g
   id="g28"
   transform="translate(0,-21.133172)">
</g>
<g
   id="g30"
   transform="translate(0,-21.133172)">
</g>
</svg>