<?xml version="1.0" encoding="utf-8"?>
<!-- Generator: Adobe Illustrator 21.0.1, SVG Export Plug-In . SVG Version: 6.00 Build 0)  -->
<svg version="1.1" id="Слой_1" xmlns="http://www.w3.org/2000/svg" xmlns:xlink="http://www.w3.org/1999/xlink" x="0px" y="0px"
     viewBox="0 0 143.1818237 131.8181763" style="enable-background:new 0 0 143.1818237 131.8181763;" xml:space="preserve">
<style type="text/css">
	.st0{fill:#FFFFFF;}
	.st1{fill:#E7447C;}
	.st2{fill:#E6427C;}
</style>
<g>
	<g>
		<g>
			<path class="st0" d="M102.6511612,121.8957367H40.5306587c-13.410553,0-24.2819538-10.8713989-24.2819538-24.2819519V35.4932861
				c0-13.410553,10.8714008-24.2819557,24.2819538-24.2819557h62.1205025c13.410553,0,24.2819519,10.8714027,24.2819519,24.2819557
				v62.1204987C126.9331131,111.0243378,116.0617142,121.8957367,102.6511612,121.8957367z"/>
		</g>
		<g>
			<g>
				<g>
					<path class="st1" d="M105.323822,121.8958206H37.8579979c-11.9155254,0-21.6093731-9.6938477-21.6093731-21.609375V32.8206253
						c0-11.9155273,9.6938477-21.609375,21.6093731-21.609375h67.4658203c11.9155273,0,21.609375,9.6938477,21.609375,21.609375
						v67.4658203C126.933197,112.201973,117.2393494,121.8958206,105.323822,121.8958206z M37.8579979,14.8958206
						c-9.8837872,0-17.9248028,8.0410156-17.9248028,17.9248047v67.4658203c0,9.8837891,8.0410156,17.9248047,17.9248028,17.9248047
						h67.4658203c9.8837891,0,17.9248047-8.0410156,17.9248047-17.9248047V32.8206253
						c0-9.8837891-8.0410156-17.9248047-17.9248047-17.9248047H37.8579979z"/>
				</g>
			</g>
		</g>
	</g>
	<g>
		<g>
			<path class="st2" d="M66.4804459,105.2122269h-23.095211c-6.4829102,0-11.5610352-5.2192383-11.5610352-11.8818359v-5.4228516
				c0-0.0512695,0.0024414-0.1015625,0.0073242-0.1518555c0.0112305-0.2905273,0.0219727-1.440918,0.0332031-2.5913086
				c0.0375977-3.7231445,0.0375977-3.7231445,0.9663086-4.1362305c0.1992188-0.0883789,0.4150391-0.1342773,0.6333008-0.1342773
				H74.544899c1.9282227,0,3.4970703,1.5688477,3.4970703,3.4975586v8.9389648
				C78.0419693,99.9929886,72.963356,105.2122269,66.4804459,105.2122269z M34.9164848,87.9075394h0.0258789v5.4228516
				c0,4.9140625,3.7084961,8.7636719,8.4428711,8.7636719h23.095211c4.734375,0,8.4433594-3.8496094,8.4433594-8.7636719v-8.9389648
				c0-0.2089844-0.1699219-0.3793945-0.3789063-0.3793945H34.9946098c-0.0039063,0.3691406-0.0078125,0.7763672-0.0117188,1.184082
				C34.9697075,86.4905472,34.9614067,87.3372269,34.9164848,87.9075394z"/>
		</g>
		<g>
			<path class="st2" d="M34.7988091,79.3167191c-0.5004883,0-0.9838867-0.1035156-1.4404297-0.3081055
				c-0.3881836-0.1743164-0.7353516-0.4121094-1.0327148-0.7080078c-0.6494141-0.6420898-1.0268555-1.5410156-1.0332031-2.4633789
				l-0.0048828-1.253418c-0.0112305-3.375,2.7241211-6.1303711,6.0976563-6.1430664L71.3598404,68.30793
				c0.8891602,0.0004883,1.7373047,0.1806641,2.5273438,0.5351563c2.1875,0.9819336,3.6069336,3.1650391,3.6157227,5.5620117
				l0.0078125,1.2436523c0.0043945,0.9360352-0.3554688,1.8164063-1.0141602,2.480957
				c-0.6655273,0.6660156-1.5415039,1.0317383-2.4716797,1.0351563l-3.2543945,0.0126953l0,0l-35.9653282,0.1391602
				C34.8032036,79.3167191,34.8012505,79.3167191,34.7988091,79.3167191z M70.7646255,77.6184769h0.0097656H70.7646255z
				 M71.3647232,71.4260941l-33.9677696,0.1328125c-1.6547852,0.0058594-2.996582,1.3579102-2.9912109,3.0136719
				l0.0048828,1.2485352c0.0004883,0.0966797,0.0419922,0.1977539,0.1108398,0.265625
				c0.0317383,0.0317383,0.0708008,0.0576172,0.1123047,0.0766602c0.0517578,0.0234375,0.1069336,0.0351563,0.1621094,0.0351563
				h0.0004883l39.2167931-0.1518555c0.1015625-0.0004883,0.1987305-0.0419922,0.2734375-0.1166992
				c0.0668945-0.0673828,0.1064453-0.1630859,0.105957-0.2641602l-0.0078125-1.2451172
				c-0.0043945-1.1796875-0.7006836-2.2509766-1.7744141-2.7329102
				C72.2240982,71.514473,71.8051529,71.4265823,71.3647232,71.4260941z"/>
		</g>
	</g>
	<g>
		<g>
			<path class="st2" d="M83.4555435,48.1380081c-0.3930664,0-0.7734375-0.0810547-1.1181641-0.2358398
				c-0.3378906-0.1523438-0.6323242-0.3652344-0.8789063-0.6337891c-0.5063477-0.5488281-0.7792969-1.3154297-0.746582-2.0996094
				l0.0395508-0.9150391c0.1162109-2.6337891,2.1279297-4.8085938,4.5961914-4.9868164l2.9208984-0.421875
				c0.8481445-0.1245117,1.6420898,0.4672852,1.765625,1.3203125c0.1230469,0.8520508-0.4677734,1.6425781-1.3203125,1.765625
				l-2.9814453,0.4306641c-0.0449219,0.0068359-0.090332,0.0112305-0.1362305,0.0136719
				c-0.8916016,0.0493164-1.6835938,0.972168-1.7294922,2.0141602l-0.0263672,0.6069336l23.3359375-1.4267578l0.0522461-0.9155273
				c0.0292969-0.6669922-0.2626953-1.234375-0.7426758-1.4501953c-0.1586914-0.0708008-0.340332-0.0996094-0.5317383-0.0917969
				c-0.8730469,0.0458984-1.5927734-0.6186523-1.6352539-1.4790039c-0.0429688-0.8603516,0.6191406-1.5922852,1.4790039-1.6352539
				c0.6918945-0.0351563,1.3530273,0.0874023,1.9648438,0.3618164c1.652832,0.7407227,2.6660156,2.4790039,2.5810547,4.4272461
				l-0.0375977,0.9072266c-0.0317383,0.7456055-0.3266602,1.4584961-0.8305664,2.0107422
				c-0.5390625,0.5859375-1.2490234,0.9296875-2.0024414,0.9711914l-2.1796875,0.1210938l-4.105957,0.2817383L83.600563,48.1341019
				C83.5522232,48.1365433,83.5038834,48.1380081,83.4555435,48.1380081z"/>
		</g>
		<g>
			<path class="st2" d="M103.0531998,105.2122269H87.4697037c-3.1572266,0-5.7260742-2.5688477-5.7260742-5.7260742v-44.984375
				c0-3.1572266,2.5688477-5.7260742,5.7260742-5.7260742h15.5834961c3.1572266,0,5.7260742,2.5688477,5.7260742,5.7260742
				v44.984375C108.779274,102.6433792,106.2104263,105.2122269,103.0531998,105.2122269z M87.4697037,51.8938675
				c-1.4379883,0-2.6079102,1.1699219-2.6079102,2.6079102v44.984375c0,1.4379883,1.1699219,2.6079102,2.6079102,2.6079102
				h15.5834961c1.4379883,0,2.6079102-1.1699219,2.6079102-2.6079102v-44.984375
				c0-1.4379883-1.1699219-2.6079102-2.6079102-2.6079102H87.4697037z"/>
		</g>
		<g>
			<path class="st2" d="M88.4897232,41.9470901c-0.8115234,0-1.4960938-0.6279297-1.5537109-1.449707l-0.2758789-3.9223633
				c-0.0483398-0.6850586,0.3574219-1.3208008,0.9990234-1.565918l13.9145508-5.3110352
				c0.4624023-0.1767578,0.9785156-0.1220703,1.3950195,0.1420898c0.4160156,0.265625,0.6816406,0.7128906,0.7163086,1.2050781
				l0.3208008,4.5649414c0.0981445,1.3950195-0.3530273,2.7451172-1.2705078,3.8012695s-2.190918,1.6918945-3.5864258,1.7900391
				L88.600563,41.9431839C88.5634537,41.9456253,88.5263443,41.9470901,88.4897232,41.9470901z M89.8515396,37.5095901
				l0.0854492,1.2138672l8.9931641-0.6323242c0.5644531-0.0395508,1.0800781-0.296875,1.4511719-0.7246094
				c0.3710938-0.4272461,0.5537109-0.9731445,0.5141602-1.5375977l-0.1733398-2.4682617L89.8515396,37.5095901z"/>
		</g>
	</g>
</g>
<g>
</g>
<g>
</g>
<g>
</g>
<g>
</g>
<g>
</g>
<g>
</g>
</svg>
