<?xml version="1.0" encoding="UTF-8" standalone="no"?>
<!-- Generator: Adobe Illustrator 21.0.1, SVG Export Plug-In . SVG Version: 6.00 Build 0)  -->

<svg
   xmlns:dc="http://purl.org/dc/elements/1.1/"
   xmlns:cc="http://creativecommons.org/ns#"
   xmlns:rdf="http://www.w3.org/1999/02/22-rdf-syntax-ns#"
   xmlns:svg="http://www.w3.org/2000/svg"
   xmlns="http://www.w3.org/2000/svg"
   xmlns:sodipodi="http://sodipodi.sourceforge.net/DTD/sodipodi-0.dtd"
   xmlns:inkscape="http://www.inkscape.org/namespaces/inkscape"
   version="1.1"
   id="Слой_1"
   x="0px"
   y="0px"
   viewBox="0 0 110.685 110.685"
   xml:space="preserve"
   sodipodi:docname="krema.svg"
   width="110.685"
   height="110.685"
   inkscape:version="0.92.4 (5da689c313, 2019-01-14)"><metadata
   id="metadata61"><rdf:RDF><cc:Work
       rdf:about=""><dc:format>image/svg+xml</dc:format><dc:type
         rdf:resource="http://purl.org/dc/dcmitype/StillImage" /><dc:title></dc:title></cc:Work></rdf:RDF></metadata><defs
   id="defs59" /><sodipodi:namedview
   pagecolor="#ffffff"
   bordercolor="#666666"
   borderopacity="1"
   objecttolerance="10"
   gridtolerance="10"
   guidetolerance="10"
   inkscape:pageopacity="0"
   inkscape:pageshadow="2"
   inkscape:window-width="1366"
   inkscape:window-height="705"
   id="namedview57"
   showgrid="false"
   inkscape:zoom="1.7903449"
   inkscape:cx="71.590912"
   inkscape:cy="65.909088"
   inkscape:window-x="-8"
   inkscape:window-y="-8"
   inkscape:window-maximized="1"
   inkscape:current-layer="Слой_1" />
<style
   type="text/css"
   id="style2">
	.st0{fill:#FFFFFF;}
	.st1{fill:#E7447C;}
	.st2{fill:#E6427C;}
</style>
<g
   id="g42"
   transform="translate(-16.248409,-11.211036)">
	<g
   id="g16">
		<g
   id="g6">
			<path
   class="st0"
   d="M 102.65116,121.89574 H 40.530659 c -13.410553,0 -24.281954,-10.8714 -24.281954,-24.281955 V 35.493286 c 0,-13.410553 10.871401,-24.281956 24.281954,-24.281956 h 62.120501 c 13.41055,0 24.28195,10.871403 24.28195,24.281956 v 62.120499 c 0,13.410555 -10.8714,24.281955 -24.28195,24.281955 z"
   id="path4"
   inkscape:connector-curvature="0"
   style="fill:#ffffff" />
		</g>
		<g
   id="g14">
			<g
   id="g12">
				<g
   id="g10">
					<path
   class="st1"
   d="M 105.32382,121.89582 H 37.857998 c -11.915526,0 -21.609373,-9.69385 -21.609373,-21.60937 V 32.820625 c 0,-11.915527 9.693847,-21.609375 21.609373,-21.609375 h 67.465822 c 11.91553,0 21.60937,9.693848 21.60937,21.609375 v 67.465825 c 1e-5,11.91552 -9.69384,21.60937 -21.60937,21.60937 z M 37.857998,14.895821 c -9.883787,0 -17.924803,8.041015 -17.924803,17.924804 v 67.465825 c 0,9.88378 8.041016,17.9248 17.924803,17.9248 h 67.465822 c 9.88379,0 17.9248,-8.04102 17.9248,-17.9248 V 32.820625 c 0,-9.883789 -8.04101,-17.924804 -17.9248,-17.924804 H 37.857998 Z"
   id="path8"
   inkscape:connector-curvature="0"
   style="fill:#e7447c" />
				</g>
			</g>
		</g>
	</g>
	<g
   id="g26">
		<g
   id="g20">
			<path
   class="st2"
   d="M 66.480446,105.21223 H 43.385235 c -6.48291,0 -11.561035,-5.219241 -11.561035,-11.881839 v -5.422852 c 0,-0.05127 0.0024,-0.101562 0.0073,-0.151855 0.01123,-0.290527 0.02197,-1.440918 0.0332,-2.591309 0.0376,-3.723144 0.0376,-3.723144 0.966309,-4.13623 0.199218,-0.08838 0.415039,-0.134277 0.6333,-0.134277 h 41.080563 c 1.928223,0 3.49707,1.568847 3.49707,3.497558 v 8.938965 c 0,6.662598 -5.078613,11.881839 -11.561523,11.881839 z M 34.916485,87.907539 h 0.02588 v 5.422852 c 0,4.914063 3.708496,8.763669 8.442871,8.763669 h 23.095211 c 4.734375,0 8.443359,-3.849606 8.443359,-8.763669 v -8.938965 c 0,-0.208984 -0.169922,-0.379394 -0.378906,-0.379394 H 34.99461 c -0.0039,0.36914 -0.0078,0.776367 -0.01172,1.184082 -0.01318,1.294433 -0.02148,2.141113 -0.06641,2.711425 z"
   id="path18"
   inkscape:connector-curvature="0"
   style="fill:#e6427c" />
		</g>
		<g
   id="g24">
			<path
   class="st2"
   d="m 34.798809,79.316719 c -0.500488,0 -0.983887,-0.103515 -1.44043,-0.308105 -0.388183,-0.174317 -0.735351,-0.41211 -1.032714,-0.708008 -0.649415,-0.64209 -1.026856,-1.541016 -1.033204,-2.463379 l -0.0049,-1.253418 c -0.01123,-3.375 2.724121,-6.130371 6.097656,-6.143066 L 71.35984,68.30793 c 0.889161,4.88e-4 1.737305,0.180664 2.527344,0.535156 2.1875,0.981934 3.606934,3.165039 3.615723,5.562012 l 0.0078,1.243652 c 0.0044,0.936035 -0.355468,1.816407 -1.01416,2.480957 -0.665527,0.666016 -1.541504,1.031739 -2.47168,1.035157 l -3.254394,0.0127 v 0 l -35.965328,0.13916 c -0.002,0 -0.0039,0 -0.0063,0 z m 35.965816,-1.698242 h 0.0098 z m 0.600098,-6.192383 -33.967769,0.132813 c -1.654786,0.0059 -2.996582,1.35791 -2.991211,3.013672 l 0.0049,1.248535 c 4.88e-4,0.09668 0.04199,0.197754 0.110839,0.265625 0.03174,0.03174 0.0708,0.05762 0.112305,0.07666 0.05176,0.02344 0.106934,0.03516 0.162109,0.03516 h 4.89e-4 L 74.013161,76.0467 c 0.101562,-4.89e-4 0.19873,-0.04199 0.273437,-0.116699 0.0669,-0.06738 0.106446,-0.163086 0.105957,-0.264161 l -0.0078,-1.245117 c -0.0044,-1.179687 -0.700684,-2.250976 -1.774414,-2.73291 -0.386231,-0.17334 -0.805176,-0.261231 -1.245606,-0.261719 z"
   id="path22"
   inkscape:connector-curvature="0"
   style="fill:#e6427c" />
		</g>
	</g>
	<g
   id="g40">
		<g
   id="g30">
			<path
   class="st2"
   d="m 83.455544,48.138008 c -0.393067,0 -0.773438,-0.08105 -1.118165,-0.23584 -0.33789,-0.152343 -0.632324,-0.365234 -0.878906,-0.633789 -0.506348,-0.548828 -0.779297,-1.31543 -0.746582,-2.099609 l 0.03955,-0.915039 c 0.116211,-2.633789 2.12793,-4.808594 4.596191,-4.986817 l 2.920899,-0.421875 c 0.848144,-0.124511 1.642089,0.467285 1.765625,1.320313 0.123047,0.852051 -0.467774,1.642578 -1.320313,1.765625 l -2.981445,0.430664 c -0.04492,0.0068 -0.09033,0.01123 -0.136231,0.01367 -0.891601,0.04932 -1.683593,0.972168 -1.729492,2.01416 l -0.02637,0.606934 23.335945,-1.426758 0.0522,-0.915528 c 0.0293,-0.666992 -0.26269,-1.234375 -0.74267,-1.450195 -0.15869,-0.0708 -0.34034,-0.09961 -0.53174,-0.0918 -0.87305,0.0459 -1.59277,-0.618652 -1.63526,-1.479004 -0.043,-0.860351 0.61915,-1.592285 1.47901,-1.635254 0.69189,-0.03516 1.35303,0.0874 1.96484,0.361817 1.65283,0.740723 2.66602,2.479004 2.58106,4.427246 l -0.0376,0.907227 c -0.0317,0.745605 -0.32666,1.458496 -0.83057,2.010742 -0.53906,0.585937 -1.24902,0.929687 -2.00244,0.971191 l -2.17969,0.121094 -4.10595,0.281738 -17.586921,1.055176 c -0.04834,0.0024 -0.09668,0.0039 -0.145019,0.0039 z"
   id="path28"
   inkscape:connector-curvature="0"
   style="fill:#e6427c" />
		</g>
		<g
   id="g34">
			<path
   class="st2"
   d="M 103.0532,105.21223 H 87.469704 c -3.157227,0 -5.726075,-2.56885 -5.726075,-5.726077 V 54.501778 c 0,-3.157227 2.568848,-5.726074 5.726075,-5.726074 H 103.0532 c 3.15723,0 5.72607,2.568847 5.72607,5.726074 v 44.984375 c 0,3.157227 -2.56884,5.726077 -5.72607,5.726077 z M 87.469704,51.893867 c -1.437989,0 -2.607911,1.169922 -2.607911,2.607911 v 44.984375 c 0,1.437987 1.169922,2.607907 2.607911,2.607907 H 103.0532 c 1.43799,0 2.60791,-1.16992 2.60791,-2.607907 V 54.501778 c 0,-1.437989 -1.16992,-2.607911 -2.60791,-2.607911 z"
   id="path32"
   inkscape:connector-curvature="0"
   style="fill:#e6427c" />
		</g>
		<g
   id="g38">
			<path
   class="st2"
   d="m 88.489723,41.94709 c -0.811523,0 -1.496094,-0.62793 -1.553711,-1.449707 L 86.660133,36.57502 c -0.04834,-0.685059 0.357422,-1.320801 0.999024,-1.565918 l 13.914553,-5.311035 c 0.4624,-0.176758 0.97851,-0.122071 1.39502,0.142089 0.41601,0.265625 0.68164,0.712891 0.71631,1.205078 l 0.3208,4.564942 c 0.0981,1.395019 -0.35303,2.745117 -1.27051,3.801269 -0.91748,1.056153 -2.19092,1.691895 -3.586427,1.79004 l -10.54834,0.741699 c -0.03711,0.0024 -0.07422,0.0039 -0.11084,0.0039 z m 1.361817,-4.4375 0.08545,1.213867 8.993164,-0.632324 c 0.564453,-0.03955 1.080076,-0.296875 1.451166,-0.724609 0.3711,-0.427246 0.55372,-0.973145 0.51417,-1.537598 l -0.17334,-2.468262 z"
   id="path36"
   inkscape:connector-curvature="0"
   style="fill:#e6427c" />
		</g>
	</g>
</g>
<g
   id="g44"
   transform="translate(0,-21.133176)">
</g>
<g
   id="g46"
   transform="translate(0,-21.133176)">
</g>
<g
   id="g48"
   transform="translate(0,-21.133176)">
</g>
<g
   id="g50"
   transform="translate(0,-21.133176)">
</g>
<g
   id="g52"
   transform="translate(0,-21.133176)">
</g>
<g
   id="g54"
   transform="translate(0,-21.133176)">
</g>
</svg>