<?xml version="1.0" encoding="utf-8"?>
<!-- Generator: Adobe Illustrator 21.0.1, SVG Export Plug-In . SVG Version: 6.00 Build 0)  -->
<svg version="1.1" id="Слой_1" xmlns="http://www.w3.org/2000/svg" xmlns:xlink="http://www.w3.org/1999/xlink" x="0px" y="0px"
	 viewBox="0 0 143.6363678 145" style="enable-background:new 0 0 143.6363678 145;" xml:space="preserve">
<style type="text/css">
	.st0{fill:#E6427C;stroke:#FFFFFF;stroke-width:0.3465986;stroke-miterlimit:10;}
	.st1{fill:#BA83AA;stroke:#BA83AA;stroke-width:0.3768294;stroke-miterlimit:10;}
</style>
<g>
	<path class="st0" d="M107.3398743,62.2740631c0.1762314,0,0.3508987-0.0196915,0.5284195-0.0657272
		c9.4462738-2.3604698,14.6489334-8.4970818,14.6489334-17.2774162V29.7548389c0-3.5849838-2.9177933-6.5037193-6.5040359-6.5037193
		h-4.3353882c-1.196907,0-2.1683273,0.9711246-2.1683273,2.1683388c0,1.1969032,0.9714203,2.1683216,2.1683273,2.1683216h4.3353882
		c1.1946793,0,2.1686325,0.9723854,2.1686325,2.1670589v15.1748219c0,6.7879372-3.8244171,11.1868248-11.3665695,13.0734863
		c-1.1600647,0.2902565-1.8669662,1.4674568-1.5754395,2.6300621
		C105.486557,61.616703,106.3684464,62.2740631,107.3398743,62.2740631L107.3398743,62.2740631z M107.7013626,59.7436562"/>
	<path class="st0" d="M37.1292267,60.6332092c0.2902565-1.1626053-0.4156876-2.3398056-1.5754318-2.6300621
		c-7.5421562-1.8853798-11.3665867-6.2842903-11.3665867-13.0722275V29.7548389
		c0-1.1946735,0.9723949-2.1670589,2.1670589-2.1670589h4.3366604c1.1959496,0,2.1673794-0.9714184,2.1673794-2.1683216
		c0-1.1959534-0.9714298-2.1670513-2.1673794-2.1670513h-4.3366604c-3.5849838,0-6.5037098,2.917448-6.5037098,6.5037117v15.1748009
		c0,8.7803345,5.2036133,14.9169464,14.6489239,17.2774162c0.1784706,0.0460358,0.353447,0.0657272,0.5296974,0.0657272
		C36.0002899,62.2740631,36.8824883,61.616703,37.1292267,60.6332092L37.1292267,60.6332092z M37.490715,58.1028061"/>
	<path class="st0" d="M108.59935,17.8197632c0-1.1475906-0.931427-2.0790262-2.0781097-2.0790262H35.8474579
		c-1.1476097,0-2.0778084,0.9314356-2.0778084,2.0790262v8.3139782c0,25.1450062,4.1985435,33.8298416,4.3246002,34.0761719
		c2.3679848,5.523365,5.84338,8.2920647,9.2024574,11.9769478c5.8720016,6.4359055,11.4157639,12.5137405,11.4157639,27.7380066
		c0,0.0557098-0.0441475,5.6719437-3.8084984,11.3168106c-0.6351509,0.9563751-0.3781738,2.2480011,0.5769997,2.8831558
		c0.9536438,0.6363831,2.2443619,0.3781815,2.8828659-0.57547c4.4555321-6.6822357,4.5054703-13.3452911,4.5054703-13.6244965
		c0-16.8349915-6.3561325-23.8022308-12.5003395-30.540184c-3.2723083-3.5850067-6.3622246-5.9338303-8.4997063-10.9100342
		c-0.0389748-0.0809975-3.9427834-8.4330292-3.9427834-32.3409042V19.897583h66.5157318v6.2361584
		c0,23.907877-3.9034958,32.2599106-3.9890594,32.4383469c-2.0909119,4.8787651-5.1823349,7.2275887-8.4531174,10.8125954
		c-6.1457367,6.7379532-12.5018692,13.704277-12.5018692,30.540184c0,0.2792053,0.0502396,6.9422607,4.5066986,13.6244965
		c0.4022217,0.600441,1.0611267,0.9253311,1.7319031,0.9253311c0.3949203,0,0.7956161-0.1129608,1.1512604-0.3498611
		c0.9539566-0.6363602,1.2118607-1.9267807,0.5757828-2.8831558c-3.7287369-5.5937119-3.8072815-11.2680969-3.8072815-11.3180313
		c0-15.2230453,5.5425415-21.3008804,11.4157639-27.7367859c3.3587799-3.6860962,6.8341751-6.4535828,9.1512985-11.8664169
		c0.1772003-0.3580742,4.3757629-9.0416946,4.3757629-34.1866989V17.8197632z M108.59935,17.8197632"/>
	<path class="st0" d="M96.4121017,113.9663315c-0.2307892-0.9241104-1.0623322-1.5735779-2.0159836-1.5735779H48.4066505
		c-0.9548607,0-1.7864151,0.6482468-2.0172119,1.5735779l-4.1568336,16.6288528
		c-0.1558952,0.6220703-0.0167427,1.2809753,0.3781738,1.7842865c0.3924789,0.5054474,0.9981003,0.8004913,1.637825,0.8004913
		H98.552948c0.6397324,0,1.2453384-0.2962646,1.6378174-0.8004913c0.394928-0.5033112,0.5340805-1.1622162,0.3781815-1.7842865
		L96.4121017,113.9663315z M46.9116325,129.0216064l3.1176262-12.4708099h42.7430344l3.11763,12.4708099H46.9116325z
		 M46.9116325,129.0216064"/>
	<g>
		<path class="st1" d="M65.0973969,54.7582893c-0.4917297-0.4885902-1.2867279-0.4860802-1.7744827,0.0064774
			c-0.4885941,0.4911041-0.4852486,1.2861061,0.0056419,1.7746964l1.7615166,1.7483406l-1.9853096,0.3382034
			c-0.6837349,0.1169167-1.1430435,0.7646713-1.026123,1.448616c0.1037445,0.6119919,0.6347885,1.0441093,1.2352791,1.0441093
			c0.0702782,0,0.1413879-0.006485,0.2124977-0.0179901l4.3897743-0.7483635
			c0.4632797-0.0792618,0.8431091-0.4109917,0.9853363-0.8585815c0.1422272-0.4486389,0.0213394-0.9380646-0.3120575-1.2697868
			L65.0973969,54.7582893z M65.0973969,54.7582893"/>
		<g>
			<path class="st1" d="M60.5310898,50.9918022c-0.1338577-0.67976-0.7947922-1.1225433-1.4737129-0.9893074
				c-0.6805954,0.1338577-1.1227531,0.7941589-0.9895172,1.4739189l0.5049057,2.5621643l-2.2116203-0.7500343
				c-0.6569672-0.2231674-1.3693466,0.1282158-1.5914726,0.7849693c-0.223175,0.6561203,0.128212,1.3685036,0.7849655,1.5916786
				l4.2649002,1.446106c0.1315575,0.0449677,0.2671013,0.0669327,0.4028358,0.0669327
				c0.2997246,0,0.5940094-0.1077194,0.8267937-0.3112259c0.3365402-0.2949142,0.4911041-0.746685,0.4045143-1.1863365
				L60.5310898,50.9918022z M60.5310898,50.9918022"/>
			<path class="st1" d="M55.49189,50.6552658c0.4804306-0.0711098,0.8774109-0.4126625,1.0179634-0.8776207l1.4216347-4.6888695
				c0.2010002-0.6632309-0.1731873-1.3643227-0.8366318-1.5653267c-0.6626015-0.2009926-1.3636971,0.1731873-1.5655327,0.8366318
				l-0.6485901,2.1413422l-0.996006-1.4984016c-0.3831711-0.5768471-1.1618614-0.7343445-1.7393417-0.3503342
				c-0.5768509,0.3831787-0.7345543,1.1616592-0.350544,1.7393456l2.4690895,3.7158699
				c0.2344627,0.3536873,0.6280937,0.5603333,1.0449448,0.5603333C55.3693161,50.6682358,55.4306068,50.6642609,55.49189,50.6552658
				L55.49189,50.6552658z M55.49189,50.6552658"/>
			<path class="st1" d="M53.1265411,41.1589432c0.0809364,0.4436226,0.3938408,0.8090134,0.8194695,0.9583549
				c0.135746,0.0474739,0.2752571,0.071106,0.4149742,0.071106c0.2982559,0,0.5916977-0.1062508,0.8236542-0.3078766
				l3.6161041-3.1423607c0.5228844-0.4551239,0.5785255-1.2476196,0.1242371-1.7705154
				c-0.4542847-0.5228844-1.2467842-0.5791512-1.7705116-0.1240273l-1.9551926,1.6985588l-0.4020004-2.1994858
				c-0.1248627-0.6814384-0.7784767-1.1340446-1.4599113-1.0081367c-0.6822662,0.1240273-1.1332054,0.7776489-1.0089645,1.4599152
				L53.1265411,41.1589432z M53.1265411,41.1589432"/>
			<path class="st1" d="M57.678196,35.0306625c0.0481071,0,0.0964241-0.0033493,0.1453629-0.0081635l4.514019-0.5245628
				c0.687912-0.0801125,1.1815224-0.7027626,1.1014175-1.3915215c-0.0801086-0.6879158-0.7027664-1.1804733-1.3915176-1.1020393
				l-2.724678,0.3168678l0.5979729-2.4649048c0.1635628-0.6739025-0.2507782-1.3521957-0.9238434-1.5155487
				c-0.6749458-0.1641884-1.3521957,0.2501507-1.5157509,0.9232178l-1.0219421,4.2159576
				c-0.0972633,0.3986588,0.0073204,0.8194809,0.2794266,1.1265259
				C56.9779472,34.8777657,57.3211708,35.0306625,57.678196,35.0306625L57.678196,35.0306625z M57.678196,35.0306625"/>
		</g>
		<path class="st1" d="M79.2646027,58.6268387l-1.9861526-0.339035l1.7615204-1.7483406
			c0.4917221-0.4885902,0.4950714-1.2827568,0.0064774-1.7746964c-0.4877472-0.4917221-1.282753-0.4942322-1.7746887-0.0064774
			l-3.4918671,3.4665565c-0.3333969,0.3308868-0.4542847,0.8211479-0.3120575,1.2689514
			c0.1422272,0.4484329,0.5220566,0.7801476,0.9853287,0.8585815l4.3897781,0.7483635
			c0.0711136,0.0123444,0.1422272,0.0179901,0.2125015,0.0179901c0.6004868,0,1.1315384-0.4321175,1.2352829-1.0441093
			C80.4076385,59.3915215,79.9475021,58.7429237,79.2646027,58.6268387L79.2646027,58.6268387z M79.2646027,58.6268387"/>
		<g>
			<path class="st1" d="M86.0082169,53.2877083l-2.2116165,0.7508698l0.5049057-2.5621643
				c0.1332321-0.67976-0.309761-1.3400612-0.9895248-1.4739189c-0.6797562-0.1340714-1.3398438,0.3087044-1.4737091,0.9893074
				l-0.9225922,4.6888657c-0.086586,0.4396515,0.0679779,0.8914223,0.4045105,1.1863365
				c0.2319489,0.2035065,0.5270767,0.3103828,0.8267975,0.3103828c0.1349106,0,0.2712708-0.021122,0.402832-0.0660896
				l4.2649078-1.4469452c0.6559143-0.2223358,1.0081329-0.9347191,0.7849655-1.5914726
				C87.3775635,53.4167595,86.665184,53.0653763,86.0082169,53.2877083L86.0082169,53.2877083z M86.0082169,53.2877083"/>
			<path class="st1" d="M90.2239761,44.6526871c-0.5774765-0.3840103-1.3561707-0.2265129-1.7393417,0.3503342l-0.9960022,1.4984016
				l-0.6485977-2.1413422c-0.2018356-0.6626129-0.9020844-1.0376244-1.5655365-0.8366318
				c-0.6634445,0.201004-1.0384598,0.9020958-0.8366241,1.5653267l1.4216385,4.6888695
				c0.1405563,0.4649582,0.537529,0.8065109,1.0179596,0.8776207c0.0612869,0.0089951,0.1225662,0.01297,0.1830139,0.01297
				c0.4160156,0,0.8104858-0.206646,1.0449448-0.5597076l2.4690933-3.7156639
				C90.9577026,45.8151817,90.8008347,45.0358658,90.2239761,44.6526871L90.2239761,44.6526871z M90.2239761,44.6526871"/>
			<path class="st1" d="M83.4443893,36.9676514c-0.4551315,0.5228958-0.399498,1.3153915,0.1242371,1.7705154l3.6160965,3.1423607
				c0.2319565,0.2016258,0.5254059,0.3078766,0.8236618,0.3078766c0.1388855,0,0.2792206-0.023632,0.4149628-0.071106
				c0.4256363-0.1493416,0.7376938-0.5147324,0.8186417-0.9583549l0.7981339-4.3644676
				c0.1250839-0.6822662-0.3266983-1.3358879-1.0081253-1.4599152c-0.6822739-0.1250725-1.3358841,0.3266983-1.4599152,1.0081367
				l-0.4028397,2.1994858l-1.9543533-1.6985588C84.6911621,36.3885002,83.898674,36.443924,83.4443893,36.9676514
				L83.4443893,36.9676514z M83.4443893,36.9676514"/>
			<path class="st1" d="M80.0317841,34.4979362l4.5140152,0.5245628c0.048111,0.0056496,0.0972595,0.0081635,0.1445313,0.0081635
				c0.3578644,0,0.7002487-0.1528969,0.940361-0.423336c0.2712784-0.3078804,0.3758545-0.7287025,0.2794342-1.1273613
				l-1.0219345-4.2151222c-0.163559-0.6732731-0.8424835-1.0874023-1.5157623-0.9240532
				c-0.6738968,0.163353-1.0873947,0.8416462-0.9240494,1.5155487l0.5981827,2.4649048l-2.7255096-0.31604
				c-0.687912-0.0792618-1.3114166,0.4132957-1.3915176,1.102047
				C78.8502655,33.7951736,79.3430328,34.4178238,80.0317841,34.4979362L80.0317841,34.4979362z M80.0317841,34.4979362"/>
		</g>
	</g>
</g>
<g>
</g>
<g>
</g>
<g>
</g>
<g>
</g>
<g>
</g>
<g>
</g>
</svg>
