<?xml version="1.0" encoding="utf-8"?>
<!-- Generator: Adobe Illustrator 21.0.1, SVG Export Plug-In . SVG Version: 6.00 Build 0)  -->
<svg version="1.1" id="Слой_1" xmlns="http://www.w3.org/2000/svg" xmlns:xlink="http://www.w3.org/1999/xlink" x="0px" y="0px"
	 viewBox="0 0 177.7272797 145" style="enable-background:new 0 0 177.7272797 145;" xml:space="preserve">
<style type="text/css">
	.st0{fill:#BA83AA;}
	.st1{fill:#E6427C;}
</style>
<g>
	<g>
		<path class="st0" d="M84.5156403,74.8973465c-0.4106445,0-0.8032227-0.0688477-1.1811523-0.206543
			c-1.0532227-0.3823242-1.8632813-1.269043-2.4072266-2.6347656c-0.4262695-1.0712891-1.4140625-3.1196289-2.9350586-6.0878906
			c-0.4570313-0.8916016-0.1176758-1.9853554,0.7641602-2.4614296l2.2685547-1.2236328
			c0.4350586-0.234375,0.9458008-0.284668,1.4174805-0.1391602c0.472168,0.1455078,0.8657227,0.4746094,1.0932617,0.9130859
			c0.6972656,1.3466835,1.5375977,3.0561562,2.3422852,4.6938515c0.7265625,1.4790039,1.4238281,2.8984375,1.9560547,3.9262695
			c0.4624023,0.8925781,0.1235352,1.9907227-0.7607422,2.4682617
			C86.1435699,74.6473465,85.2973785,74.8973465,84.5156403,74.8973465z"/>
	</g>
	<g>
		<path class="st0" d="M44.3598747,33.7733192c-0.2128906,0-0.4287109-0.0371094-0.6386719-0.1147461
			c-3.8901367-1.4384766-6.1079102-4.9711895-5.6494141-8.9999981c0.4448242-3.918457,3.4526367-7.0605469,7.3134766-7.6416016
			c4.1645508-0.6220703,7.815918,1.6577148,9.5302734,5.9589844c0.3647461,0.9145508-0.0541992,1.9541016-0.9506836,2.3603516
			c-3.5810547,1.6230469-6.1894531,4.0605469-7.9741211,7.4521465
			C45.6645622,33.4090614,45.0273552,33.7733192,44.3598747,33.7733192z M46.7202263,20.6009579
			c-0.2568359,0-0.519043,0.0200195-0.7871094,0.0605469c-2.215332,0.3330078-3.9423828,2.1479492-4.2001953,4.4130859
			c-0.2094727,1.8417969,0.4916992,3.4155273,1.9130859,4.4233398c1.7817383-2.7768555,4.1499023-5.0024414,7.0698242-6.644043
			C49.7246208,21.3890438,48.3364372,20.6009579,46.7202263,20.6009579z"/>
	</g>
	<g>
		<path class="st1" d="M126.0605621,52.132206c-0.7998047,0-1.6118164-0.0498047-2.434082-0.1518555
			c-9.1547852-1.1381836-16.0200195-9.7729492-15.3037109-19.2475586
			c0.5664063-7.4858379,6.1806641-13.9877911,13.652832-15.8115215c0.159668-0.0390625,1.640625-0.3857422,3.9394531-0.3857422
			c2.3046875,0,3.9101563,0.3276367,3.9775391,0.3413086c0.0175781,0.0039063,0.0351563,0.0078125,0.0522461,0.0117188
			c9.4023438,2.2392578,15.4174805,11.2075195,13.6938477,20.416502
			C141.9726715,46.2064247,134.7719879,52.132206,126.0605621,52.132206z M125.9150543,20.2200985
			c-1.859375,0-3.0585938,0.2792969-3.0703125,0.2822266c-5.9375,1.4492188-10.3999023,6.5932617-10.847168,12.5082989
			c-0.5703125,7.5439453,4.8500977,14.4135742,12.0834961,15.3125c7.7729492,0.9677734,14.4858398-3.9511719,15.9355469-11.6958008
			c1.3369141-7.1420879-3.5473633-14.3774395-10.890625-16.1455059
			C128.9463043,20.4476376,127.6821442,20.2200985,125.9150543,20.2200985z"/>
	</g>
	<g>
		<path class="st0" d="M113.1904449,132.7513428h-50.463871c-1.0175781,0-1.8422852-0.824707-1.8422852-1.8422852v-26.2114182
			h-2.7817383c-1.0175781,0-1.8422852-0.824707-1.8422852-1.8422852v-4.6572266c0-1.0175781,0.824707-1.8422852,1.8422852-1.8422852
			h59.8159218c1.0175781,0,1.8422852,0.824707,1.8422852,1.8422852v4.5473633c0,1.0175781-0.824707,1.8422852-1.8422852,1.8422852
			h-2.8857422v26.3212814C115.0327301,131.9266357,114.2080231,132.7513428,113.1904449,132.7513428z M64.5688629,129.0667725
			h46.7792969V102.745491c0-1.0175781,0.824707-1.8422852,1.8422852-1.8422852h2.8857422v-0.862793H59.9448357v0.9726563h2.7817383
			c1.0175781,0,1.842289,0.824707,1.842289,1.8422852V129.0667725z"/>
	</g>
	<g>
		<path class="st1" d="M53.2055779,126.4764481c-0.6606445,0-1.2998047-0.3564453-1.6303711-0.9814453l-1.4335938-2.7104492
			c-6.6577148-12.5649414-8.3500977-24.4599609-5.1738281-36.3657227c0.2617188-0.9829102,1.2714844-1.5703125,2.2553711-1.3051758
			c0.9829102,0.262207,1.5673828,1.2719727,1.3051758,2.2553711c-2.925293,10.965332-1.3325195,21.9853516,4.8691406,33.6899414
			l1.4355469,2.7133789c0.4755859,0.8994141,0.1323242,2.0141602-0.7675781,2.4902344
			C53.7910271,126.4076004,53.4961052,126.4764481,53.2055779,126.4764481z"/>
	</g>
	<g>
		<path class="st1" d="M11.5698376,79.2386551c-0.1845703,0-0.3720703-0.027832-0.5576172-0.0864258
			c-0.9697266-0.3076172-1.5068359-1.3432617-1.1992188-2.3134766c3.1098633-9.8081055,10.6420898-22.6113319,16.8974609-26.0366249
			c8.0825176-4.4267578,16.3510723-3.2001953,22.6826153,3.3657227c1.4394531,1.4926758,2.4243164,3.3935547,3.293457,5.0708008
			l0.1015625,0.1953125c1.7319336,3.3388672,2.2685547,6.326664-0.402832,10.8964882
			c-0.5136719,0.8789063-1.6430664,1.1757813-2.5205078,0.6611328c-0.8789063-0.5136719-1.1743164-1.6420898-0.6611328-2.5205078
			c2.03125-3.4750977,1.4428711-5.1621132,0.3129883-7.3398476l-0.1020508-0.1972656
			c-0.7900391-1.5249023-1.6074219-3.1020508-2.6738281-4.2084961c-5.2387695-5.4321289-11.5537109-6.3632813-18.2607403-2.690918
			c-4.7944336,2.6254883-12.0175781,14.0258827-15.1542969,23.9184608
			C13.0766735,78.7376785,12.3515759,79.2386551,11.5698376,79.2386551z"/>
	</g>
	<g>
		<path class="st1" d="M163.9931793,73.9295731c-0.8007813,0.0004883-1.5380859-0.5258789-1.7700195-1.3344727
			c-2.4462891-8.5205078-6.8144531-16.0942421-10.8696289-18.8466835
			c-6.1601563-4.1796875-12.2558594-4.0288086-18.1171875,0.449707c-3.6577148,2.7939453-4.7050781,6.1176758-3.3964844,10.7778358
			c0.2749023,0.9794922-0.2958984,1.9970703-1.2758789,2.2719727c-0.9770508,0.2768555-1.996582-0.2954102-2.2719727-1.2758789
			c-1.7041016-6.0678749-0.1201172-11.0146523,4.7070313-14.7026405c7.1601563-5.4682617,14.9140625-5.6665039,22.4238281-0.5698242
			c4.8632813,3.300293,9.5922852,11.3007813,12.3422852,20.8789101c0.2807617,0.9780273-0.284668,1.9985352-1.2626953,2.2792969
			C164.3325348,73.9066238,164.1616364,73.9295731,163.9931793,73.9295731z"/>
	</g>
	<g>
		<path class="st1" d="M122.4116364,119.9027176c-0.3232422,0-0.6508789-0.0849609-0.9482422-0.2641602
			c-0.871582-0.5249023-1.1533203-1.6567383-0.628418-2.5288086l0.3959961-0.6665039
			c0.2626953-0.4458008,0.4921875-0.8334961,0.7387695-1.2094727c4.8759766-7.440918,7.5375977-14.0219727,8.3759766-20.7099609
			c0.40625-3.2416992,0.3457031-6.6254883,0.2475586-9.2114258c-0.0385742-1.0166016,0.7543945-1.8725586,1.7714844-1.9111328
			c1.0009766-0.0395508,1.8725586,0.7539063,1.9111328,1.7714844c0.1035156,2.7255859,0.1655273,6.3037109-0.2739258,9.809082
			c-0.9106445,7.2661133-3.7548828,14.3432617-8.9506836,22.2724609c-0.2163086,0.3300781-0.4160156,0.6699219-0.6459961,1.0605469
			l-0.4130859,0.6953125C123.6464996,119.5843582,123.0366364,119.9027176,122.4116364,119.9027176z"/>
	</g>
	<g>
		<path class="st1" d="M89.3310699,91.9613113c-0.862793,0-2.3466797-0.1875-3.6308594-1.2880859
			c-1.3823242-1.1845703-2.0830078-3.0117188-2.0830078-5.4306641c0-2.6572266,1.0917969-4.2304688,2.0083008-5.0825195
			c1.9755859-1.8378906,4.6640625-1.8969727,5.4389648-1.8710938c8.5830078-0.9023438,17.1015625-1.8618164,25.3208008-2.8505859
			c0.5205078-0.0629883,1.1772461-0.3657227,1.6337891-0.753418c4.9692383-4.2216797,9.9858398-8.5625,14.8374023-12.7602577
			l3.0390625-2.6289063c0.769043-0.6655273,1.9335938-0.5805664,2.5986328,0.1884766
			c0.6660156,0.7695313,0.581543,1.9331055-0.1884766,2.5986328l-3.0380859,2.6284218
			c-4.8574219,4.203125-9.8803711,8.5498047-14.862793,12.7822266c-1.0073242,0.8554688-2.3452148,1.4550781-3.5795898,1.6035156
			c-8.2817383,0.996582-16.8662109,1.9624023-25.5146484,2.871582c-0.1083984,0.0117188-0.2172852,0.0131836-0.3256836,0.0053711
			c-0.4916992-0.0317383-1.9921875,0.074707-2.8623047,0.8959961c-0.5522461,0.5209961-0.8208008,1.296875-0.8208008,2.3725586
			c0,0.8896484,0.1381836,2.0683594,0.7963867,2.6323242c0.5581055,0.4785156,1.3642578,0.3994141,1.3725586,0.3984375
			c0.0625-0.0097656,0.1254883-0.0161133,0.1884766-0.0195313c0.4135742-0.0209961,0.828125-0.0361328,1.2426758-0.0507813
			c0.8920898-0.0327148,1.734375-0.0629883,2.5615234-0.1533203l1.5454102-0.1689453
			c8.0288086-0.8769531,16.3300781-1.7841797,24.4799805-2.7646484c1.1357422-0.137207,2.1171875-0.4741211,2.6254883-0.9013672
			c6.3681641-5.3525391,12.7651367-10.8969727,18.9521484-16.2592773l1.6352539-1.4169922
			c0.7700195-0.6660156,1.9345703-0.581543,2.5991211,0.1860352c0.6665039,0.769043,0.5830078,1.9326172-0.1860352,2.5991211
			l-1.6347656,1.4165039c-6.1972656,5.3710938-12.6054688,10.925293-18.9946289,16.2958984
			c-1.3657227,1.1474609-3.2314453,1.5786133-4.5556641,1.7382813c-8.1704102,0.9833984-16.4824219,1.8916016-24.5205078,2.7695313
			l-1.5454102,0.1689453c-0.9604492,0.1049805-1.9101563,0.1391602-2.8286133,0.1728516
			c-0.3745117,0.0131836-0.7485352,0.0268555-1.1225586,0.0454102
			C89.7876129,91.9451981,89.586441,91.9613113,89.3310699,91.9613113z"/>
	</g>
	<g>
		<path class="st1" d="M61.8642693,59.1326942c-0.0458984,0-0.0922852,0-0.1386719-0.0004883
			c-9.7392578-0.0737305-17.6118164-8.1455078-17.5488281-17.9921875c0.0302734-4.7529297,1.9077148-9.2021465,5.2871094-12.5283184
			c3.3496094-3.2973633,7.7866211-5.1088867,12.5058594-5.1088867c0.0395508,0,0.0795898,0,0.1191406,0.0004883
			c4.7866249,0.0302734,9.2436562,1.8969727,12.5493202,5.2548828c3.3393555,3.3925762,5.1533203,7.9428692,5.1079102,12.8124981
			C79.6552887,51.2830849,71.6464996,59.1326942,61.8642693,59.1326942z M61.9702263,27.1878719
			c-3.7456055,0-7.265625,1.4360352-9.9213867,4.0498047c-2.6762695,2.6342754-4.1630859,6.1591778-4.1875,9.9257793
			c-0.0498047,7.8173828,6.1826172,14.2250977,13.8925781,14.2841797c0.0366211,0,0.0732422,0,0.1103516,0
			c7.7666054,0.0004883,14.1250038-6.2177734,14.1972694-13.9111328c0.0361328-3.8837891-1.4018555-7.503418-4.0493164-10.1928692
			c-2.6142578-2.6552734-6.1464844-4.1313477-9.9467812-4.1557617l0,0
			C62.0337029,27.1878719,62.0019646,27.1878719,61.9702263,27.1878719z"/>
	</g>
	<g>
		<path class="st1" d="M58.3476677,89.9188309c-0.2597656,0-0.5180664-0.0546875-0.7568359-0.1625977
			c-0.1611328-0.0722656-0.3574219-0.1416016-0.5712891-0.2197266c-0.7202148-0.2631836-1.706543-0.6240234-2.565918-1.2885742
			c-6.6328125-5.1298828-13.5239258-10.5371094-20.4829102-16.0712891
			c-1.5693359-1.2480469-2.5454082-2.9365234-2.7490215-4.7543945c-0.1958008-1.7490234,0.3354492-3.5087929,1.4956036-4.9560585
			c2.3862305-2.9775391,6.5722656-3.3623047,9.7353516-0.8984375c6.9648438,5.4262733,12.3203125,9.6445351,17.3642578,13.6777382
			c0.4736328,0.3779297,0.7177734,0.4331055,1.309082,0.2910156c4.9243202-1.1806641,9.8569374-2.328125,14.7895546-3.4760742
			l4.8706055-1.1342773c2.2885742-0.534668,4.4692383-0.2495117,6.1401367,0.8032227
			c1.4643555,0.9223633,2.4453125,2.3466797,2.8359375,4.1186523c0.8515625,3.8642578-1.5039063,7.2631836-5.7270508,8.265625
			c-7.2944336,1.7319336-14.5957031,3.4375-21.8959999,5.1430664l-1.2143555,0.2841797
			c-0.3989258,0.0927734-0.8056641,0.1508789-1.3618164,0.2255859c-0.2661133,0.0356445-0.5727539,0.0766602-0.940918,0.1318359
			C58.5307732,89.9124832,58.4389763,89.9188309,58.3476677,89.9188309z M37.9067497,63.613163
			c-0.8769531,0-1.6977539,0.389164-2.3144531,1.1586952c-0.5507813,0.6865234-0.7954102,1.4614258-0.7084961,2.2402344
			c0.0952148,0.8491211,0.5727539,1.6376953,1.3808594,2.2807617c6.9458008,5.5234375,13.8237305,10.9204102,20.4433594,16.0400391
			c0.4067383,0.3149414,1.0283203,0.5419922,1.5761719,0.7421875c0.0996094,0.0361328,0.1962891,0.0717773,0.2895508,0.1069336
			c0.1811523-0.0253906,0.3466797-0.0473633,0.4995117-0.0678711c0.4135742-0.0556641,0.7167969-0.0927734,1.0131836-0.1621094
			l1.2143555-0.2836914c7.2963905-1.7045898,14.5927773-3.4091797,21.8828163-5.1396484
			c2.2827148-0.5419922,3.3969727-1.9951172,2.9799805-3.887207c-0.1762695-0.7993164-0.5805664-1.4033203-1.2016602-1.7944336
			c-0.8300781-0.5234375-2.0141602-0.6416016-3.3378906-0.3320313l-4.8735352,1.1347656
			c-4.9243164,1.1455078-9.8491211,2.2915039-14.7656288,3.4702148c-1.6904297,0.4057617-3.1108398,0.0893555-4.46875-0.9960938
			c-5.0317383-4.0234375-10.3759766-8.2329102-17.328125-13.6489258
			C39.4482536,63.8983192,38.6567497,63.613163,37.9067497,63.613163z"/>
	</g>
</g>
<g>
</g>
<g>
</g>
<g>
</g>
<g>
</g>
<g>
</g>
<g>
</g>
</svg>
