<?xml version="1.0" encoding="UTF-8" standalone="no"?>
<!-- Generator: Adobe Illustrator 21.0.1, SVG Export Plug-In . SVG Version: 6.00 Build 0)  -->

<svg
   xmlns:dc="http://purl.org/dc/elements/1.1/"
   xmlns:cc="http://creativecommons.org/ns#"
   xmlns:rdf="http://www.w3.org/1999/02/22-rdf-syntax-ns#"
   xmlns:svg="http://www.w3.org/2000/svg"
   xmlns="http://www.w3.org/2000/svg"
   xmlns:sodipodi="http://sodipodi.sourceforge.net/DTD/sodipodi-0.dtd"
   xmlns:inkscape="http://www.inkscape.org/namespaces/inkscape"
   version="1.1"
   id="Слой_1"
   x="0px"
   y="0px"
   viewBox="0 0 110.685 110.685"
   xml:space="preserve"
   sodipodi:docname="people.svg"
   width="110.685"
   height="110.685"
   inkscape:version="0.92.4 (5da689c313, 2019-01-14)"><metadata
   id="metadata83"><rdf:RDF><cc:Work
       rdf:about=""><dc:format>image/svg+xml</dc:format><dc:type
         rdf:resource="http://purl.org/dc/dcmitype/StillImage" /><dc:title></dc:title></cc:Work></rdf:RDF></metadata><defs
   id="defs81" /><sodipodi:namedview
   pagecolor="#ffffff"
   bordercolor="#666666"
   borderopacity="1"
   objecttolerance="10"
   gridtolerance="10"
   guidetolerance="10"
   inkscape:pageopacity="0"
   inkscape:pageshadow="2"
   inkscape:window-width="1366"
   inkscape:window-height="705"
   id="namedview79"
   showgrid="false"
   inkscape:zoom="1.7903449"
   inkscape:cx="71.590912"
   inkscape:cy="65.909088"
   inkscape:window-x="-8"
   inkscape:window-y="-8"
   inkscape:window-maximized="1"
   inkscape:current-layer="Слой_1" />
<style
   type="text/css"
   id="style2">
	.st0{fill:#FFFFFF;}
	.st1{fill:#E7447C;}
	.st2{fill:#BA83AA;}
	.st3{fill:#E6427C;}
</style>
<g
   id="g64"
   transform="translate(-15.549174,-12.77073)">
	<g
   id="g16">
		<g
   id="g6">
			<path
   class="st0"
   d="M 101.95192,123.45544 H 39.831421 c -13.410553,0 -24.281956,-10.8714 -24.281956,-24.281963 V 37.052982 c 0,-13.410553 10.871403,-24.281955 24.281956,-24.281955 h 62.120499 c 13.41055,0 24.28195,10.871402 24.28195,24.281955 v 62.120495 c 0,13.410563 -10.8714,24.281963 -24.28195,24.281963 z"
   id="path4"
   inkscape:connector-curvature="0"
   style="fill:#ffffff" />
		</g>
		<g
   id="g14">
			<g
   id="g12">
				<g
   id="g10">
					<path
   class="st1"
   d="M 104.62458,123.45551 H 37.15876 c -11.915527,0 -21.609375,-9.69384 -21.609375,-21.60937 V 34.380321 c 0,-11.915527 9.693848,-21.609374 21.609375,-21.609374 h 67.46582 c 11.91553,0 21.60938,9.693847 21.60938,21.609374 v 67.465819 c 0,11.91553 -9.69385,21.60937 -21.60938,21.60937 z M 37.15876,16.455517 c -9.883789,0 -17.924805,8.041015 -17.924805,17.924804 v 67.465819 c 0,9.88379 8.041016,17.92481 17.924805,17.92481 h 67.46582 c 9.88379,0 17.92481,-8.04102 17.92481,-17.92481 V 34.380321 c 0,-9.883789 -8.04102,-17.924804 -17.92481,-17.924804 z"
   id="path8"
   inkscape:connector-curvature="0"
   style="fill:#e7447c" />
				</g>
			</g>
		</g>
	</g>
	<g
   id="g62">
		<g
   id="g20">
			<path
   class="st2"
   d="m 68.870361,72.71772 c -0.284179,0 -0.584472,-0.04346 -0.889648,-0.154297 -0.778809,-0.282715 -1.371094,-0.921387 -1.760254,-1.898437 -0.184082,-0.462891 -0.655762,-1.506348 -1.855469,-3.847168 -0.387207,-0.754395 -0.09961,-1.680176 0.646973,-2.083008 l 1.445312,-0.779782 c 0.367676,-0.19873 0.799317,-0.24121 1.199707,-0.117675 0.399415,0.123047 0.732422,0.401363 0.924805,0.772945 0.444824,0.858887 0.980957,1.948731 1.494141,2.993652 0.46289,0.941407 0.906738,1.845215 1.245605,2.499512 0.391114,0.755371 0.104981,1.68457 -0.643066,2.088867 -0.275879,0.148926 -0.972657,0.525391 -1.808106,0.525391 z"
   id="path18"
   inkscape:connector-curvature="0"
   style="fill:#ba83aa" />
		</g>
		<g
   id="g24">
			<path
   class="st2"
   d="m 43.272217,46.508251 c -0.180176,0 -0.362793,-0.03125 -0.540039,-0.09668 -2.651368,-0.980468 -4.16211,-3.390625 -3.850098,-6.140625 0.303711,-2.669921 2.354492,-4.811035 4.986328,-5.206543 2.836426,-0.428222 5.32666,1.118165 6.48877,4.035157 0.308593,0.773926 -0.0459,1.65332 -0.804688,1.99707 -2.200683,0.997559 -3.803711,2.495606 -4.900391,4.578613 -0.276367,0.525391 -0.815429,0.833008 -1.379882,0.833008 z m 1.493164,-8.393555 c -0.141602,0 -0.285645,0.01074 -0.433106,0.03271 -1.240234,0.186524 -2.207031,1.20459 -2.351562,2.475586 -0.102051,0.894043 0.165527,1.658203 0.749512,2.211426 1.057617,-1.538086 2.402832,-2.803711 4.020507,-3.781738 -0.532714,-0.612305 -1.213867,-0.937989 -1.985351,-0.937989 z"
   id="path22"
   inkscape:connector-curvature="0"
   style="fill:#ba83aa" />
		</g>
		<g
   id="g28">
			<path
   class="st3"
   d="m 95.3479,58.209423 c -0.526855,0 -1.062011,-0.03272 -1.604003,-0.100098 C 87.70874,57.358837 83.182861,51.671337 83.654541,45.431103 84.027588,40.496044 87.72583,36.2104 92.648193,35.009228 c 0.105957,-0.02588 1.092286,-0.256836 2.602051,-0.256836 1.482422,0 2.501953,0.202637 2.613281,0.226074 0.01465,0.0029 0.02979,0.0063 0.04443,0.0098 6.192385,1.475097 10.152835,7.38623 9.016115,13.457031 -1.09668,5.861816 -5.83935,9.76416 -11.576174,9.76416 z M 95.25024,37.870556 c -1.132324,0 -1.861816,0.167969 -1.86914,0.169433 -3.621094,0.88379 -6.344727,4.020508 -6.617188,7.626465 -0.348633,4.606446 2.955566,8.800293 7.364746,9.348145 4.754395,0.594726 8.845712,-2.413086 9.730962,-7.142578 0.81396,-4.351075 -2.16455,-8.759766 -6.644048,-9.843262 -0.127441,-0.02393 -0.895996,-0.158203 -1.965332,-0.158203 z"
   id="path26"
   inkscape:connector-curvature="0"
   style="fill:#e6427c" />
		</g>
		<g
   id="g32">
			<path
   class="st2"
   d="m 87.140381,109.59028 h -32.16211 c -0.860839,0 -1.559081,-0.69824 -1.559081,-1.55908 V 91.710884 h -1.388184 c -0.86084,0 -1.559082,-0.698242 -1.559082,-1.559082 V 87.18354 c 0,-0.860839 0.698242,-1.559082 1.559082,-1.559082 h 38.122559 c 0.860839,0 1.559082,0.698243 1.559082,1.559082 v 2.898438 c 0,0.86084 -0.698243,1.559082 -1.559082,1.559082 h -1.454102 v 16.39014 c 0,0.86084 -0.698242,1.55908 -1.559082,1.55908 z M 56.537354,106.47211 H 85.581299 V 90.081978 c 0,-0.569336 0.305176,-1.067383 0.760742,-1.339356 H 55.64624 c 0.526856,0.25 0.891114,0.78711 0.891114,1.40918 z"
   id="path30"
   inkscape:connector-curvature="0"
   style="fill:#ba83aa" />
		</g>
		<g
   id="g36">
			<path
   class="st3"
   d="m 48.9104,105.59126 c -0.55957,0 -1.100097,-0.30176 -1.379882,-0.83057 l -0.913575,-1.72705 C 42.326416,94.935982 41.237549,87.263619 43.28833,79.577583 c 0.222168,-0.832031 1.075195,-1.328613 1.908203,-1.104492 0.832032,0.222168 1.32666,1.076172 1.104492,1.908203 -1.838378,6.890625 -0.833984,13.822266 3.07129,21.192386 l 0.915039,1.729 c 0.402343,0.76123 0.111816,1.70459 -0.649414,2.10742 -0.232422,0.12256 -0.481934,0.18116 -0.72754,0.18116 z"
   id="path34"
   inkscape:connector-curvature="0"
   style="fill:#e6427c" />
		</g>
		<g
   id="g40">
			<path
   class="st3"
   d="m 22.374754,75.485298 c -0.15625,0 -0.314941,-0.02393 -0.47168,-0.07324 -0.820801,-0.260254 -1.27539,-1.136719 -1.015136,-1.957519 1.996093,-6.295899 6.750488,-14.514645 10.950683,-16.814938 5.31592,-2.910645 10.754885,-2.103516 14.918459,2.215332 0.956055,0.990723 1.598145,2.229004 2.164063,3.321777 l 0.06445,0.124512 c 0.912109,1.758785 1.71875,3.919918 -0.266114,7.315426 -0.435058,0.743652 -1.390136,0.994629 -2.132812,0.55957 -0.743652,-0.43457 -0.993652,-1.389648 -0.55957,-2.132812 1.222168,-2.090821 0.868652,-2.998536 0.190429,-4.306637 l -0.06445,-0.125488 c -0.491211,-0.947754 -0.999023,-1.927735 -1.640136,-2.591797 -3.206055,-3.324707 -7.069336,-3.893067 -11.176758,-1.64502 -2.984866,1.634766 -7.501467,8.794918 -9.475588,15.022457 -0.210449,0.664063 -0.824707,1.088379 -1.48584,1.088379 z"
   id="path38"
   inkscape:connector-curvature="0"
   style="fill:#e6427c" />
		</g>
		<g
   id="g44">
			<path
   class="st3"
   d="m 119.51831,72.101509 c -0.67773,0 -1.30127,-0.445312 -1.49756,-1.129394 -1.53613,-5.350586 -4.2583,-10.092282 -6.77344,-11.799313 -3.82714,-2.597168 -7.45703,-2.505859 -11.09765,0.273926 -2.216799,1.693847 -2.823244,3.625488 -2.027834,6.459469 0.23291,0.829101 -0.250488,1.689453 -1.07959,1.922363 -0.827148,0.23291 -1.689453,-0.250977 -1.922363,-1.07959 -1.132813,-4.034176 -0.07715,-7.324703 3.137207,-9.779781 4.70752,-3.596192 9.80566,-3.725586 14.74121,-0.376465 3.16992,2.151367 6.24317,7.331543 8.01953,13.519039 0.2378,0.827637 -0.24072,1.690918 -1.06836,1.928711 -0.14355,0.04102 -0.28857,0.06103 -0.43115,0.06103 z"
   id="path42"
   inkscape:connector-curvature="0"
   style="fill:#e6427c" />
		</g>
		<g
   id="g48">
			<path
   class="st3"
   d="m 93.017334,101.40131 c -0.273437,0 -0.550781,-0.0718 -0.802246,-0.22314 -0.737793,-0.44385 -0.976074,-1.401856 -0.532227,-2.139649 l 0.249512,-0.42041 c 0.171387,-0.290528 0.320801,-0.542481 0.480957,-0.787598 3.075195,-4.691895 4.752441,-8.834473 5.278809,-13.036621 0.255859,-2.041504 0.217285,-4.17627 0.155273,-5.808106 -0.03272,-0.860351 0.638672,-1.584472 1.499023,-1.617187 0.864255,-0.02295 1.584475,0.638672 1.617185,1.499023 0.0664,1.75 0.10645,4.049317 -0.17773,6.313965 -0.5874,4.691406 -2.419435,9.253418 -5.764162,14.35791 -0.134765,0.205567 -0.259277,0.417969 -0.402832,0.661623 l -0.26416,0.44482 c -0.29248,0.48633 -0.808593,0.75537 -1.337402,0.75537 z"
   id="path46"
   inkscape:connector-curvature="0"
   style="fill:#e6427c" />
		</g>
		<g
   id="g52">
			<path
   class="st3"
   d="m 71.942139,83.592232 c -0.611817,0 -1.663086,-0.132813 -2.572754,-0.912598 -0.969727,-0.831055 -1.461914,-2.09375 -1.461914,-3.75293 0,-1.832031 0.762695,-2.926269 1.402832,-3.521484 1.338379,-1.245117 3.139648,-1.312012 3.712402,-1.29541 5.459961,-0.574219 10.878418,-1.184082 16.10791,-1.813965 0.254883,-0.03076 0.607422,-0.195313 0.837891,-0.391113 3.149414,-2.675293 6.273926,-5.378907 9.398437,-8.082516 l 1.992677,-1.723633 c 0.65137,-0.5625 1.63623,-0.491699 2.19873,0.159668 0.56348,0.651367 0.4917,1.635742 -0.15967,2.198727 l -1.9917,1.723144 c -3.131345,2.709961 -6.263181,5.419434 -9.419431,8.100586 -0.696289,0.592285 -1.625,1.007324 -2.483887,1.11084 -5.28125,0.635742 -10.754394,1.251953 -16.267578,1.831055 -0.09131,0.01025 -0.182129,0.01074 -0.276367,0.0049 -0.265625,-0.01611 -1.083985,0.0415 -1.53418,0.46875 -0.09863,0.09375 -0.399902,0.379882 -0.399902,1.230468 0,0.677246 0.135742,1.182129 0.373047,1.385254 0.210937,0.181153 0.563964,0.166016 0.565429,0.166016 0.05273,-0.0083 0.106446,-0.01367 0.160157,-0.0166 0.26416,-0.01318 0.528808,-0.02295 0.793457,-0.03223 0.537597,-0.01953 1.074707,-0.0376 1.60791,-0.0957 l 0.94873,-0.103516 c 5.12793,-0.560547 10.430176,-1.139648 15.633789,-1.766113 0.633301,-0.07617 1.21045,-0.26709 1.471192,-0.486328 4.041504,-3.396485 8.102054,-6.915528 12.028804,-10.31836 l 1.08887,-0.943848 c 0.65137,-0.563964 1.63574,-0.493652 2.19922,0.157227 0.56397,0.650879 0.49365,1.635254 -0.15723,2.199219 l -1.08886,0.943848 c -3.93555,3.410644 -8.004886,6.9375 -12.063968,10.348144 -0.942383,0.792969 -2.208985,1.088379 -3.105469,1.195801 -5.220215,0.628418 -10.53125,1.208984 -15.66748,1.770019 l -0.948731,0.103516 c -0.626953,0.06885 -1.241211,0.09082 -1.834473,0.111816 -0.233398,0.0088 -0.466308,0.01709 -0.69873,0.02832 -0.08984,0.0093 -0.223145,0.01904 -0.38916,0.01904 z"
   id="path50"
   inkscape:connector-curvature="0"
   style="fill:#e6427c" />
		</g>
		<g
   id="g56">
			<path
   class="st3"
   d="m 54.429443,62.670849 c -0.03076,0 -0.06103,-4.89e-4 -0.0918,-4.89e-4 -6.419433,-0.04883 -11.608398,-5.366699 -11.566894,-11.854003 0.02002,-3.132325 1.257324,-6.064454 3.484863,-8.256836 2.225586,-2.190918 5.169922,-3.383301 8.318848,-3.366211 3.153809,0.02051 6.09082,1.250976 8.270019,3.464844 2.200196,2.235351 3.395508,5.231933 3.365723,8.438476 -0.06006,6.400391 -5.336426,11.573731 -11.780762,11.574219 z m 0.06641,-20.359863 c -2.285645,0 -4.433106,0.875976 -6.053223,2.470703 -1.632324,1.606933 -2.539063,3.756836 -2.553711,6.054199 -0.03027,4.770508 3.770019,8.680664 8.472168,8.716308 4.759766,0.05176 8.687012,-3.770019 8.730957,-8.484863 0.02246,-2.371582 -0.85498,-4.581543 -2.469727,-6.222168 -1.59375,-1.61914 -3.748535,-2.519043 -6.068359,-2.533691 v 0 c -0.01904,0 -0.03857,-4.88e-4 -0.05811,-4.88e-4 z"
   id="path54"
   inkscape:connector-curvature="0"
   style="fill:#e6427c" />
		</g>
		<g
   id="g60">
			<path
   class="st3"
   d="m 52.187256,82.291939 c -0.220215,0 -0.438965,-0.04687 -0.641602,-0.138184 -0.09521,-0.04297 -0.211426,-0.0835 -0.338379,-0.129883 -0.482422,-0.176269 -1.143066,-0.417968 -1.737304,-0.877929 -4.21875,-3.262696 -8.612305,-6.709961 -13.058106,-10.245606 -1.081055,-0.859375 -1.753906,-2.027344 -1.895019,-3.288086 -0.136231,-1.217285 0.231445,-2.439941 1.035644,-3.442383 1.655762,-2.06689 4.554688,-2.339351 6.740723,-0.635738 4.446289,3.464352 7.86084,6.153805 11.070801,8.720211 0.208984,0.167481 0.242187,0.174316 0.504882,0.112305 3.097168,-0.743164 6.200196,-1.464844 9.303223,-2.187012 l 3.228516,-0.751953 c 1.559082,-0.365234 3.053222,-0.165527 4.206054,0.561035 1.007813,0.634766 1.71045,1.653321 1.978028,2.868164 0.59082,2.680176 -1.028321,5.03418 -3.9375,5.72461 -4.730469,1.123047 -9.465821,2.229004 -14.200196,3.335449 l -0.529785,0.123535 c -0.265136,0.06201 -0.536621,0.101563 -0.908691,0.151367 l -0.589844,0.08301 c -0.07666,0.01123 -0.154297,0.01709 -0.231445,0.01709 z M 39.161865,65.525825 c -0.446289,0 -0.859863,0.199219 -1.176758,0.594727 -0.285644,0.356445 -0.413574,0.751953 -0.369628,1.144531 0.04932,0.4375 0.30371,0.850586 0.736816,1.194825 4.435059,3.526855 8.817383,6.965332 13.025391,10.219726 0.211914,0.164063 0.577636,0.297852 0.90039,0.415527 0.03272,0.01221 0.06543,0.02393 0.09717,0.03565 0.07764,-0.01025 0.149902,-0.02002 0.21875,-0.0293 0.250977,-0.03369 0.43457,-0.05518 0.61377,-0.09717 l 0.529785,-0.124023 c 4.730957,-1.104981 9.462402,-2.21045 14.189453,-3.333008 0.730469,-0.172852 1.911133,-0.666016 1.612793,-2.019531 -0.08936,-0.405274 -0.289551,-0.708497 -0.595215,-0.900879 -0.441406,-0.278321 -1.094238,-0.33545 -1.834961,-0.163086 l -3.230957,0.752929 c -3.096191,0.720215 -6.192383,1.440918 -9.283203,2.182129 -1.20459,0.288086 -2.213379,0.0625 -3.178711,-0.708984 -3.199707,-2.558106 -6.604492,-5.240234 -11.039551,-8.695801 -0.401855,-0.312988 -0.821289,-0.468262 -1.215332,-0.468262 z"
   id="path58"
   inkscape:connector-curvature="0"
   style="fill:#e6427c" />
		</g>
	</g>
</g>
<g
   id="g66"
   transform="translate(0,-21.133176)">
</g>
<g
   id="g68"
   transform="translate(0,-21.133176)">
</g>
<g
   id="g70"
   transform="translate(0,-21.133176)">
</g>
<g
   id="g72"
   transform="translate(0,-21.133176)">
</g>
<g
   id="g74"
   transform="translate(0,-21.133176)">
</g>
<g
   id="g76"
   transform="translate(0,-21.133176)">
</g>
</svg>