<?xml version="1.0" encoding="utf-8"?>
<!-- Generator: Adobe Illustrator 21.0.1, SVG Export Plug-In . SVG Version: 6.00 Build 0)  -->
<svg version="1.1" id="Слой_1" xmlns="http://www.w3.org/2000/svg" xmlns:xlink="http://www.w3.org/1999/xlink" x="0px" y="0px"
	 viewBox="0 0 143.1818237 131.8181763" style="enable-background:new 0 0 143.1818237 131.8181763;" xml:space="preserve">
<style type="text/css">
	.st0{fill:#FFFFFF;}
	.st1{fill:#E7447C;}
	.st2{fill:#BA83AA;}
	.st3{fill:#E6427C;}
</style>
<g>
	<g>
		<g>
			<path class="st0" d="M101.9519196,123.4554367H39.8314209c-13.410553,0-24.2819557-10.8713989-24.2819557-24.2819595V37.0529823
				c0-13.410553,10.8714027-24.2819557,24.2819557-24.2819557h62.1204987c13.410553,0,24.2819519,10.8714027,24.2819519,24.2819557
				v62.1204948C126.2338715,112.5840378,115.3624725,123.4554367,101.9519196,123.4554367z"/>
		</g>
		<g>
			<g>
				<g>
					<path class="st1" d="M104.6245804,123.455513H37.1587601c-11.9155273,0-21.609375-9.6938477-21.609375-21.609375V34.3803215
						c0-11.9155273,9.6938477-21.609375,21.609375-21.609375h67.4658203c11.9155273,0,21.609375,9.6938477,21.609375,21.609375
						v67.4658203C126.2339554,113.7616653,116.5401077,123.455513,104.6245804,123.455513z M37.1587601,16.4555168
						c-9.8837891,0-17.9248047,8.0410156-17.9248047,17.9248047v67.4658203c0,9.8837891,8.0410156,17.9248047,17.9248047,17.9248047
						h67.4658203c9.8837891,0,17.9248047-8.0410156,17.9248047-17.9248047V34.3803215
						c0-9.8837891-8.0410156-17.9248047-17.9248047-17.9248047H37.1587601z"/>
				</g>
			</g>
		</g>
	</g>
	<g>
		<g>
			<path class="st2" d="M68.8703613,72.71772c-0.2841797,0-0.5844727-0.043457-0.8896484-0.1542969
				c-0.7788086-0.2827148-1.3710938-0.9213867-1.7602539-1.8984375c-0.184082-0.4628906-0.6557617-1.5063477-1.8554688-3.847168
				c-0.387207-0.7543945-0.0996094-1.6801758,0.6469727-2.0830078l1.4453125-0.7797813
				c0.3676758-0.1987305,0.7993164-0.2412109,1.199707-0.1176758c0.3994141,0.1230469,0.7324219,0.4013634,0.9248047,0.7729454
				c0.4448242,0.8588867,0.980957,1.9487305,1.4941406,2.9936523c0.4628906,0.9414063,0.9067383,1.8452148,1.2456055,2.4995117
				c0.3911133,0.7553711,0.1049805,1.6845703-0.6430664,2.0888672C70.4025879,72.3412552,69.7058105,72.71772,68.8703613,72.71772z"
				/>
		</g>
		<g>
			<path class="st2" d="M43.2722168,46.5082512c-0.1801758,0-0.362793-0.03125-0.5400391-0.0966797
				c-2.6513672-0.9804688-4.1621094-3.390625-3.8500977-6.140625c0.3037109-2.6699219,2.3544922-4.8110352,4.9863281-5.206543
				c2.8364258-0.4282227,5.3266602,1.1181641,6.4887695,4.0351563c0.3085938,0.7739258-0.0458984,1.6533203-0.8046875,1.9970703
				c-2.2006836,0.9975586-3.8037109,2.4956055-4.9003906,4.5786133
				C44.3757324,46.200634,43.8366699,46.5082512,43.2722168,46.5082512z M44.7653809,38.1146965
				c-0.1416016,0-0.2856445,0.0107422-0.4331055,0.0327148c-1.2402344,0.1865234-2.2070313,1.2045898-2.3515625,2.4755859
				c-0.1020508,0.894043,0.1655273,1.6582031,0.7495117,2.2114258c1.0576172-1.5380859,2.402832-2.8037109,4.0205078-3.7817383
				C46.2180176,38.4403801,45.5368652,38.1146965,44.7653809,38.1146965z"/>
		</g>
		<g>
			<path class="st3" d="M95.3479004,58.2094231c-0.5268555,0-1.0620117-0.0327148-1.6040039-0.1000977
				c-6.0351563-0.7504883-10.5610352-6.4379883-10.0893555-12.6782227c0.3730469-4.9350586,4.0712891-9.2207031,8.9936523-10.421875
				c0.105957-0.0258789,1.0922852-0.2568359,2.6020508-0.2568359c1.4824219,0,2.5019531,0.2026367,2.6132813,0.2260742
				c0.0146484,0.0029297,0.0297852,0.0063477,0.0444336,0.0097656c6.1923828,1.4750977,10.152832,7.3862305,9.0161133,13.4570313
				C105.8273926,54.3070793,101.0847168,58.2094231,95.3479004,58.2094231z M95.2502441,37.8705559
				c-1.1323242,0-1.8618164,0.1679688-1.8691406,0.1694336c-3.6210938,0.8837891-6.3447266,4.0205078-6.6171875,7.6264648
				c-0.3486328,4.6064453,2.9555664,8.800293,7.3647461,9.3481445c4.7543945,0.5947266,8.8457031-2.4130859,9.730957-7.1425781
				c0.8139648-4.3510742-2.1645508-8.7597656-6.644043-9.8432617
				C97.0881348,38.0048332,96.3195801,37.8705559,95.2502441,37.8705559z"/>
		</g>
		<g>
			<path class="st2" d="M87.1403809,109.5902786H54.9782715c-0.8608398,0-1.559082-0.6982422-1.559082-1.559082V91.7108841
				h-1.3881836c-0.8608398,0-1.559082-0.6982422-1.559082-1.559082v-2.9682617c0-0.8608398,0.6982422-1.559082,1.559082-1.559082
				h38.1225586c0.8608398,0,1.559082,0.6982422,1.559082,1.559082v2.8984375c0,0.8608398-0.6982422,1.559082-1.559082,1.559082
				h-1.4541016v16.3901367C88.6994629,108.8920364,88.0012207,109.5902786,87.1403809,109.5902786z M56.5373535,106.4721146
				h29.0439453V90.0819778c0-0.5693359,0.3051758-1.0673828,0.7607422-1.3393555H55.6462402
				c0.5268555,0.25,0.8911133,0.7871094,0.8911133,1.4091797V106.4721146z"/>
		</g>
		<g>
			<path class="st3" d="M48.9104004,105.5912552c-0.5595703,0-1.1000977-0.3017578-1.3798828-0.8305664l-0.9135742-1.7270508
				c-4.2905273-8.0976563-5.3793945-15.7700195-3.3286133-23.4560547c0.222168-0.8320313,1.0751953-1.3286133,1.9082031-1.1044922
				c0.8320313,0.222168,1.3266602,1.0761719,1.1044922,1.9082031c-1.8383789,6.890625-0.8339844,13.8222656,3.0712891,21.1923828
				l0.9150391,1.7290039c0.4023438,0.7612305,0.1118164,1.7045898-0.6494141,2.1074219
				C49.4055176,105.5326614,49.1560059,105.5912552,48.9104004,105.5912552z"/>
		</g>
		<g>
			<path class="st3" d="M22.374754,75.4852982c-0.15625,0-0.3149414-0.0239258-0.4716797-0.0732422
				c-0.8208008-0.2602539-1.2753906-1.1367188-1.0151367-1.9575195c1.9960938-6.2958984,6.7504883-14.5146446,10.9506836-16.8149376
				c5.3159199-2.9106445,10.7548847-2.1035156,14.9184589,2.215332c0.9560547,0.9907227,1.5981445,2.2290039,2.1640625,3.3217773
				l0.0644531,0.1245117c0.9121094,1.7587852,1.71875,3.9199181-0.2661133,7.3154259
				c-0.4350586,0.7436523-1.3901367,0.9946289-2.1328125,0.5595703c-0.7436523-0.4345703-0.9936523-1.3896484-0.5595703-2.1328125
				c1.222168-2.0908203,0.8686523-2.9985352,0.1904297-4.3066368l-0.0644531-0.1254883
				c-0.4912109-0.9477539-0.9990234-1.9277344-1.6401367-2.5917969c-3.2060547-3.324707-7.0693359-3.8930664-11.1767578-1.6450195
				c-2.9848652,1.6347656-7.5014668,8.7949181-9.4755878,15.0224571
				C23.6501446,75.0609818,23.0358868,75.4852982,22.374754,75.4852982z"/>
		</g>
		<g>
			<path class="st3" d="M119.5183105,72.1015091c-0.6777344,0-1.3012695-0.4453125-1.4975586-1.1293945
				c-1.5361328-5.3505859-4.2583008-10.0922813-6.7734375-11.7993126c-3.8271484-2.597168-7.4570313-2.5058594-11.0976563,0.2739258
				c-2.2167969,1.6938477-2.8232422,3.6254883-2.027832,6.4594688c0.2329102,0.8291016-0.2504883,1.6894531-1.0795898,1.9223633
				c-0.8271484,0.2329102-1.6894531-0.2509766-1.9223633-1.0795898c-1.1328125-4.0341759-0.0771484-7.3247032,3.137207-9.7797813
				c4.7075195-3.5961914,9.8056641-3.7255859,14.7412109-0.3764648c3.1699219,2.1513672,6.2431641,7.331543,8.0195313,13.5190392
				c0.237793,0.8276367-0.2407227,1.690918-1.0683594,1.9287109
				C119.8059082,72.0814896,119.6608887,72.1015091,119.5183105,72.1015091z"/>
		</g>
		<g>
			<path class="st3" d="M93.017334,101.4013138c-0.2734375,0-0.5507813-0.0717773-0.8022461-0.2231445
				c-0.737793-0.4438477-0.9760742-1.4018555-0.5322266-2.1396484l0.2495117-0.4204102
				c0.1713867-0.2905273,0.3208008-0.5424805,0.480957-0.7875977c3.0751953-4.6918945,4.7524414-8.8344727,5.2788086-13.0366211
				c0.2558594-2.0415039,0.2172852-4.1762695,0.1552734-5.8081055c-0.0327148-0.8603516,0.6386719-1.5844727,1.4990234-1.6171875
				c0.8642578-0.0229492,1.5844727,0.6386719,1.6171875,1.4990234c0.0664063,1.75,0.1064453,4.0493164-0.1777344,6.3139648
				c-0.5874023,4.6914063-2.4194336,9.253418-5.7641602,14.3579102c-0.1347656,0.2055664-0.2592773,0.4179688-0.402832,0.6616211
				l-0.2641602,0.4448242C94.0622559,101.1322708,93.5461426,101.4013138,93.017334,101.4013138z"/>
		</g>
		<g>
			<path class="st3" d="M71.9421387,83.5922318c-0.6118164,0-1.6630859-0.1328125-2.5727539-0.9125977
				c-0.9697266-0.8310547-1.4619141-2.09375-1.4619141-3.7529297c0-1.8320313,0.7626953-2.9262695,1.402832-3.5214844
				c1.3383789-1.2451172,3.1396484-1.3120117,3.7124023-1.2954102c5.4599609-0.5742188,10.878418-1.184082,16.1079102-1.8139648
				c0.2548828-0.0307617,0.6074219-0.1953125,0.8378906-0.3911133c3.1494141-2.675293,6.2739258-5.3789063,9.3984375-8.0825157
				l1.9926758-1.7236328c0.6513672-0.5625,1.6362305-0.4916992,2.1987305,0.159668
				c0.5634766,0.6513672,0.4916992,1.6357422-0.159668,2.1987267l-1.9916992,1.7231445
				c-3.1313477,2.7099609-6.2631836,5.4194336-9.4194336,8.1005859c-0.6962891,0.5922852-1.625,1.0073242-2.4838867,1.1108398
				c-5.28125,0.6357422-10.7543945,1.2519531-16.2675781,1.8310547c-0.0913086,0.0102539-0.1821289,0.0107422-0.2763672,0.0048828
				c-0.265625-0.0161133-1.0839844,0.0415039-1.5341797,0.46875c-0.0986328,0.09375-0.3999023,0.3798828-0.3999023,1.2304688
				c0,0.6772461,0.1357422,1.1821289,0.3730469,1.3852539c0.2109375,0.1811523,0.5639648,0.1660156,0.5654297,0.1660156
				c0.0527344-0.0083008,0.1064453-0.0136719,0.1601563-0.0166016c0.2641602-0.0131836,0.5288086-0.0229492,0.793457-0.0322266
				c0.5375977-0.0195313,1.074707-0.0375977,1.6079102-0.0957031l0.9487305-0.1035156
				c5.1279297-0.5605469,10.4301758-1.1396484,15.6337891-1.7661133c0.6333008-0.0761719,1.2104492-0.2670898,1.4711914-0.4863281
				c4.0415039-3.3964844,8.1020508-6.9155273,12.0288086-10.3183594l1.0888672-0.9438477
				c0.6513672-0.5639648,1.6357422-0.4936523,2.1992188,0.1572266c0.5639648,0.6508789,0.4936523,1.6352539-0.1572266,2.1992188
				l-1.0888672,0.9438477c-3.9355469,3.4106445-8.0048828,6.9375-12.0639648,10.3481445
				c-0.9423828,0.7929688-2.2089844,1.0883789-3.1054688,1.1958008c-5.2202148,0.628418-10.53125,1.2089844-15.6674805,1.7700195
				l-0.9487305,0.1035156c-0.6269531,0.0688477-1.2412109,0.0908203-1.8344727,0.1118164
				c-0.2333984,0.0087891-0.4663086,0.0170898-0.6987305,0.0283203
				C72.2414551,83.5824661,72.1081543,83.5922318,71.9421387,83.5922318z"/>
		</g>
		<g>
			<path class="st3" d="M54.4294434,62.6708488c-0.0307617,0-0.0610352-0.0004883-0.0917969-0.0004883
				c-6.4194336-0.0488281-11.6083984-5.3666992-11.5668945-11.8540039c0.0200195-3.1323242,1.2573242-6.0644531,3.4848633-8.2568359
				c2.2255859-2.190918,5.1699219-3.3833008,8.3188477-3.3662109c3.1538086,0.0205078,6.0908203,1.2509766,8.2700195,3.4648438
				c2.2001953,2.2353516,3.3955078,5.2319336,3.3657227,8.4384766
				C66.1501465,57.4970207,60.8737793,62.6703606,54.4294434,62.6708488z M54.4958496,42.3109856
				c-2.2856445,0-4.4331055,0.8759766-6.0532227,2.4707031c-1.6323242,1.6069336-2.5390625,3.7568359-2.5537109,6.0541992
				c-0.0302734,4.7705078,3.7700195,8.6806641,8.472168,8.7163086c4.7597656,0.0517578,8.6870117-3.7700195,8.730957-8.4848633
				c0.0224609-2.371582-0.8549805-4.581543-2.4697266-6.222168c-1.59375-1.6191406-3.7485352-2.519043-6.0683594-2.5336914l0,0
				C54.5349121,42.3114738,54.5153809,42.3109856,54.4958496,42.3109856z"/>
		</g>
		<g>
			<path class="st3" d="M52.1872559,82.2919388c-0.2202148,0-0.4389648-0.046875-0.6416016-0.1381836
				c-0.0952148-0.0429688-0.2114258-0.0834961-0.3383789-0.1298828c-0.4824219-0.1762695-1.1430664-0.4179688-1.7373047-0.8779297
				c-4.21875-3.2626953-8.6123047-6.7099609-13.0581055-10.2456055c-1.0810547-0.859375-1.7539063-2.0273438-1.8950195-3.2880859
				c-0.1362305-1.2172852,0.2314453-2.4399414,1.0356445-3.4423828c1.6557617-2.0668907,4.5546875-2.3393517,6.7407227-0.6357384
				c4.4462891,3.4643517,7.8608398,6.1538048,11.0708008,8.720211c0.2089844,0.1674805,0.2421875,0.1743164,0.5048828,0.1123047
				c3.097168-0.7431641,6.2001953-1.4648438,9.3032227-2.1870117l3.2285156-0.7519531
				c1.559082-0.3652344,3.0532227-0.1655273,4.2060547,0.5610352c1.0078125,0.6347656,1.7104492,1.6533203,1.9780273,2.8681641
				c0.5908203,2.6801758-1.0283203,5.0341797-3.9375,5.7246094c-4.7304688,1.1230469-9.4658203,2.2290039-14.2001953,3.3354492
				l-0.5297852,0.1235352c-0.2651367,0.0620117-0.5366211,0.1015625-0.9086914,0.1513672l-0.5898438,0.0830078
				C52.342041,82.2860794,52.2644043,82.2919388,52.1872559,82.2919388z M39.1618652,65.5258255
				c-0.4462891,0-0.8598633,0.1992188-1.1767578,0.5947266c-0.2856445,0.3564453-0.4135742,0.7519531-0.3696289,1.1445313
				c0.0493164,0.4375,0.3037109,0.8505859,0.7368164,1.1948242c4.4350586,3.5268555,8.8173828,6.965332,13.0253906,10.2197266
				c0.2119141,0.1640625,0.5776367,0.2978516,0.9003906,0.4155273c0.0327148,0.012207,0.0654297,0.0239258,0.097168,0.0356445
				c0.0776367-0.0102539,0.1499023-0.0200195,0.21875-0.0292969c0.2509766-0.0336914,0.4345703-0.0551758,0.6137695-0.097168
				l0.5297852-0.1240234c4.730957-1.1049805,9.4624023-2.2104492,14.1894531-3.3330078
				c0.7304688-0.1728516,1.9111328-0.6660156,1.612793-2.0195313c-0.0893555-0.4052734-0.2895508-0.7084961-0.5952148-0.9008789
				c-0.4414063-0.2783203-1.0942383-0.3354492-1.8349609-0.1630859l-3.230957,0.7529297
				c-3.0961914,0.7202148-6.1923828,1.440918-9.2832031,2.1821289c-1.2045898,0.2880859-2.2133789,0.0625-3.1787109-0.7089844
				c-3.199707-2.5581055-6.6044922-5.2402344-11.0395508-8.6958008
				C39.9753418,65.6810989,39.5559082,65.5258255,39.1618652,65.5258255z"/>
		</g>
	</g>
</g>
<g>
</g>
<g>
</g>
<g>
</g>
<g>
</g>
<g>
</g>
<g>
</g>
</svg>
