<svg id="Слой_1" xmlns="http://www.w3.org/2000/svg" viewBox="0 0 143.6363678 145"><style>.st0{stroke:#ba83aa;stroke-width:.3567454;stroke-miterlimit:10}.st0,.st1{fill:#ba83aa}.st2{fill:#e6457c}</style><path class="st0" d="M78.968 124.03H57.705a2.14 2.14 0 0 0 0 4.279h21.263a2.14 2.14 0 0 0 0-4.279zm0 0"/><path class="st1" d="M53.957 121.362s-.84 8.81 3.356 9.229 7.551-4.195 6.712-9.23H53.957zm17.2 0s-.84 8.81 3.356 9.229 7.55-4.195 6.712-9.23H71.157zM106.395 7.676L91.712 27.812l15.522 13.424V7.676zm-78.028 0L43.05 27.812 27.528 41.236V7.676zM61.508 63.47l5.873 11.327 6.712-11.747z"/><path class="st2" d="M58.9 63.539l7.173 12.426a1.677 1.677 0 0 0 2.906 0l7.176-12.426a14.449 14.449 0 0 0 10.379 4.392c7.99 0 14.491-6.501 14.491-14.491 0-7.993-6.5-14.495-14.491-14.495-7.992 0-14.493 6.502-14.493 14.495a14.4 14.4 0 0 0 1.939 7.226H61.072a14.395 14.395 0 0 0 1.939-7.226c0-7.993-6.501-14.495-14.491-14.495-7.992 0-14.493 6.502-14.493 14.495 0 7.99 6.5 14.49 14.493 14.49a14.46 14.46 0 0 0 10.38-4.391zm27.634-21.236c6.14 0 11.135 4.995 11.135 11.137 0 6.14-4.995 11.134-11.135 11.134-6.142 0-11.137-4.994-11.137-11.134 0-6.142 4.997-11.137 11.137-11.137zm-14.535 21.72l-4.472 7.747-4.474-7.748H72zM37.383 53.44c0-6.142 4.995-11.139 11.137-11.139 6.14 0 11.135 4.997 11.135 11.139 0 6.14-4.995 11.134-11.135 11.134-6.142 0-11.137-4.994-11.137-11.134zm0 0"/><path class="st2" d="M54.284 53.44a5.774 5.774 0 0 0-5.764-5.767 5.772 5.772 0 0 0-5.765 5.767 5.77 5.77 0 0 0 5.765 5.763 5.772 5.772 0 0 0 5.764-5.763zm-8.173 0c0-1.33 1.08-2.411 2.409-2.411a2.413 2.413 0 0 1 2.408 2.41 2.411 2.411 0 0 1-2.408 2.408 2.41 2.41 0 0 1-2.41-2.407zm40.423 5.763a5.772 5.772 0 0 0 5.765-5.763 5.774 5.774 0 0 0-5.765-5.767 5.772 5.772 0 0 0-5.765 5.767 5.77 5.77 0 0 0 5.765 5.763zm0-8.174a2.413 2.413 0 0 1 2.409 2.41 2.411 2.411 0 0 1-2.409 2.408 2.41 2.41 0 0 1-2.409-2.407c0-1.33 1.08-2.411 2.409-2.411zm0 0"/><path class="st1" d="M76.451 105.866c5.316 0 9.729-3.932 10.486-9.04 5.108-.76 9.041-5.17 9.041-10.486a1.678 1.678 0 0 0-3.356 0c0 3.995-3.251 7.246-7.248 7.246-3.995 0-7.245-3.251-7.245-7.246a1.678 1.678 0 0 0-3.356 0c0 3.995-3.251 7.246-7.248 7.246-3.995 0-7.246-3.251-7.246-7.246a1.677 1.677 0 1 0-3.356 0c0 3.995-3.251 7.246-7.246 7.246-3.996 0-7.247-3.251-7.247-7.246a1.678 1.678 0 0 0-3.356 0c0 5.316 3.933 9.728 9.04 10.486.758 5.108 5.17 9.04 10.487 9.04 3.744 0 7.038-1.952 8.926-4.89 1.886 2.938 5.181 4.89 8.924 4.89zm0-13.814a10.62 10.62 0 0 0 7.084 4.726c-.698 3.27-3.608 5.732-7.084 5.732-3.475 0-6.386-2.461-7.084-5.732a10.623 10.623 0 0 0 7.084-4.726zM58.602 102.51c-3.477 0-6.385-2.461-7.085-5.732a10.623 10.623 0 0 0 7.085-4.726 10.616 10.616 0 0 0 7.085 4.726c-.7 3.27-3.609 5.732-7.085 5.732zm0 0"/><path class="st2" d="M136.426 109.824a1.678 1.678 0 0 0-1.575-1.095h-15.567c-.37 0-.726.12-1.018.343l-14.226 9.683H86.373c7.376-3.156 12.843-8.576 16.536-16.451 3.878-.5 8.247-3.604 11.906-8.53 4.164-5.606 6.758-12.749 7.117-19.595.396-7.532-.944-12.808-4.094-16.128-2.178-2.295-5.127-3.554-8.983-3.83V5.998a1.676 1.676 0 0 0-3-1.031l-15.329 19.67h-46L29.2 4.968a1.678 1.678 0 1 0-3.002 1.03v48.224c-3.855.276-6.805 1.535-8.981 3.83-3.152 3.321-4.49 8.596-4.096 16.13.36 6.846 2.949 13.989 7.104 19.593 3.643 4.915 7.995 8.014 11.864 8.523 1.264 2.717 2.732 5.134 4.41 7.26 3.207 4.06 7.22 7.116 12.097 9.2H20.774c-.526 0-1.021.243-1.337.663l-7.853 10.353a1.678 1.678 0 0 0 1.337 2.693h97.96l11.731 8.186a1.69 1.69 0 0 0 1.393.288 1.681 1.681 0 0 0 1.115-.881l5.448-10.9a1.68 1.68 0 0 0-.492-2.092l-7.19-4.814 13.058-10.575a1.677 1.677 0 0 0 .482-1.854zm-97.294-2.348c-6.445-8.16-9.579-21.203-9.579-39.875a1.678 1.678 0 0 0-3.356 0c0 12.602 1.416 22.796 4.295 30.8-5.943-2.528-13.394-12.493-14.02-24.397-.34-6.473.73-11.064 3.179-13.643 1.814-1.912 4.505-2.843 8.224-2.843.928 0 1.678-.75 1.678-1.678V10.881l12.83 16.467a1.68 1.68 0 0 0 1.324.648h47.64c.518 0 1.004-.24 1.324-.648l12.83-16.465v44.959c0 .926.75 1.678 1.677 1.678 3.72 0 6.41.929 8.225 2.841 2.448 2.58 3.518 7.17 3.178 13.643-.625 11.92-8.104 21.892-14.06 24.403 2.926-8.062 4.334-18.28 4.334-30.804a1.677 1.677 0 1 0-3.356 0c0 35.532-11.153 50.875-37.251 51.153h-1.49c-12.868-.137-21.663-3.73-27.626-11.28zM16.3 129.11l5.306-7h30.835v3.792a6.51 6.51 0 0 0 .843 3.208H16.3zm45.91-3.208a3.21 3.21 0 0 1-3.208 3.208 3.21 3.21 0 0 1-3.205-3.208v-3.791h6.412v3.791zm2.513 3.208a6.514 6.514 0 0 0 .842-3.208v-3.791h3.922v3.791a6.52 6.52 0 0 0 .842 3.208h-5.606zm14.534-3.208a3.211 3.211 0 0 1-3.209 3.208 3.21 3.21 0 0 1-3.205-3.208v-3.791h6.412v3.791h.002zm39.859-4.835a1.676 1.676 0 0 0 .085 2.615l7.74 5.227-3.924 7.851-10.57-7.316a1.672 1.672 0 0 0-1.007-.334H81.77a6.518 6.518 0 0 0 .843-3.208v-3.791h21.994c.367 0 .724-.12 1.017-.343l14.225-9.683h10.473l-11.206 8.982zm0 0"/></svg>