<?xml version="1.0" encoding="utf-8"?>
<!-- Generator: Adobe Illustrator 21.0.1, SVG Export Plug-In . SVG Version: 6.00 Build 0)  -->
<svg version="1.1" id="Слой_1" xmlns="http://www.w3.org/2000/svg" xmlns:xlink="http://www.w3.org/1999/xlink" x="0px" y="0px"
	 viewBox="0 0 143.6363678 145" style="enable-background:new 0 0 143.6363678 145;" xml:space="preserve">
<style type="text/css">
	.st0{fill:#BA83AA;stroke:#BA83AA;stroke-width:0.3567454;stroke-miterlimit:10;}
	.st1{fill:#BA83AA;}
	.st2{fill:#E6457C;}
</style>
<g>
	<path class="st0" d="M78.9677048,124.0300293H57.7054482c-1.1815147,0-2.1398888,0.9583664-2.1398888,2.1386337
		c0,1.1811981,0.958374,2.1399002,2.1398888,2.1399002h21.2622566c1.1799469,0,2.1386337-0.9587021,2.1386337-2.1399002
		C81.1063385,124.9883957,80.1476517,124.0300293,78.9677048,124.0300293L78.9677048,124.0300293z M78.9677048,124.0300293"/>
	<path class="st0" d="M114.8131256,103.2311401"/>
	<path class="st0" d="M111.4876785,77.7662888"/>
	<path class="st1" d="M53.9568634,121.3617325c0,0-0.8390121,8.8096237,3.3560524,9.2291336
		s7.5511055-4.1950607,6.7120934-9.2291336H53.9568634z"/>
	<path class="st1" d="M71.1566162,121.3617325c0,0-0.8390121,8.8096237,3.3560486,9.2291336
		s7.5511093-4.1950607,6.7120972-9.2291336H71.1566162z"/>
	<polygon class="st1" points="106.395134,7.6755676 91.7124176,27.8118629 107.2341461,41.2360611 107.2341461,7.6755676 	"/>
	<polygon class="st1" points="28.3669891,7.6755676 43.0497055,27.8118629 27.527977,41.2360611 27.527977,7.6755676 	"/>
	<polygon class="st1" points="61.5079765,63.4698868 67.3810654,74.7965546 74.0931625,63.0503807 	"/>
	<path class="st2" d="M58.8990631,63.5386925l7.1743927,12.4261894c0.2999573,0.5197678,0.8536911,0.8390121,1.4535904,0.8390121
		c0.5977936,0,1.1519623-0.3192444,1.4519196-0.8390121l7.1756516-12.4261894
		c2.6332245,2.7053947,6.3123016,4.3918114,10.3794174,4.3918114c7.9903336,0,14.4909973-6.5006676,14.4909973-14.4909973
		c0-7.9920158-6.5006638-14.4943619-14.4909973-14.4943619c-7.9920197,0-14.492691,6.502346-14.492691,14.4943619
		c0,2.6302986,0.7081299,5.0978355,1.9385452,7.2268257H61.0721016c1.230835-2.1289902,1.9385452-4.5965271,1.9385452-7.2268257
		c0-7.9920158-6.5006752-14.4943619-14.4910088-14.4943619c-7.9920082,0-14.4926758,6.502346-14.4926758,14.4943619
		c0,7.9903297,6.5006676,14.4909973,14.4926758,14.4909973C52.5850716,67.9305038,56.2641411,66.2440872,58.8990631,63.5386925
		L58.8990631,63.5386925z M86.5340347,42.3028679c6.1402969,0,11.1349564,4.9946442,11.1349564,11.1366386
		c0,6.1403084-4.9946594,11.1349487-11.1349564,11.1349487c-6.141571,0-11.1366425-4.9946404-11.1366425-11.1349487
		C75.3973923,47.2975121,80.3941345,42.3028679,86.5340347,42.3028679L86.5340347,42.3028679z M71.9989853,64.0223846
		l-4.4719391,7.7474365l-4.4736137-7.7474365H71.9989853z M37.3830032,53.4395065
		c0-6.1419945,4.9946518-11.1383133,11.1366348-11.1383133c6.1403122,0,11.1349525,4.9963188,11.1349525,11.1383133
		c0,6.1403084-4.9946404,11.1349487-11.1349525,11.1349487C42.377655,64.5744553,37.3830032,59.5798149,37.3830032,53.4395065
		L37.3830032,53.4395065z M37.3830032,53.4395065"/>
	<path class="st2" d="M54.2844963,53.4395065c0-3.1790199-2.587513-5.7665329-5.7648582-5.7665329
		c-3.1790161,0-5.7648468,2.587513-5.7648468,5.7665329c0,3.1773338,2.5858307,5.7631683,5.7648468,5.7631683
		C51.6969833,59.2026749,54.2844963,56.6168404,54.2844963,53.4395065L54.2844963,53.4395065z M46.1108322,53.4395065
		c0-1.3289986,1.0798187-2.4104843,2.4088058-2.4104843c1.3273201,0,2.4088097,1.0814857,2.4088097,2.4104843
		c0,1.3273087-1.0814896,2.4071198-2.4088097,2.4071198C47.1906509,55.8466263,46.1108322,54.7668152,46.1108322,53.4395065
		L46.1108322,53.4395065z M46.1108322,53.4395065"/>
	<path class="st2" d="M86.5340347,59.2026749c3.17733,0,5.7648468-2.5858345,5.7648468-5.7631683
		c0-3.1790199-2.5875168-5.7665329-5.7648468-5.7665329c-3.1790161,0-5.7648621,2.587513-5.7648621,5.7665329
		C80.7691727,56.6168404,83.3550186,59.2026749,86.5340347,59.2026749L86.5340347,59.2026749z M86.5340347,51.0290222
		c1.3273239,0,2.4087982,1.0814857,2.4087982,2.4104843c0,1.3273087-1.0814743,2.4071198-2.4087982,2.4071198
		c-1.3290024,0-2.4088135-1.0798111-2.4088135-2.4071198C84.1252213,52.110508,85.2050323,51.0290222,86.5340347,51.0290222
		L86.5340347,51.0290222z M86.5340347,51.0290222"/>
	<path class="st1" d="M76.4512024,105.8664474c5.315979,0,9.7287598-3.9328766,10.4859772-9.0407791
		c5.1079102-0.7588959,9.0407715-5.1699829,9.0407715-10.4859772c0-0.9275284-0.7521744-1.6780243-1.6780167-1.6780243
		c-0.927536,0-1.6780319,0.7504959-1.6780319,1.6780243c0,3.9949646-3.2511673,7.2461319-7.2478027,7.2461319
		c-3.9953766,0-7.244873-3.2511673-7.244873-7.2461319c0-0.9275284-0.7521744-1.6780243-1.6780243-1.6780243
		c-0.9275284,0-1.6780243,0.7504959-1.6780243,1.6780243c0,3.9949646-3.2511749,7.2461319-7.247818,7.2461319
		c-3.995369,0-7.2465401-3.2511673-7.2465401-7.2461319c0-0.9275284-0.7504997-1.6780243-1.6780243-1.6780243
		c-0.9258499,0-1.6780243,0.7504959-1.6780243,1.6780243c0,3.9949646-3.2511749,7.2461319-7.2461281,7.2461319
		c-3.9953804,0-7.2465515-3.2511673-7.2465515-7.2461319c0-0.9275284-0.7521744-1.6780243-1.6780319-1.6780243
		c-0.9258423,0-1.6780167,0.7504959-1.6780167,1.6780243c0,5.3159943,3.932869,9.728775,9.0407677,10.4859772
		c0.7572136,5.1079025,5.1699982,9.0407791,10.4859848,9.0407791c3.7445145,0,7.0384712-1.9519577,8.9262505-4.8901825
		C69.4131393,103.9144897,72.7083664,105.8664474,76.4512024,105.8664474L76.4512024,105.8664474z M76.4512024,92.0520935
		c1.5697937,2.4448853,4.1166153,4.2047272,7.084198,4.7261658c-0.6980667,3.2704773-3.6085815,5.732132-7.084198,5.732132
		c-3.4756088,0-6.3861465-2.4616547-7.084198-5.732132C72.3350067,96.2568207,74.8797302,94.4969788,76.4512024,92.0520935
		L76.4512024,92.0520935z M58.6024704,102.5103912c-3.4772873,0-6.3857155-2.4616547-7.0854645-5.732132
		c2.969265-0.5214386,5.5139999-2.2812805,7.0854645-4.7261658c1.5697899,2.4448853,4.114933,4.2047272,7.084198,4.7261658
		C64.9869385,100.0487366,62.0780754,102.5103912,58.6024704,102.5103912L58.6024704,102.5103912z M58.6024704,102.5103912"/>
	<path class="st2" d="M136.4262543,109.8238297c-0.2441559-0.65905-0.8717346-1.094902-1.5748291-1.094902h-15.5678558
		c-0.3687439,0-0.7257538,0.1195602-1.0173111,0.3427277l-14.2263336,9.6828537H86.3733521
		c7.3757629-3.1559372,12.8427658-8.575119,16.5361023-16.4509201c3.8774948-0.4996414,8.2462158-3.6031494,11.9051743-8.5294037
		c4.1640015-5.6058655,6.7582245-12.7487946,7.1169205-19.5951385c0.396431-7.5318146-0.9438934-12.8083611-4.093544-16.128334
		c-2.1776733-2.2942772-5.1272125-3.5540581-8.9833069-3.82967V5.9975429c0-0.7160845-0.4539185-1.3533068-1.1322479-1.5861554
		c-0.6766739-0.2344871-1.4288483-0.0100627-1.8680573,0.5554414L90.5260544,24.637888h-45.999691L29.1992874,4.9668288
		c-0.4404888-0.5655041-1.1909809-0.7899284-1.8697453-0.5554414c-0.6766605,0.2328486-1.1322441,0.8700709-1.1322441,1.5861554
		v48.2234993c-3.8556786,0.2756119-6.8056507,1.5353928-8.9816208,3.82967
		c-3.1513405,3.3216476-4.4899759,8.5965195-4.0952301,16.1295929c0.3591051,6.8467636,2.9482956,13.9896927,7.1039257,19.5938797
		c3.6425648,4.914505,7.9949493,8.0134048,11.8640556,8.5231018c1.2635498,2.716713,2.731823,5.1339035,4.4098473,7.259552
		c3.2067032,4.0603943,7.2201118,7.1165085,12.0968781,9.1993561H20.7739677c-0.5260582,0-1.0210724,0.2441406-1.3373928,0.6636581
		l-7.8527327,10.3534164c-0.3846846,0.5080109-0.4488621,1.1896973-0.1652784,1.7598267
		c0.2835846,0.5705261,0.8650265,0.9325562,1.5026588,0.9325562h97.9600067l11.730957,8.1865387
		c0.2932358,0.2177277,0.6472855,0.3339386,1.0059814,0.3339386c0.1296234,0,0.2592316-0.0146942,0.3867874-0.0457458
		c0.4836807-0.1145172,0.891449-0.4375458,1.1146011-0.8818054l5.4485474-10.8987579
		c0.3620453-0.7257385,0.1556549-1.6058655-0.4916382-2.0924988l-7.1902161-4.8141403l13.0580139-10.5747223
		C136.4770203,111.2233124,136.6687317,110.48246,136.4262543,109.8238297L136.4262543,109.8238297z M39.1315117,107.4756699
		c-6.44487-8.1594009-9.5781631-21.2031021-9.5781631-39.8744812c0-0.9258499-0.7504978-1.6780243-1.6780186-1.6780243
		c-0.9258575,0-1.6780319,0.7521744-1.6780319,1.6780243c0,12.6015472,1.4158344,22.7959747,4.2949066,30.7993088
		c-5.9435692-2.5270996-13.3944111-12.4920502-14.0203171-24.3968048
		c-0.3393898-6.4729767,0.7307816-11.0632133,3.1790199-13.6423378c1.81394-1.912529,4.504652-2.8429947,8.2244225-2.8429947
		c0.9275208,0,1.6780186-0.7504959,1.6780186-1.6780243c0-0.0016785,0-0.0033531,0-0.0067101V10.8810101l12.8293419,16.4673061
		c0.3179779,0.4077549,0.8062897,0.6473103,1.3239594,0.6473103h47.6403809c0.517662,0,1.0042877-0.2395554,1.3239594-0.6473103
		l12.8293228-16.4656029v44.9592972c0,0.9258537,0.7505112,1.6780281,1.6780396,1.6780281
		c3.7197647,0,6.4104614,0.9287872,8.224823,2.8413162c2.4482498,2.5791245,3.5179977,7.1693611,3.1773376,13.6423378
		c-0.6242142,11.9198608-8.1035919,21.8927689-14.0601578,24.4030838c2.9268951-8.0620728,4.334343-18.2795563,4.334343-30.8039093
		c0-0.9275284-0.7504959-1.6780243-1.6780319-1.6780243c-0.9258423,0-1.6780243,0.7504959-1.6780243,1.6780243
		c0,35.5317535-11.1529922,50.8747635-37.2508926,51.1533279h-1.4892349
		C53.8897362,118.6185989,45.0947914,115.0267792,39.1315117,107.4756699L39.1315117,107.4756699z M16.300354,129.1096039
		l5.3059177-6.9990387h30.8349094v3.7919083c0,1.16539,0.3079185,2.2582169,0.8423767,3.2071304H16.300354z M62.2093811,125.9024734
		c0,1.7682266-1.4372177,3.2071304-3.2071266,3.2071304c-1.7682152,0-3.2050247-1.4389038-3.2050247-3.2071304v-3.7919083h6.4121513
		V125.9024734z M64.7230682,129.1096039c0.5344467-0.9489136,0.8423615-2.0417404,0.8423615-3.2071304v-3.7919083h3.9215546
		v3.7919083c0,1.16539,0.3079071,2.2582169,0.8419342,3.2071304H64.7230682z M79.2568588,125.9024734
		c0,1.7682266-1.4389038,3.2071304-3.2088013,3.2071304c-1.7665405,0-3.2050323-1.4389038-3.2050323-3.2071304v-3.7919083h6.4121475
		v3.7919083H79.2568588z M119.1157074,121.0668335c-0.3850861,0.3326645-0.5998764,0.8209763-0.5835266,1.3289948
		c0.0167847,0.5080185,0.262207,0.9816437,0.6687012,1.2861938l7.7406082,5.226944l-3.9244995,7.851059l-10.5705948-7.3160706
		c-0.2902756-0.2181549-0.642662-0.3343506-1.0063782-0.3343506h-29.669487
		c0.5340347-0.9489136,0.8423767-2.0417404,0.8423767-3.2071304v-3.7919083h21.9937668
		c0.3670807,0,0.7244949-0.1195602,1.0177155-0.3423157l14.2246552-9.6832886h10.4729767L119.1157074,121.0668335z
		 M119.1157074,121.0668335"/>
</g>
<g>
</g>
<g>
</g>
<g>
</g>
<g>
</g>
<g>
</g>
<g>
</g>
</svg>
