<svg id="Слой_1" xmlns="http://www.w3.org/2000/svg" viewBox="0 0 143.6363678 145"><style>.st0{fill:#e6427c}.st1,.st2{fill:#ba83aa;stroke:#ba83aa;stroke-miterlimit:10}.st2{fill:none;stroke:#e6427c;stroke-width:2.8232481;stroke-linecap:round;stroke-linejoin:round}</style><path class="st0" d="M58.474 45.988h45.484c1.063 0 1.92-.918 1.92-2.042 0-1.127-.857-2.043-1.92-2.043H58.474c-1.063 0-1.931.916-1.931 2.043 0 1.124.868 2.042 1.931 2.042zm0 0"/><path class="st0" d="M103.958 46.108H58.474c-1.131 0-2.052-.97-2.052-2.162s.92-2.163 2.052-2.163h45.484c1.124 0 2.04.97 2.04 2.163s-.916 2.162-2.04 2.162zm-45.484-4.084c-.999 0-1.811.862-1.811 1.922s.812 1.922 1.811 1.922h45.484c.992 0 1.8-.863 1.8-1.922s-.808-1.922-1.8-1.922H58.474zm0 34.561h45.484c1.063 0 1.92-.918 1.92-2.043 0-1.127-.857-2.042-1.92-2.042H58.474c-1.063 0-1.931.915-1.931 2.042 0 1.125.868 2.043 1.931 2.043zm0 0"/><path class="st0" d="M103.958 76.705H58.474c-1.131 0-2.052-.97-2.052-2.163 0-1.192.92-2.162 2.052-2.162h45.484c1.124 0 2.04.97 2.04 2.162 0 1.193-.916 2.163-2.04 2.163zM58.474 72.62c-.999 0-1.811.863-1.811 1.922s.812 1.922 1.811 1.922h45.484c.992 0 1.8-.862 1.8-1.922s-.808-1.922-1.8-1.922H58.474zm0 34.561h45.484c1.063 0 1.92-.917 1.92-2.042 0-1.127-.857-2.042-1.92-2.042H58.474c-1.063 0-1.931.915-1.931 2.042 0 1.125.868 2.042 1.931 2.042zm0 0"/><path class="st0" d="M103.958 107.302H58.474c-1.131 0-2.052-.97-2.052-2.163s.92-2.163 2.052-2.163h45.484c1.124 0 2.04.97 2.04 2.163s-.916 2.163-2.04 2.163zm-45.484-4.085c-.999 0-1.811.862-1.811 1.922s.812 1.922 1.811 1.922h45.484c.992 0 1.8-.862 1.8-1.922s-.808-1.922-1.8-1.922H58.474z"/><path class="st1" d="M37.392 48.984l4.68-2.598 4.694 2.598-.895-5.508 3.786-3.913-5.238-.796-2.346-5.02-2.335 5.02-5.238.796 3.787 3.913-.895 5.508zm0 30.767l4.68-2.6 4.694 2.6-.895-5.507 3.786-3.906-5.238-.806-2.346-5.02-2.335 5.02-5.238.806 3.787 3.906-.895 5.507zm0 31.502l4.68-2.598 4.694 2.598-.895-5.517 3.786-3.904-5.238-.806-2.346-5.01-2.335 5.01-5.238.806 3.787 3.904-.895 5.517zm0 0"/><path class="st0" d="M110.392 133.587H51.188a1.832 1.832 0 1 1 0-3.665h59.204c5.821 0 10.557-4.736 10.557-10.557v-93.73c0-5.821-4.736-10.557-10.557-10.557a1.832 1.832 0 1 1 0-3.665c7.842 0 14.222 6.38 14.222 14.222v93.73c0 7.842-6.38 14.222-14.222 14.222zm-78.144 0c-7.842 0-14.222-6.38-14.222-14.222v-93.73c0-7.842 6.38-14.222 14.222-14.222h68.372a1.832 1.832 0 1 1 0 3.665H32.248c-5.821 0-10.557 4.736-10.557 10.557v93.73c0 5.82 4.736 10.557 10.557 10.557a1.832 1.832 0 1 1 0 3.665z"/></svg>