<?xml version="1.0" encoding="utf-8"?>
<!-- Generator: Adobe Illustrator 22.1.0, SVG Export Plug-In . SVG Version: 6.00 Build 0)  -->
<svg version="1.1" id="Слой_1" xmlns="http://www.w3.org/2000/svg" xmlns:xlink="http://www.w3.org/1999/xlink" x="0px" y="0px"
	 viewBox="0 0 310 298.9" style="enable-background:new 0 0 310 298.9;" xml:space="preserve">
<style type="text/css">
	.st0{display:none;opacity:0.8;fill:#6E2B99;enable-background:new    ;}
	.st1{display:none;opacity:0.8;fill:#27CE27;enable-background:new    ;}
	.st2{opacity:0.8;fill:#EFF294;enable-background:new    ;}
	.st3{opacity:0.8;fill:#EFA93F;enable-background:new    ;}
	.st4{opacity:0.9;fill:#F563AC;enable-background:new    ;}
	.st5{opacity:0.8;fill:#FFFFFF;enable-background:new    ;}
	.st6{fill:#584550;}
</style>
<rect id="_x35_" y="0.5" class="st0" width="270.3" height="258.9"/>
<rect id="_x34_" x="10" y="9.2" class="st1" width="270.3" height="258.9"/>
<rect id="_x33_" x="19.9" y="1" class="st2" width="270.3" height="258.9"/>
<rect id="_x32_" x="29.5" y="10" class="st3" width="270.3" height="258.9"/>
<rect id="_x31_" x="39.7" y="20.6" class="st4" width="270.3" height="258.9"/>
<path id="top" class="st5" d="M233.8,163H114.7c-28.7,0-52-23.3-52-52l0,0c0-28.7,23.3-52,52-52h119.1c28.7,0,52,23.3,52,52l0,0
	C285.7,139.7,262.5,163,233.8,163z"/>
<path id="buttom" class="st5" d="M240.7,241H105.5c-16.4,0-29.6-13.3-29.6-29.6l0,0c0-16.4,13.3-29.6,29.6-29.6h135.2
	c16.4,0,29.6,13.3,29.6,29.6l0,0C270.3,227.7,257,241,240.7,241z"/>
<g>
	<path class="st6" d="M149.8,110.7c2.7,3,4.1,6.6,4.1,11c0,3.4-0.9,6.5-2.7,9.3c-1.8,2.9-4.5,5.1-8.1,6.8s-8.1,2.6-13.3,2.6
		c-4.1,0-8.1-0.5-12.1-1.6s-7.3-2.6-10.1-4.6l5.2-10.3c2.2,1.7,4.8,2.9,7.7,3.9c2.9,0.9,5.9,1.4,8.9,1.4c3.4,0,6-0.6,8-2
		c1.9-1.3,2.9-3.1,2.9-5.5c0-4.8-3.6-7.1-10.9-7.1h-6.1v-8.9l12-13.5h-24.7V81.4h40.7v8.7L138.1,105
		C143.2,105.9,147.1,107.8,149.8,110.7z"/>
	<path class="st6" d="M188.7,132.9c0,2.1-0.8,3.7-2.4,4.9c-1.6,1.1-3.9,1.7-7.1,1.7h-12.3v-23.1h11.8c2.9,0,5.2,0.5,6.8,1.6
		c1.6,1,2.5,2.5,2.5,4.4c0,1.1-0.3,2.2-0.9,3c-0.6,0.9-1.4,1.6-2.5,2C187.3,128.3,188.7,130.1,188.7,132.9z M173.1,125.8h5.1
		c2.3,0,3.5-0.8,3.5-2.5c0-1.6-1.2-2.5-3.5-2.5h-5.1V125.8z M182.4,132.4c0-0.9-0.3-1.5-0.9-2s-1.5-0.6-2.7-0.6H173v5.1h5.6
		C181.1,134.9,182.4,134.1,182.4,132.4z"/>
	<path class="st6" d="M231.6,81.4v58.1h-13.4V92.2h-11.6V81.4C206.6,81.4,231.6,81.4,231.6,81.4z"/>
</g>
<g>
	<path class="st6" d="M129.5,198.3v25.9h-6v-21.1h-5.2v-4.8L129.5,198.3L129.5,198.3z"/>
	<path class="st6" d="M154.7,213.1c0.7,1,1,2.2,1,3.6c0,1.6-0.5,3-1.4,4.2s-2.2,2.1-3.8,2.8c-1.7,0.7-3.6,1-5.7,1
		c-2.2,0-4.1-0.3-5.7-1c-1.6-0.7-2.9-1.6-3.8-2.8c-0.9-1.2-1.4-2.6-1.4-4.2c0-1.4,0.3-2.6,1-3.6s1.6-1.9,2.9-2.5
		c-1-0.6-1.7-1.3-2.2-2.2s-0.8-1.9-0.8-3.1c0-1.5,0.4-2.8,1.3-3.9c0.8-1.1,2-2,3.5-2.6s3.2-0.9,5.2-0.9s3.7,0.3,5.2,0.9
		c1.5,0.6,2.7,1.5,3.5,2.6s1.3,2.4,1.3,3.9c0,1.2-0.3,2.2-0.8,3.1c-0.5,0.9-1.3,1.6-2.3,2.2C153,211.2,154,212,154.7,213.1z
		 M148.3,219.2c0.9-0.7,1.3-1.6,1.3-2.7c0-1.1-0.4-2-1.3-2.7c-0.9-0.7-2.1-1-3.6-1s-2.7,0.3-3.5,1c-0.9,0.7-1.3,1.6-1.3,2.7
		c0,1.2,0.4,2.1,1.3,2.7c0.9,0.7,2,1,3.5,1S147.4,219.9,148.3,219.2z M141.8,203.1c-0.7,0.6-1.1,1.4-1.1,2.4s0.4,1.8,1.1,2.3
		c0.7,0.6,1.7,0.9,2.9,0.9s2.2-0.3,3-0.9c0.7-0.6,1.1-1.3,1.1-2.3s-0.4-1.8-1.1-2.4c-0.7-0.6-1.7-0.9-3-0.9
		C143.5,202.2,142.6,202.5,141.8,203.1z"/>
	<path class="st6" d="M182.2,222.7v4.5h-1.6v-3h-11.3v3h-1.6v-4.5h0.7c0.8,0,1.4-0.7,1.7-1.9s0.5-2.9,0.6-5l0.2-4.2h9.3v11.1
		L182.2,222.7L182.2,222.7z M171.9,220.3c-0.2,1.2-0.6,2-1.2,2.4h7.9v-9.6h-6.1l-0.1,2.8C172.2,217.7,172.1,219.1,171.9,220.3z"/>
	<path class="st6" d="M185.5,211.6h1.7v5.6h7.9v-5.6h1.7v12.6h-1.7v-5.6h-7.9v5.6h-1.7V211.6z"/>
	<path class="st6" d="M212.7,218.4h-10.6c0.1,1.3,0.6,2.4,1.5,3.2s2.1,1.2,3.5,1.2c0.8,0,1.5-0.1,2.2-0.4c0.7-0.3,1.2-0.7,1.7-1.2
		l1,1.1c-0.6,0.7-1.3,1.2-2.1,1.5c-0.8,0.4-1.8,0.5-2.8,0.5c-1.3,0-2.4-0.3-3.4-0.8s-1.8-1.3-2.3-2.3c-0.6-1-0.8-2.1-0.8-3.3
		s0.3-2.3,0.8-3.3s1.3-1.7,2.2-2.3c0.9-0.5,2-0.8,3.2-0.8s2.2,0.3,3.1,0.8c0.9,0.5,1.7,1.3,2.2,2.3s0.8,2.1,0.8,3.3L212.7,218.4z
		 M203.6,214.1c-0.8,0.8-1.3,1.8-1.4,3h9c-0.1-1.2-0.6-2.3-1.4-3c-0.8-0.8-1.9-1.2-3.1-1.2C205.4,212.9,204.4,213.3,203.6,214.1z"/>
	<path class="st6" d="M216.5,211.6h1.7v10l8.4-10h1.5v12.6h-1.7v-10l-8.4,10h-1.5V211.6z M219.7,208.9c-0.6-0.5-1-1.3-1-2.3h1.2
		c0,0.6,0.2,1.1,0.7,1.5c0.4,0.4,1,0.6,1.7,0.6s1.3-0.2,1.7-0.6c0.4-0.4,0.7-0.9,0.7-1.5h1.2c0,1-0.3,1.8-1,2.3
		c-0.6,0.5-1.5,0.8-2.6,0.8C221.2,209.7,220.3,209.5,219.7,208.9z"/>
</g>
</svg>
