<?xml version="1.0" encoding="UTF-8"?>
<!-- Generator: Adobe Illustrator 22.1.0, SVG Export Plug-In . SVG Version: 6.00 Build 0)  -->
<svg version="1.1" id="Слой_1" xmlns="http://www.w3.org/2000/svg" xmlns:xlink="http://www.w3.org/1999/xlink" x="0px" y="0px" viewBox="0 0 310 298.9" style="enable-background:new 0 0 310 298.9;" xml:space="preserve">
<style type="text/css">
	.st0{display:none;opacity:0.8;fill:#6E2B99;}
	.st1{display:none;opacity:0.8;fill:#27CE27;}
	.st2{display:none;opacity:0.8;fill:#EFF294;}
	.st3{opacity:0.8;fill:#EFA93F;}
	.st4{opacity:0.9;fill:#E17BAE;}
	.st5{opacity:0.8;fill:#FFFFFF;}
	.st6{fill:#584550;}
</style>
<rect id="_x35_" x="0" y="0.5" class="st0" width="270.3" height="258.9"/>
<rect id="_x34_" x="10" y="9.2" class="st1" width="270.3" height="258.9"/>
<rect id="_x33_" x="19.9" y="20" class="st2" width="270.3" height="258.9"/>
<rect id="_x32_" x="29.5" y="0" class="st3" width="270.3" height="258.9"/>
<rect id="_x31_" x="39.7" y="10.6" class="st4" width="270.3" height="258.9"/>
<path id="top" class="st5" d="M233.8,153H114.7c-28.7,0-52-23.3-52-52v0c0-28.7,23.3-52,52-52h119.1c28.7,0,52,23.3,52,52v0  C285.7,129.7,262.5,153,233.8,153z"/>
<path id="buttom" class="st5" d="M240.7,231H105.5c-16.4,0-29.6-13.3-29.6-29.6v0c0-16.4,13.3-29.6,29.6-29.6h135.2  c16.4,0,29.6,13.3,29.6,29.6v0C270.3,217.7,257,231,240.7,231z"/>
<g>
	<path class="st6" d="M154.4,118.5v11h-43.9v-8.7l22.4-21.2c2.4-2.3,4-4.2,4.8-5.9c0.8-1.6,1.2-3.3,1.2-4.9c0-2.3-0.8-4.1-2.4-5.4   c-1.6-1.2-3.9-1.9-6.9-1.9c-2.5,0-4.8,0.5-6.9,1.5c-2,1-3.8,2.4-5.1,4.4l-9.8-6.3c2.3-3.4,5.4-6,9.4-7.9c4-1.9,8.5-2.9,13.7-2.9   c4.3,0,8.1,0.7,11.3,2.1s5.8,3.4,7.6,6c1.8,2.6,2.7,5.6,2.7,9.1c0,3.2-0.7,6.1-2,8.9c-1.3,2.8-3.9,5.9-7.7,9.5l-13.4,12.6H154.4z"/>
	<path class="st6" d="M188.5,122.9c0,2.1-0.8,3.7-2.4,4.9c-1.6,1.1-3.9,1.7-7.1,1.7h-12.3v-23.1h11.8c2.9,0,5.2,0.5,6.8,1.6   c1.6,1,2.5,2.5,2.5,4.4c0,1.1-0.3,2.2-0.9,3c-0.6,0.9-1.4,1.6-2.5,2C187.1,118.3,188.5,120.1,188.5,122.9z M172.9,115.8h5.1   c2.3,0,3.5-0.8,3.5-2.5c0-1.6-1.2-2.5-3.5-2.5h-5.1V115.8z M182.2,122.4c0-0.9-0.3-1.5-0.9-2s-1.5-0.6-2.7-0.6h-5.8v5.1h5.6   C181,124.9,182.2,124.1,182.2,122.4z"/>
	<path class="st6" d="M231.5,71.4v58.1H218V82.2h-11.6V71.4H231.5z"/>
</g>
<g>
	<path class="st6" d="M131.5,188.3v25.9h-6v-21.1h-5.2v-4.8H131.5z"/>
	<path class="st6" d="M155.4,209.3v4.9h-19.6v-3.9l10-9.4c1.1-1,1.8-1.9,2.1-2.6c0.4-0.7,0.6-1.4,0.6-2.2c0-1-0.4-1.8-1.1-2.4   s-1.7-0.8-3.1-0.8c-1.1,0-2.2,0.2-3.1,0.6s-1.7,1.1-2.3,1.9l-4.4-2.8c1-1.5,2.4-2.7,4.2-3.5c1.8-0.9,3.8-1.3,6.1-1.3   c1.9,0,3.6,0.3,5.1,0.9s2.6,1.5,3.4,2.7c0.8,1.1,1.2,2.5,1.2,4.1c0,1.4-0.3,2.7-0.9,4s-1.7,2.6-3.4,4.2l-6,5.6H155.4z"/>
	<path class="st6" d="M181.6,212.7v4.5H180v-3h-11.3v3h-1.6v-4.5h0.7c0.8,0,1.4-0.7,1.7-1.9c0.3-1.2,0.5-2.9,0.6-5l0.2-4.2h9.3v11.1   H181.6z M171.3,210.3c-0.2,1.2-0.6,2-1.2,2.4h7.9v-9.6h-6.1l-0.1,2.8C171.6,207.7,171.5,209.1,171.3,210.3z"/>
	<path class="st6" d="M184.9,201.6h1.7v5.6h7.9v-5.6h1.7v12.6h-1.7v-5.6h-7.9v5.6h-1.7V201.6z"/>
	<path class="st6" d="M212.2,208.4h-10.6c0.1,1.3,0.6,2.4,1.5,3.2c0.9,0.8,2.1,1.2,3.5,1.2c0.8,0,1.5-0.1,2.2-0.4   c0.7-0.3,1.2-0.7,1.7-1.2l1,1.1c-0.6,0.7-1.3,1.2-2.1,1.5c-0.8,0.4-1.8,0.5-2.8,0.5c-1.3,0-2.4-0.3-3.4-0.8s-1.8-1.3-2.3-2.3   c-0.6-1-0.8-2.1-0.8-3.3c0-1.2,0.3-2.3,0.8-3.3c0.5-1,1.3-1.7,2.2-2.3c0.9-0.5,2-0.8,3.2-0.8s2.2,0.3,3.1,0.8   c0.9,0.5,1.7,1.3,2.2,2.3c0.5,1,0.8,2.1,0.8,3.3L212.2,208.4z M203,204.1c-0.8,0.8-1.3,1.8-1.4,3h9c-0.1-1.2-0.6-2.3-1.4-3   c-0.8-0.8-1.9-1.2-3.1-1.2C204.8,202.9,203.8,203.3,203,204.1z"/>
	<path class="st6" d="M215.9,201.6h1.7v10l8.4-10h1.5v12.6h-1.7v-10l-8.4,10h-1.5V201.6z M219.1,198.9c-0.6-0.5-1-1.3-1-2.3h1.2   c0,0.6,0.2,1.1,0.7,1.5c0.4,0.4,1,0.6,1.7,0.6c0.7,0,1.3-0.2,1.7-0.6c0.4-0.4,0.7-0.9,0.7-1.5h1.2c0,1-0.3,1.8-1,2.3   c-0.6,0.5-1.5,0.8-2.6,0.8C220.6,199.7,219.7,199.5,219.1,198.9z"/>
</g>
</svg>