<svg id="Слой_1" xmlns="http://www.w3.org/2000/svg" viewBox="0 0 209.3636322 98"><style>.st0{fill:#303030}</style><path class="st0" d="M65.537 67.992l-6.161-9.082c-1.23-1.802-3.75-2.236-5.621-.966l-4.575 3.104a68.605 68.605 0 0 1-.677-.566c-2.17-1.81-5.133-4.283-7.959-8.447-2.831-4.173-4.038-7.85-4.919-10.535a71.404 71.404 0 0 1-.27-.819l3.066-2.079 1.512-1.025c1.872-1.274 2.4-3.777 1.174-5.581l-6.164-9.083c-1.22-1.805-3.745-2.24-5.622-.967l-2.558 1.748.044.07a12.676 12.676 0 0 0-2.364 2.782c-.622 1.01-1.08 2-1.393 3.016-2.606 8.15-.252 16.503 8.11 28.83 11.565 17.036 23.298 18.166 23.806 18.206 1.106.08 2.194.019 3.328-.188a12.522 12.522 0 0 0 3.445-1.167l.039.052 2.587-1.716c1.868-1.275 2.395-3.777 1.172-5.587zm39.188-32.029l-11.18 28.7H87.64l-11.143-28.7h6.457l7.86 20.5 7.97-20.5h5.941zm3.137 2.542c-.665-.683-.997-1.53-.997-2.542 0-1.01.332-1.858.997-2.542.664-.683 1.524-1.025 2.583-1.025 1.057 0 1.918.328 2.583.984.664.656.996 1.476.996 2.46 0 1.066-.332 1.948-.996 2.644-.665.698-1.526 1.046-2.583 1.046-1.059 0-1.92-.341-2.583-1.025zm-.296 4.1h5.756v22.058h-5.756V42.605zm28.616 1.087c1.513.943 2.7 2.269 3.56 3.977.862 1.708 1.292 3.697 1.292 5.965 0 2.27-.43 4.258-1.291 5.966-.861 1.709-2.048 3.034-3.561 3.977-1.513.943-3.192 1.414-5.037 1.414-2.73 0-4.81-.956-6.236-2.87v2.542h-5.498V34.241h5.756v10.701c1.451-1.776 3.444-2.665 5.978-2.665 1.845 0 3.524.472 5.037 1.415zm-2.399 14.39c.947-1.106 1.421-2.589 1.421-4.448s-.474-3.341-1.42-4.448c-.948-1.107-2.16-1.661-3.635-1.661s-2.688.554-3.635 1.66c-.947 1.108-1.42 2.59-1.42 4.45s.473 3.34 1.42 4.448c.947 1.107 2.159 1.66 3.635 1.66s2.687-.553 3.634-1.66zm31.162-2.644h-15.018c.27 1.367.91 2.447 1.919 3.24 1.008.793 2.263 1.188 3.764 1.188 1.033 0 1.949-.17 2.749-.512.799-.341 1.543-.882 2.232-1.62l3.063 3.69c-1.87 2.379-4.6 3.567-8.192 3.567-2.239 0-4.22-.484-5.94-1.455a10.055 10.055 0 0 1-3.986-4.039c-.935-1.722-1.403-3.676-1.403-5.863 0-2.159.462-4.106 1.384-5.842.923-1.736 2.19-3.089 3.801-4.06 1.61-.97 3.413-1.455 5.406-1.455 1.943 0 3.702.465 5.277 1.394 1.573.93 2.81 2.262 3.708 3.998.898 1.736 1.347 3.751 1.347 6.047 0 .082-.037.656-.111 1.722zm-13.468-7.093c-.886.82-1.428 1.941-1.624 3.362h9.779c-.198-1.394-.738-2.507-1.624-3.341-.886-.834-1.968-1.25-3.247-1.25-1.304 0-2.399.409-3.284 1.23zm26.439-5.248c1.168-.546 2.515-.82 4.04-.82v5.904c-.64-.054-1.07-.082-1.291-.082-1.649 0-2.94.513-3.875 1.538s-1.402 2.562-1.402 4.612v10.414h-5.756V42.605h5.498v2.911a6.552 6.552 0 0 1 2.786-2.419z"/></svg>